<?xml version="1.0" encoding="utf-8" standalone="no"?>
<!DOCTYPE svg PUBLIC "-//W3C//DTD SVG 1.1//EN"
  "http://www.w3.org/Graphics/SVG/1.1/DTD/svg11.dtd">
<svg xmlns:xlink="http://www.w3.org/1999/xlink" width="1108.2pt" height="1108.2pt" viewBox="0 0 1108.2 1108.2" xmlns="http://www.w3.org/2000/svg" version="1.1">
 <metadata>
  <rdf:RDF xmlns:dc="http://purl.org/dc/elements/1.1/" xmlns:cc="http://creativecommons.org/ns#" xmlns:rdf="http://www.w3.org/1999/02/22-rdf-syntax-ns#">
   <cc:Work>
    <dc:type rdf:resource="http://purl.org/dc/dcmitype/StillImage"/>
    <dc:date>2026-03-13T11:45:47.606444</dc:date>
    <dc:format>image/svg+xml</dc:format>
    <dc:creator>
     <cc:Agent>
      <dc:title>Matplotlib v3.10.8, https://matplotlib.org/</dc:title>
     </cc:Agent>
    </dc:creator>
   </cc:Work>
  </rdf:RDF>
 </metadata>
 <defs>
  <style type="text/css">*{stroke-linejoin: round; stroke-linecap: butt}</style>
 </defs>
 <g id="figure_1">
  <g id="patch_1">
   <path d="M 0 1108.2 
L 1108.2 1108.2 
L 1108.2 0 
L 0 0 
L 0 1108.2 
z
" style="fill: none"/>
  </g>
  <g id="axes_1">
   <g id="patch_2">
    <path d="M 554.1 440.719556 
C 524.041169 440.719556 495.182722 452.673116 473.927919 473.927919 
C 452.673116 495.182722 440.719556 524.041169 440.719556 554.1 
C 440.719556 584.158831 452.673116 613.017278 473.927919 634.272081 
C 495.182722 655.526884 524.041169 667.480444 554.1 667.480444 
L 554.1 554.1 
C 554.1 554.1 554.1 554.1 554.1 554.1 
C 554.1 554.1 554.1 554.1 554.1 554.1 
C 554.1 554.1 554.1 554.1 554.1 554.1 
C 554.1 554.1 554.1 554.1 554.1 554.1 
z
" clip-path="url(#p62452e2044)" style="fill: #dcd7dc; stroke: #000000; stroke-linejoin: miter"/>
   </g>
   <g id="patch_3">
    <path d="M 554.1 332.653821 
C 522.357149 332.653821 490.982245 339.479014 462.107933 352.66547 
C 433.23362 365.851927 407.529291 385.093947 386.742144 409.083593 
C 365.954998 433.073238 350.566942 461.25436 341.623947 491.711402 
C 332.680953 522.168444 330.390345 554.195323 334.907824 585.615077 
L 441.873606 570.23572 
C 439.560657 554.148805 440.733448 537.751043 445.312261 522.157038 
C 449.891074 506.563032 457.769759 492.134298 468.412778 479.851599 
C 479.055797 467.568901 492.216414 457.716987 507.000062 450.965521 
C 521.783709 444.214055 537.847661 440.719556 554.1 440.719556 
z
" clip-path="url(#p62452e2044)" style="fill: #efbabc; stroke: #000000; stroke-linejoin: miter"/>
   </g>
   <g id="patch_4">
    <path d="M 554.1 195.800082 
C 519.932068 195.800082 485.939138 200.687528 453.155248 210.313746 
C 420.371358 219.939965 389.132333 234.20635 360.38844 252.678928 
L 434.377157 367.807619 
C 452.142233 356.390698 471.449418 347.573402 491.711402 341.623947 
C 511.973386 335.674492 532.982613 332.653821 554.1 332.653821 
z
" clip-path="url(#p62452e2044)" style="fill: #eaa5a9; stroke: #000000; stroke-linejoin: miter"/>
   </g>
   <g id="patch_5">
    <path d="M 554.1 15.1 
C 528.432765 15.1 502.798281 16.933414 477.392302 20.586243 
C 451.986323 24.239071 426.873683 29.701992 402.246152 36.933287 
L 453.155248 210.313746 
C 469.526384 205.506747 486.219996 201.875274 503.108605 199.447059 
C 519.997214 197.018843 537.037722 195.800082 554.1 195.800082 
z
" clip-path="url(#p62452e2044)" style="fill: #edb1b3; stroke: #000000; stroke-linejoin: miter"/>
   </g>
   <g id="patch_6">
    <path d="M 402.246152 36.933287 
C 377.618621 44.164583 353.539046 53.1458 330.191308 63.808355 
C 306.84357 74.470909 284.287251 86.787591 262.694599 100.664346 
L 360.38844 252.678928 
C 374.742142 243.454364 389.736441 235.266857 405.256835 228.178931 
C 420.777229 221.091004 436.784112 215.120746 453.155248 210.313746 
z
" clip-path="url(#p62452e2044)" style="fill: #edb1b3; stroke: #000000; stroke-linejoin: miter"/>
   </g>
   <g id="patch_7">
    <path d="M 360.38844 252.678928 
C 331.644546 271.151507 305.690226 293.641053 283.31499 319.463453 
C 260.939753 345.285853 242.372803 374.176591 228.178931 405.256835 
L 352.66547 462.107933 
C 361.43795 442.898882 372.913197 425.043049 386.742144 409.083593 
C 400.571092 393.124137 416.612081 379.224541 434.377157 367.807619 
z
" clip-path="url(#p62452e2044)" style="fill: #eaa5a9; stroke: #000000; stroke-linejoin: miter"/>
   </g>
   <g id="patch_8">
    <path d="M 262.694599 100.664346 
C 241.101948 114.541101 220.528066 129.942515 201.130064 146.750979 
C 181.732063 163.559444 163.559444 181.732063 146.750979 201.130064 
L 283.31499 319.463453 
C 294.488406 306.568643 306.568643 294.488406 319.463453 283.31499 
C 332.358262 272.141573 346.034738 261.903492 360.38844 252.678928 
z
" clip-path="url(#p62452e2044)" style="fill: #edb1b3; stroke: #000000; stroke-linejoin: miter"/>
   </g>
   <g id="patch_9">
    <path d="M 146.750979 201.130064 
C 129.942515 220.528066 114.541101 241.101948 100.664346 262.694599 
C 86.787591 284.287251 74.470909 306.84357 63.808355 330.191308 
L 228.178931 405.256835 
C 235.266857 389.736441 243.454364 374.742142 252.678928 360.38844 
C 261.903492 346.034738 272.141573 332.358262 283.31499 319.463453 
z
" clip-path="url(#p62452e2044)" style="fill: #edb1b3; stroke: #000000; stroke-linejoin: miter"/>
   </g>
   <g id="patch_10">
    <path d="M 228.178931 405.256835 
C 221.091004 420.777229 215.120746 436.784112 210.313746 453.155248 
C 205.506747 469.526384 201.875274 486.219996 199.447059 503.108605 
L 334.907824 522.584923 
C 336.408575 512.146969 338.652996 501.829533 341.623947 491.711402 
C 344.594898 481.593271 348.284799 471.700265 352.66547 462.107933 
z
" clip-path="url(#p62452e2044)" style="fill: #eaa5a9; stroke: #000000; stroke-linejoin: miter"/>
   </g>
   <g id="patch_11">
    <path d="M 63.808355 330.191308 
C 53.1458 353.539046 44.164583 377.618621 36.933287 402.246152 
C 29.701992 426.873683 24.239071 451.986323 20.586243 477.392302 
L 199.447059 503.108605 
C 201.875274 486.219996 205.506747 469.526384 210.313746 453.155248 
C 215.120746 436.784112 221.091004 420.777229 228.178931 405.256835 
z
" clip-path="url(#p62452e2044)" style="fill: #edb1b3; stroke: #000000; stroke-linejoin: miter"/>
   </g>
   <g id="patch_12">
    <path d="M 199.447059 503.108605 
C 197.018843 519.997214 195.800082 537.037722 195.800082 554.1 
C 195.800082 571.162278 197.018843 588.202786 199.447059 605.091395 
L 334.907824 585.615077 
C 333.407073 575.177124 332.653821 564.64529 332.653821 554.1 
C 332.653821 543.55471 333.407073 533.022876 334.907824 522.584923 
z
" clip-path="url(#p62452e2044)" style="fill: #eaa5a9; stroke: #000000; stroke-linejoin: miter"/>
   </g>
   <g id="patch_13">
    <path d="M 20.586243 477.392302 
C 16.933414 502.798281 15.1 528.432765 15.1 554.1 
C 15.1 579.767235 16.933414 605.401719 20.586243 630.807698 
L 199.447059 605.091395 
C 197.018843 588.202786 195.800082 571.162278 195.800082 554.1 
C 195.800082 537.037722 197.018843 519.997214 199.447059 503.108605 
z
" clip-path="url(#p62452e2044)" style="fill: #edb1b3; stroke: #000000; stroke-linejoin: miter"/>
   </g>
   <g id="patch_14">
    <path d="M 334.907824 585.615077 
C 342.487109 638.330166 368.834509 686.581826 409.083593 721.457856 
C 449.332676 756.333885 500.84283 775.546179 554.1 775.546179 
L 554.1 667.480444 
C 526.832329 667.480444 500.45913 657.643749 479.851599 639.787222 
C 459.244069 621.930695 445.7542 597.225845 441.873606 570.23572 
z
" clip-path="url(#p62452e2044)" style="fill: #c1d2e6; stroke: #000000; stroke-linejoin: miter"/>
   </g>
   <g id="patch_15">
    <path d="M 199.447059 605.091395 
C 201.875274 621.980004 205.506747 638.673616 210.313746 655.044752 
C 215.120746 671.415888 221.091004 687.422771 228.178931 702.943165 
L 352.66547 646.092067 
C 348.284799 636.499735 344.594898 626.606729 341.623947 616.488598 
C 338.652996 606.370467 336.408575 596.053031 334.907824 585.615077 
z
" clip-path="url(#p62452e2044)" style="fill: #afc5df; stroke: #000000; stroke-linejoin: miter"/>
   </g>
   <g id="patch_16">
    <path d="M 20.586243 630.807698 
C 24.239071 656.213677 29.701992 681.326317 36.933287 705.953848 
C 44.164583 730.581379 53.1458 754.660954 63.808355 778.008692 
L 228.178931 702.943165 
C 221.091004 687.422771 215.120746 671.415888 210.313746 655.044752 
C 205.506747 638.673616 201.875274 621.980004 199.447059 605.091395 
z
" clip-path="url(#p62452e2044)" style="fill: #b9cde3; stroke: #000000; stroke-linejoin: miter"/>
   </g>
   <g id="patch_17">
    <path d="M 228.178931 702.943165 
C 235.266857 718.463559 243.454364 733.457858 252.678928 747.81156 
C 261.903492 762.165262 272.141573 775.841738 283.31499 788.736547 
L 386.742144 699.116407 
C 379.836448 691.146809 373.508833 682.694105 367.807619 673.822843 
C 362.106406 664.951581 357.046142 655.6844 352.66547 646.092067 
z
" clip-path="url(#p62452e2044)" style="fill: #afc5df; stroke: #000000; stroke-linejoin: miter"/>
   </g>
   <g id="patch_18">
    <path d="M 63.808355 778.008692 
C 74.470909 801.35643 86.787591 823.912749 100.664346 845.505401 
C 114.541101 867.098052 129.942515 887.671934 146.750979 907.069936 
L 283.31499 788.736547 
C 272.141573 775.841738 261.903492 762.165262 252.678928 747.81156 
C 243.454364 733.457858 235.266857 718.463559 228.178931 702.943165 
z
" clip-path="url(#p62452e2044)" style="fill: #b9cde3; stroke: #000000; stroke-linejoin: miter"/>
   </g>
   <g id="patch_19">
    <path d="M 283.31499 788.736547 
C 294.488406 801.631357 306.568643 813.711594 319.463453 824.88501 
C 332.358262 836.058427 346.034738 846.296508 360.38844 855.521072 
L 434.377157 740.392381 
C 425.505895 734.691167 417.053191 728.363552 409.083593 721.457856 
C 401.113995 714.55216 393.64784 707.086005 386.742144 699.116407 
z
" clip-path="url(#p62452e2044)" style="fill: #afc5df; stroke: #000000; stroke-linejoin: miter"/>
   </g>
   <g id="patch_20">
    <path d="M 146.750979 907.069936 
C 163.559444 926.467937 181.732063 944.640556 201.130064 961.449021 
C 220.528066 978.257485 241.101948 993.658899 262.694599 1007.535654 
L 360.38844 855.521072 
C 346.034738 846.296508 332.358262 836.058427 319.463453 824.88501 
C 306.568643 813.711594 294.488406 801.631357 283.31499 788.736547 
z
" clip-path="url(#p62452e2044)" style="fill: #b9cde3; stroke: #000000; stroke-linejoin: miter"/>
   </g>
   <g id="patch_21">
    <path d="M 360.38844 855.521072 
C 374.742142 864.745636 389.736441 872.933143 405.256835 880.021069 
C 420.777229 887.108996 436.784112 893.079254 453.155248 897.886254 
L 491.711402 766.576053 
C 481.593271 763.605102 471.700265 759.915201 462.107933 755.53453 
C 452.5156 751.153858 443.248419 746.093594 434.377157 740.392381 
z
" clip-path="url(#p62452e2044)" style="fill: #afc5df; stroke: #000000; stroke-linejoin: miter"/>
   </g>
   <g id="patch_22">
    <path d="M 262.694599 1007.535654 
C 284.287251 1021.412409 306.84357 1033.729091 330.191308 1044.391645 
C 353.539046 1055.0542 377.618621 1064.035417 402.246152 1071.266713 
L 453.155248 897.886254 
C 436.784112 893.079254 420.777229 887.108996 405.256835 880.021069 
C 389.736441 872.933143 374.742142 864.745636 360.38844 855.521072 
z
" clip-path="url(#p62452e2044)" style="fill: #b9cde3; stroke: #000000; stroke-linejoin: miter"/>
   </g>
   <g id="patch_23">
    <path d="M 453.155248 897.886254 
C 469.526384 902.693253 486.219996 906.324726 503.108605 908.752941 
C 519.997214 911.181157 537.037722 912.399918 554.1 912.399918 
L 554.1 775.546179 
C 543.55471 775.546179 533.022876 774.792927 522.584923 773.292176 
C 512.146969 771.791425 501.829533 769.547004 491.711402 766.576053 
z
" clip-path="url(#p62452e2044)" style="fill: #afc5df; stroke: #000000; stroke-linejoin: miter"/>
   </g>
   <g id="patch_24">
    <path d="M 402.246152 1071.266713 
C 426.873683 1078.498008 451.986323 1083.960929 477.392302 1087.613757 
C 502.798281 1091.266586 528.432765 1093.1 554.1 1093.1 
L 554.1 912.399918 
C 537.037722 912.399918 519.997214 911.181157 503.108605 908.752941 
C 486.219996 906.324726 469.526384 902.693253 453.155248 897.886254 
z
" clip-path="url(#p62452e2044)" style="fill: #b9cde3; stroke: #000000; stroke-linejoin: miter"/>
   </g>
   <g id="patch_25">
    <path d="M 554.1 667.480444 
C 584.158831 667.480444 613.017278 655.526884 634.272081 634.272081 
C 655.526884 613.017278 667.480444 584.158831 667.480444 554.1 
C 667.480444 524.041169 655.526884 495.182722 634.272081 473.927919 
C 613.017278 452.673116 584.158831 440.719556 554.1 440.719556 
L 554.1 554.1 
C 554.1 554.1 554.1 554.1 554.1 554.1 
C 554.1 554.1 554.1 554.1 554.1 554.1 
C 554.1 554.1 554.1 554.1 554.1 554.1 
C 554.1 554.1 554.1 554.1 554.1 554.1 
z
" clip-path="url(#p62452e2044)" style="fill: #dcd7be; stroke: #000000; stroke-linejoin: miter"/>
   </g>
   <g id="patch_26">
    <path d="M 554.1 775.546179 
C 585.842851 775.546179 617.217755 768.720986 646.092067 755.53453 
C 674.96638 742.348073 700.670709 723.106053 721.457856 699.116407 
C 742.245002 675.126762 757.633058 646.94564 766.576053 616.488598 
C 775.519047 586.031556 777.809655 554.004677 773.292176 522.584923 
L 666.326394 537.96428 
C 668.639343 554.051195 667.466552 570.448957 662.887739 586.042962 
C 658.308926 601.636968 650.430241 616.065702 639.787222 628.348401 
C 629.144203 640.631099 615.983586 650.483013 601.199938 657.234479 
C 586.416291 663.985945 570.352339 667.480444 554.1 667.480444 
z
" clip-path="url(#p62452e2044)" style="fill: #f2e6b7; stroke: #000000; stroke-linejoin: miter"/>
   </g>
   <g id="patch_27">
    <path d="M 554.1 912.399918 
C 571.162278 912.399918 588.202786 911.181157 605.091395 908.752941 
C 621.980004 906.324726 638.673616 902.693253 655.044752 897.886254 
L 616.488598 766.576053 
C 606.370467 769.547004 596.053031 771.791425 585.615077 773.292176 
C 575.177124 774.792927 564.64529 775.546179 554.1 775.546179 
z
" clip-path="url(#p62452e2044)" style="fill: #eedfa2; stroke: #000000; stroke-linejoin: miter"/>
   </g>
   <g id="patch_28">
    <path d="M 554.1 1093.1 
C 579.767235 1093.1 605.401719 1091.266586 630.807698 1087.613757 
C 656.213677 1083.960929 681.326317 1078.498008 705.953848 1071.266713 
L 655.044752 897.886254 
C 638.673616 902.693253 621.980004 906.324726 605.091395 908.752941 
C 588.202786 911.181157 571.162278 912.399918 554.1 912.399918 
z
" clip-path="url(#p62452e2044)" style="fill: #f0e3ae; stroke: #000000; stroke-linejoin: miter"/>
   </g>
   <g id="patch_29">
    <path d="M 655.044752 897.886254 
C 671.415888 893.079254 687.422771 887.108996 702.943165 880.021069 
C 718.463559 872.933143 733.457858 864.745636 747.81156 855.521072 
L 673.822843 740.392381 
C 664.951581 746.093594 655.6844 751.153858 646.092067 755.53453 
C 636.499735 759.915201 626.606729 763.605102 616.488598 766.576053 
z
" clip-path="url(#p62452e2044)" style="fill: #eedfa2; stroke: #000000; stroke-linejoin: miter"/>
   </g>
   <g id="patch_30">
    <path d="M 705.953848 1071.266713 
C 730.581379 1064.035417 754.660954 1055.0542 778.008692 1044.391645 
C 801.35643 1033.729091 823.912749 1021.412409 845.505401 1007.535654 
L 747.81156 855.521072 
C 733.457858 864.745636 718.463559 872.933143 702.943165 880.021069 
C 687.422771 887.108996 671.415888 893.079254 655.044752 897.886254 
z
" clip-path="url(#p62452e2044)" style="fill: #f0e3ae; stroke: #000000; stroke-linejoin: miter"/>
   </g>
   <g id="patch_31">
    <path d="M 747.81156 855.521072 
C 762.165262 846.296508 775.841738 836.058427 788.736547 824.88501 
C 801.631357 813.711594 813.711594 801.631357 824.88501 788.736547 
L 721.457856 699.116407 
C 714.55216 707.086005 707.086005 714.55216 699.116407 721.457856 
C 691.146809 728.363552 682.694105 734.691167 673.822843 740.392381 
z
" clip-path="url(#p62452e2044)" style="fill: #eedfa2; stroke: #000000; stroke-linejoin: miter"/>
   </g>
   <g id="patch_32">
    <path d="M 845.505401 1007.535654 
C 867.098052 993.658899 887.671934 978.257485 907.069936 961.449021 
C 926.467937 944.640556 944.640556 926.467937 961.449021 907.069936 
L 824.88501 788.736547 
C 813.711594 801.631357 801.631357 813.711594 788.736547 824.88501 
C 775.841738 836.058427 762.165262 846.296508 747.81156 855.521072 
z
" clip-path="url(#p62452e2044)" style="fill: #f0e3ae; stroke: #000000; stroke-linejoin: miter"/>
   </g>
   <g id="patch_33">
    <path d="M 824.88501 788.736547 
C 836.058427 775.841738 846.296508 762.165262 855.521072 747.81156 
C 864.745636 733.457858 872.933143 718.463559 880.021069 702.943165 
L 755.53453 646.092067 
C 751.153858 655.6844 746.093594 664.951581 740.392381 673.822843 
C 734.691167 682.694105 728.363552 691.146809 721.457856 699.116407 
z
" clip-path="url(#p62452e2044)" style="fill: #eedfa2; stroke: #000000; stroke-linejoin: miter"/>
   </g>
   <g id="patch_34">
    <path d="M 961.449021 907.069936 
C 978.257485 887.671934 993.658899 867.098052 1007.535654 845.505401 
C 1021.412409 823.912749 1033.729091 801.35643 1044.391645 778.008692 
L 880.021069 702.943165 
C 872.933143 718.463559 864.745636 733.457858 855.521072 747.81156 
C 846.296508 762.165262 836.058427 775.841738 824.88501 788.736547 
z
" clip-path="url(#p62452e2044)" style="fill: #f0e3ae; stroke: #000000; stroke-linejoin: miter"/>
   </g>
   <g id="patch_35">
    <path d="M 880.021069 702.943165 
C 887.108996 687.422771 893.079254 671.415888 897.886254 655.044752 
C 902.693253 638.673616 906.324726 621.980004 908.752941 605.091395 
L 773.292176 585.615077 
C 771.791425 596.053031 769.547004 606.370467 766.576053 616.488598 
C 763.605102 626.606729 759.915201 636.499735 755.53453 646.092067 
z
" clip-path="url(#p62452e2044)" style="fill: #eedfa2; stroke: #000000; stroke-linejoin: miter"/>
   </g>
   <g id="patch_36">
    <path d="M 1044.391645 778.008692 
C 1055.0542 754.660954 1064.035417 730.581379 1071.266713 705.953848 
C 1078.498008 681.326317 1083.960929 656.213677 1087.613757 630.807698 
L 908.752941 605.091395 
C 906.324726 621.980004 902.693253 638.673616 897.886254 655.044752 
C 893.079254 671.415888 887.108996 687.422771 880.021069 702.943165 
z
" clip-path="url(#p62452e2044)" style="fill: #f0e3ae; stroke: #000000; stroke-linejoin: miter"/>
   </g>
   <g id="patch_37">
    <path d="M 908.752941 605.091395 
C 911.181157 588.202786 912.399918 571.162278 912.399918 554.1 
C 912.399918 537.037722 911.181157 519.997214 908.752941 503.108605 
L 773.292176 522.584923 
C 774.792927 533.022876 775.546179 543.55471 775.546179 554.1 
C 775.546179 564.64529 774.792927 575.177124 773.292176 585.615077 
z
" clip-path="url(#p62452e2044)" style="fill: #eedfa2; stroke: #000000; stroke-linejoin: miter"/>
   </g>
   <g id="patch_38">
    <path d="M 1087.613757 630.807698 
C 1091.266586 605.401719 1093.1 579.767235 1093.1 554.1 
C 1093.1 528.432765 1091.266586 502.798281 1087.613757 477.392302 
L 908.752941 503.108605 
C 911.181157 519.997214 912.399918 537.037722 912.399918 554.1 
C 912.399918 571.162278 911.181157 588.202786 908.752941 605.091395 
z
" clip-path="url(#p62452e2044)" style="fill: #f0e3ae; stroke: #000000; stroke-linejoin: miter"/>
   </g>
   <g id="patch_39">
    <path d="M 773.292176 522.584923 
C 765.712891 469.869834 739.365491 421.618174 699.116407 386.742144 
C 658.867324 351.866115 607.35717 332.653821 554.1 332.653821 
L 554.1 440.719556 
C 581.367671 440.719556 607.74087 450.556251 628.348401 468.412778 
C 648.955931 486.269305 662.4458 510.974155 666.326394 537.96428 
z
" clip-path="url(#p62452e2044)" style="fill: #c3dfca; stroke: #000000; stroke-linejoin: miter"/>
   </g>
   <g id="patch_40">
    <path d="M 908.752941 503.108605 
C 906.324726 486.219996 902.693253 469.526384 897.886254 453.155248 
C 893.079254 436.784112 887.108996 420.777229 880.021069 405.256835 
L 755.53453 462.107933 
C 759.915201 471.700265 763.605102 481.593271 766.576053 491.711402 
C 769.547004 501.829533 771.791425 512.146969 773.292176 522.584923 
z
" clip-path="url(#p62452e2044)" style="fill: #b2d6ba; stroke: #000000; stroke-linejoin: miter"/>
   </g>
   <g id="patch_41">
    <path d="M 1087.613757 477.392302 
C 1083.960929 451.986323 1078.498008 426.873683 1071.266713 402.246152 
C 1064.035417 377.618621 1055.0542 353.539046 1044.391645 330.191308 
L 880.021069 405.256835 
C 887.108996 420.777229 893.079254 436.784112 897.886254 453.155248 
C 902.693253 469.526384 906.324726 486.219996 908.752941 503.108605 
z
" clip-path="url(#p62452e2044)" style="fill: #bcdbc3; stroke: #000000; stroke-linejoin: miter"/>
   </g>
   <g id="patch_42">
    <path d="M 880.021069 405.256835 
C 872.933143 389.736441 864.745636 374.742142 855.521072 360.38844 
C 846.296508 346.034738 836.058427 332.358262 824.88501 319.463453 
L 721.457856 409.083593 
C 728.363552 417.053191 734.691167 425.505895 740.392381 434.377157 
C 746.093594 443.248419 751.153858 452.5156 755.53453 462.107933 
z
" clip-path="url(#p62452e2044)" style="fill: #b2d6ba; stroke: #000000; stroke-linejoin: miter"/>
   </g>
   <g id="patch_43">
    <path d="M 1044.391645 330.191308 
C 1033.729091 306.84357 1021.412409 284.287251 1007.535654 262.694599 
C 993.658899 241.101948 978.257485 220.528066 961.449021 201.130064 
L 824.88501 319.463453 
C 836.058427 332.358262 846.296508 346.034738 855.521072 360.38844 
C 864.745636 374.742142 872.933143 389.736441 880.021069 405.256835 
z
" clip-path="url(#p62452e2044)" style="fill: #bcdbc3; stroke: #000000; stroke-linejoin: miter"/>
   </g>
   <g id="patch_44">
    <path d="M 824.88501 319.463453 
C 813.711594 306.568643 801.631357 294.488406 788.736547 283.31499 
C 775.841738 272.141573 762.165262 261.903492 747.81156 252.678928 
L 673.822843 367.807619 
C 682.694105 373.508833 691.146809 379.836448 699.116407 386.742144 
C 707.086005 393.64784 714.55216 401.113995 721.457856 409.083593 
z
" clip-path="url(#p62452e2044)" style="fill: #b2d6ba; stroke: #000000; stroke-linejoin: miter"/>
   </g>
   <g id="patch_45">
    <path d="M 961.449021 201.130064 
C 944.640556 181.732063 926.467937 163.559444 907.069936 146.750979 
C 887.671934 129.942515 867.098052 114.541101 845.505401 100.664346 
L 747.81156 252.678928 
C 762.165262 261.903492 775.841738 272.141573 788.736547 283.31499 
C 801.631357 294.488406 813.711594 306.568643 824.88501 319.463453 
z
" clip-path="url(#p62452e2044)" style="fill: #bcdbc3; stroke: #000000; stroke-linejoin: miter"/>
   </g>
   <g id="patch_46">
    <path d="M 747.81156 252.678928 
C 733.457858 243.454364 718.463559 235.266857 702.943165 228.178931 
C 687.422771 221.091004 671.415888 215.120746 655.044752 210.313746 
L 616.488598 341.623947 
C 626.606729 344.594898 636.499735 348.284799 646.092067 352.66547 
C 655.6844 357.046142 664.951581 362.106406 673.822843 367.807619 
z
" clip-path="url(#p62452e2044)" style="fill: #b2d6ba; stroke: #000000; stroke-linejoin: miter"/>
   </g>
   <g id="patch_47">
    <path d="M 845.505401 100.664346 
C 823.912749 86.787591 801.35643 74.470909 778.008692 63.808355 
C 754.660954 53.1458 730.581379 44.164583 705.953848 36.933287 
L 655.044752 210.313746 
C 671.415888 215.120746 687.422771 221.091004 702.943165 228.178931 
C 718.463559 235.266857 733.457858 243.454364 747.81156 252.678928 
z
" clip-path="url(#p62452e2044)" style="fill: #bcdbc3; stroke: #000000; stroke-linejoin: miter"/>
   </g>
   <g id="patch_48">
    <path d="M 655.044752 210.313746 
C 638.673616 205.506747 621.980004 201.875274 605.091395 199.447059 
C 588.202786 197.018843 571.162278 195.800082 554.1 195.800082 
L 554.1 332.653821 
C 564.64529 332.653821 575.177124 333.407073 585.615077 334.907824 
C 596.053031 336.408575 606.370467 338.652996 616.488598 341.623947 
z
" clip-path="url(#p62452e2044)" style="fill: #b2d6ba; stroke: #000000; stroke-linejoin: miter"/>
   </g>
   <g id="patch_49">
    <path d="M 705.953848 36.933287 
C 681.326317 29.701992 656.213677 24.239071 630.807698 20.586243 
C 605.401719 16.933414 579.767235 15.1 554.1 15.1 
L 554.1 195.800082 
C 571.162278 195.800082 588.202786 197.018843 605.091395 199.447059 
C 621.980004 201.875274 638.673616 205.506747 655.044752 210.313746 
z
" clip-path="url(#p62452e2044)" style="fill: #bcdbc3; stroke: #000000; stroke-linejoin: miter"/>
   </g>
   <g id="patch_50">
    <path d="M 554.1 667.480444 
C 584.168845 667.480444 613.010196 655.533965 634.272081 634.272081 
C 655.533965 613.010196 667.480444 584.168845 667.480444 554.1 
C 667.480444 524.031155 655.533965 495.189804 634.272081 473.927919 
C 613.010196 452.666035 584.168845 440.719556 554.1 440.719556 
C 524.031155 440.719556 495.189804 452.666035 473.927919 473.927919 
C 452.666035 495.189804 440.719556 524.031155 440.719556 554.1 
C 440.719556 584.168845 452.666035 613.010196 473.927919 634.272081 
C 495.189804 655.533965 524.031155 667.480444 554.1 667.480444 
L 554.1 667.480444 
z
" clip-path="url(#p62452e2044)" style="fill: none; stroke: #000000; stroke-linejoin: miter"/>
   </g>
   <g id="patch_51">
    <path d="M 554.1 775.546179 
C 612.828213 775.546179 669.158977 752.213213 710.686095 710.686095 
C 752.213213 669.158977 775.546179 612.828213 775.546179 554.1 
C 775.546179 495.371787 752.213213 439.041023 710.686095 397.513905 
C 669.158977 355.986787 612.828213 332.653821 554.1 332.653821 
C 495.371787 332.653821 439.041023 355.986787 397.513905 397.513905 
C 355.986787 439.041023 332.653821 495.371787 332.653821 554.1 
C 332.653821 612.828213 355.986787 669.158977 397.513905 710.686095 
C 439.041023 752.213213 495.371787 775.546179 554.1 775.546179 
L 554.1 775.546179 
z
" clip-path="url(#p62452e2044)" style="fill: none; stroke: #000000; stroke-linejoin: miter"/>
   </g>
   <g id="patch_52">
    <path d="M 554.1 912.399918 
C 649.122249 912.399918 740.265425 874.647178 807.456302 807.456302 
C 874.647178 740.265425 912.399918 649.122249 912.399918 554.1 
C 912.399918 459.077751 874.647178 367.934575 807.456302 300.743698 
C 740.265425 233.552822 649.122249 195.800082 554.1 195.800082 
C 459.077751 195.800082 367.934575 233.552822 300.743698 300.743698 
C 233.552822 367.934575 195.800082 459.077751 195.800082 554.1 
C 195.800082 649.122249 233.552822 740.265425 300.743698 807.456302 
C 367.934575 874.647178 459.077751 912.399918 554.1 912.399918 
L 554.1 912.399918 
z
" clip-path="url(#p62452e2044)" style="fill: none; stroke: #000000; stroke-linejoin: miter"/>
   </g>
   <g id="patch_53">
    <path d="M 554.1 1093.1 
C 697.044471 1093.1 834.15355 1036.30756 935.230555 935.230555 
C 1036.30756 834.15355 1093.1 697.044471 1093.1 554.1 
C 1093.1 411.155529 1036.30756 274.04645 935.230555 172.969445 
C 834.15355 71.89244 697.044471 15.1 554.1 15.1 
C 411.155529 15.1 274.04645 71.89244 172.969445 172.969445 
C 71.89244 274.04645 15.1 411.155529 15.1 554.1 
C 15.1 697.044471 71.89244 834.15355 172.969445 935.230555 
C 274.04645 1036.30756 411.155529 1093.1 554.1 1093.1 
L 554.1 1093.1 
z
" clip-path="url(#p62452e2044)" style="fill: none; stroke: #000000; stroke-linejoin: miter"/>
   </g>
   <g id="text_1">
    <!-- Negative -->
    <g transform="translate(465.456028 558.74) scale(0.16 -0.16)">
     <defs>
      <path id="AppleGothic-4e" d="M 320 0 
L 320 5018 
L 781 5018 
L 3866 768 
L 3866 5018 
L 4326 5018 
L 4326 0 
L 3866 0 
L 781 4243 
L 781 0 
L 320 0 
z
" transform="scale(0.015625)"/>
      <path id="AppleGothic-65" d="M 3296 1850 
L 691 1850 
Q 691 1114 1033 726 
Q 1376 339 1933 339 
Q 2355 339 2746 608 
Q 2854 678 2976 784 
Q 3098 890 3238 1030 
L 3238 474 
Q 3085 358 2953 272 
Q 2822 186 2707 128 
Q 2304 -83 1901 -83 
Q 1203 -83 717 397 
Q 192 902 192 1709 
Q 192 2470 666 2982 
Q 1146 3501 1850 3501 
Q 2534 3501 2938 3002 
Q 3296 2547 3296 1850 
z
M 755 2240 
L 2758 2240 
Q 2682 2675 2429 2889 
Q 2176 3104 1818 3104 
Q 1421 3104 1146 2854 
Q 890 2624 755 2240 
z
" transform="scale(0.015625)"/>
      <path id="AppleGothic-67" d="M 2822 3040 
L 2950 3424 
L 3290 3424 
L 3290 326 
Q 3290 -474 2899 -890 
Q 2509 -1306 1690 -1306 
Q 1357 -1306 1059 -1187 
Q 762 -1069 435 -819 
L 435 -256 
Q 640 -448 838 -579 
Q 1037 -710 1229 -781 
Q 1453 -864 1690 -864 
Q 2195 -864 2477 -634 
Q 2822 -352 2822 269 
L 2822 691 
Q 2579 288 2221 122 
Q 1978 6 1683 6 
Q 1050 6 621 512 
Q 198 1030 198 1709 
Q 198 2387 595 2906 
Q 1056 3501 1773 3501 
Q 2131 3501 2451 3328 
Q 2547 3270 2640 3200 
Q 2733 3130 2822 3040 
z
M 2822 1658 
L 2822 2598 
Q 2714 2720 2602 2803 
Q 2490 2886 2381 2950 
Q 2253 3021 2118 3053 
Q 1984 3085 1843 3085 
Q 1363 3085 1050 2746 
Q 698 2362 698 1734 
Q 698 1165 992 794 
Q 1280 429 1741 429 
Q 2195 429 2509 781 
Q 2822 1120 2822 1658 
z
" transform="scale(0.015625)"/>
      <path id="AppleGothic-61" d="M 2950 2214 
L 2950 602 
Q 2950 493 2998 413 
Q 3046 333 3174 333 
Q 3213 333 3238 336 
Q 3264 339 3290 346 
Q 3328 358 3357 371 
Q 3386 384 3405 390 
L 3405 32 
Q 3290 -6 3174 -22 
Q 3059 -38 2995 -38 
Q 2669 -38 2566 134 
Q 2483 243 2483 602 
Q 2400 461 2317 355 
Q 2234 250 2150 179 
Q 1818 -83 1376 -83 
Q 909 -83 563 192 
Q 205 486 205 941 
Q 205 1510 781 1779 
Q 992 1882 1341 1958 
Q 1690 2035 2176 2099 
L 2483 2131 
Q 2483 2579 2256 2832 
Q 2029 3085 1587 3085 
Q 1421 3085 1257 3043 
Q 1094 3002 928 2912 
Q 838 2861 729 2790 
Q 621 2720 493 2611 
L 493 3136 
Q 1037 3501 1664 3501 
Q 2304 3501 2650 3098 
Q 2950 2746 2950 2214 
z
M 2483 1542 
L 2483 1747 
L 2266 1722 
Q 1466 1638 1139 1498 
Q 704 1325 704 934 
Q 704 819 755 713 
Q 806 608 896 525 
Q 986 442 1117 390 
Q 1248 339 1408 339 
Q 1843 339 2170 691 
Q 2483 1050 2483 1542 
z
" transform="scale(0.015625)"/>
      <path id="AppleGothic-74" d="M 691 4435 
L 1114 4435 
L 1114 3430 
L 2016 3430 
L 2016 3014 
L 1114 3014 
L 1114 838 
Q 1114 570 1213 454 
Q 1312 339 1555 339 
Q 1696 339 1795 371 
Q 1894 403 2016 454 
L 2016 38 
Q 1914 6 1770 -22 
Q 1626 -51 1478 -51 
Q 1094 -51 883 122 
Q 646 301 646 698 
L 646 3014 
L 70 3014 
L 70 3430 
L 646 3430 
L 691 4435 
z
" transform="scale(0.015625)"/>
      <path id="AppleGothic-69" d="M 256 3424 
L 717 3424 
L 717 0 
L 256 0 
L 256 3424 
z
M 480 4870 
Q 614 4870 704 4780 
Q 794 4691 794 4525 
Q 794 4358 710 4268 
Q 627 4179 480 4179 
Q 333 4179 253 4281 
Q 173 4384 173 4518 
Q 173 4730 269 4800 
Q 365 4870 480 4870 
z
" transform="scale(0.015625)"/>
      <path id="AppleGothic-76" d="M 109 3424 
L 627 3424 
L 1715 486 
L 2829 3424 
L 3290 3424 
L 1920 0 
L 1478 0 
L 109 3424 
z
" transform="scale(0.015625)"/>
     </defs>
     <use xlink:href="#AppleGothic-4e"/>
     <use xlink:href="#AppleGothic-65" transform="translate(72.599991 0)"/>
     <use xlink:href="#AppleGothic-67" transform="translate(127.499985 0)"/>
     <use xlink:href="#AppleGothic-61" transform="translate(183.699982 0)"/>
     <use xlink:href="#AppleGothic-74" transform="translate(240.199966 0)"/>
     <use xlink:href="#AppleGothic-69" transform="translate(274.399963 0)"/>
     <use xlink:href="#AppleGothic-76" transform="translate(290.299957 0)"/>
     <use xlink:href="#AppleGothic-65" transform="translate(344.499954 0)"/>
    </g>
   </g>
   <g id="text_2">
    <!-- High -->
    <g transform="translate(412.772831 437.778911) rotate(-319.090909) scale(0.16 -0.16)">
     <defs>
      <path id="AppleGothic-48" d="M 352 5018 
L 851 5018 
L 851 2829 
L 3610 2829 
L 3610 5018 
L 4109 5018 
L 4109 0 
L 3610 0 
L 3610 2406 
L 851 2406 
L 851 0 
L 352 0 
L 352 5018 
z
" transform="scale(0.015625)"/>
      <path id="AppleGothic-68" d="M 288 5018 
L 749 5018 
L 749 2810 
Q 909 3066 1139 3238 
Q 1491 3501 1926 3501 
Q 2195 3501 2409 3424 
Q 2624 3347 2803 3200 
Q 3181 2867 3181 2266 
L 3181 0 
L 2714 0 
L 2714 2202 
Q 2714 2573 2477 2829 
Q 2240 3085 1901 3085 
Q 1408 3085 1082 2694 
Q 749 2291 749 1773 
L 749 0 
L 288 0 
L 288 5018 
z
" transform="scale(0.015625)"/>
     </defs>
     <use xlink:href="#AppleGothic-48"/>
     <use xlink:href="#AppleGothic-69" transform="translate(70.299988 0)"/>
     <use xlink:href="#AppleGothic-67" transform="translate(86.199982 0)"/>
     <use xlink:href="#AppleGothic-68" transform="translate(142.399979 0)"/>
    </g>
   </g>
   <g id="text_3">
    <!-- Anger -->
    <g transform="translate(461.787387 256.181633) rotate(-286.363636) scale(0.16 -0.16)">
     <defs>
      <path id="AppleGothic-41" d="M 2086 5018 
L 2579 5018 
L 4448 0 
L 3859 0 
L 3258 1715 
L 1350 1715 
L 723 0 
L 166 0 
L 2086 5018 
z
M 3117 2157 
L 2342 4416 
L 1504 2157 
L 3117 2157 
z
" transform="scale(0.015625)"/>
      <path id="AppleGothic-6e" d="M 3264 2291 
L 3264 0 
L 2803 0 
L 2803 2259 
Q 2803 2618 2541 2848 
Q 2278 3085 1914 3085 
Q 1427 3085 1075 2682 
Q 723 2272 723 1760 
L 723 0 
L 288 0 
L 288 3424 
L 691 3424 
L 710 2784 
Q 883 3046 1114 3219 
Q 1491 3501 1965 3501 
Q 2515 3501 2886 3168 
Q 3264 2842 3264 2291 
z
" transform="scale(0.015625)"/>
      <path id="AppleGothic-72" d="M 2125 3424 
L 2125 2963 
Q 2054 2989 2009 3005 
Q 1965 3021 1933 3027 
Q 1901 3034 1865 3037 
Q 1830 3040 1773 3040 
Q 1306 3040 1005 2586 
Q 749 2170 749 1658 
L 749 0 
L 288 0 
L 288 3424 
L 710 3424 
L 742 2835 
Q 902 3104 1043 3219 
Q 1331 3456 1734 3456 
Q 1843 3456 1936 3449 
Q 2029 3443 2125 3424 
z
" transform="scale(0.015625)"/>
     </defs>
     <use xlink:href="#AppleGothic-41"/>
     <use xlink:href="#AppleGothic-6e" transform="translate(72.599991 0)"/>
     <use xlink:href="#AppleGothic-67" transform="translate(128.499985 0)"/>
     <use xlink:href="#AppleGothic-65" transform="translate(184.699982 0)"/>
     <use xlink:href="#AppleGothic-72" transform="translate(239.599976 0)"/>
    </g>
   </g>
   <g id="text_4">
    <!-- Anger -->
    <g transform="translate(482.52889 88.915767) rotate(-278.181818) scale(0.16 -0.16)">
     <use xlink:href="#AppleGothic-41"/>
     <use xlink:href="#AppleGothic-6e" transform="translate(72.599991 0)"/>
     <use xlink:href="#AppleGothic-67" transform="translate(128.499985 0)"/>
     <use xlink:href="#AppleGothic-65" transform="translate(184.699982 0)"/>
     <use xlink:href="#AppleGothic-72" transform="translate(239.599976 0)"/>
    </g>
   </g>
   <g id="text_5">
    <!-- Rage -->
    <g transform="translate(355.806258 131.066824) rotate(-294.545455) scale(0.16 -0.16)">
     <defs>
      <path id="AppleGothic-52" d="M 314 5018 
L 1971 5018 
Q 2637 5018 3072 4800 
Q 3680 4493 3680 3776 
Q 3680 3283 3405 2969 
Q 3130 2656 2522 2470 
Q 2630 2426 2713 2384 
Q 2797 2342 2848 2291 
Q 3072 2099 3200 1728 
L 3840 0 
L 3270 0 
L 2938 1050 
Q 2675 1837 2387 2080 
Q 2138 2310 1562 2310 
L 819 2310 
L 819 0 
L 314 0 
L 314 5018 
z
M 2067 4576 
L 819 4576 
L 819 2707 
L 1587 2707 
Q 2048 2707 2365 2793 
Q 2682 2880 2880 3072 
Q 3014 3194 3100 3373 
Q 3187 3552 3187 3738 
Q 3187 4090 2899 4320 
Q 2586 4576 2067 4576 
z
" transform="scale(0.015625)"/>
     </defs>
     <use xlink:href="#AppleGothic-52"/>
     <use xlink:href="#AppleGothic-61" transform="translate(63.999985 0)"/>
     <use xlink:href="#AppleGothic-67" transform="translate(120.499969 0)"/>
     <use xlink:href="#AppleGothic-65" transform="translate(176.699966 0)"/>
    </g>
   </g>
   <g id="text_6">
    <!-- Fear -->
    <g transform="translate(319.439248 357.243968) rotate(-319.090909) scale(0.16 -0.16)">
     <defs>
      <path id="AppleGothic-46" d="M 339 5018 
L 3462 5018 
L 3462 4576 
L 845 4576 
L 845 2714 
L 3354 2714 
L 3354 2304 
L 845 2304 
L 845 0 
L 339 0 
L 339 5018 
z
" transform="scale(0.015625)"/>
     </defs>
     <use xlink:href="#AppleGothic-46"/>
     <use xlink:href="#AppleGothic-65" transform="translate(58.199997 0)"/>
     <use xlink:href="#AppleGothic-61" transform="translate(113.099991 0)"/>
     <use xlink:href="#AppleGothic-72" transform="translate(169.599976 0)"/>
    </g>
   </g>
   <g id="text_7">
    <!-- Fear -->
    <g transform="translate(245.866527 205.85639) rotate(-310.909091) scale(0.16 -0.16)">
     <use xlink:href="#AppleGothic-46"/>
     <use xlink:href="#AppleGothic-65" transform="translate(58.199997 0)"/>
     <use xlink:href="#AppleGothic-61" transform="translate(113.099991 0)"/>
     <use xlink:href="#AppleGothic-72" transform="translate(169.599976 0)"/>
    </g>
   </g>
   <g id="text_8">
    <!-- Panic -->
    <g transform="translate(157.837755 305.257902) rotate(-327.272727) scale(0.16 -0.16)">
     <defs>
      <path id="AppleGothic-50" d="M 262 5018 
L 1869 5018 
Q 2560 5018 3002 4781 
Q 3597 4448 3597 3718 
Q 3597 3014 3104 2630 
Q 2656 2272 1952 2272 
L 768 2272 
L 768 0 
L 262 0 
L 262 5018 
z
M 1862 4576 
L 768 4576 
L 768 2714 
L 1901 2714 
Q 2349 2714 2675 2950 
Q 3040 3219 3040 3674 
Q 3040 4186 2611 4410 
Q 2298 4576 1862 4576 
z
" transform="scale(0.015625)"/>
      <path id="AppleGothic-63" d="M 3085 3123 
L 3085 2522 
Q 2726 2861 2349 3008 
Q 2240 3053 2125 3069 
Q 2010 3085 1894 3085 
Q 1363 3085 1024 2688 
Q 685 2278 685 1715 
Q 685 1139 1037 730 
Q 1389 339 1920 339 
Q 2253 339 2528 483 
Q 2803 627 3085 915 
L 3085 307 
Q 2746 96 2470 6 
Q 2195 -83 1914 -83 
Q 1197 -83 685 429 
Q 186 960 186 1709 
Q 186 2445 678 2976 
Q 1178 3501 1920 3501 
Q 2298 3501 2624 3373 
Q 2816 3302 3085 3123 
z
" transform="scale(0.015625)"/>
     </defs>
     <use xlink:href="#AppleGothic-50"/>
     <use xlink:href="#AppleGothic-61" transform="translate(60.299988 0)"/>
     <use xlink:href="#AppleGothic-6e" transform="translate(116.799973 0)"/>
     <use xlink:href="#AppleGothic-69" transform="translate(172.699966 0)"/>
     <use xlink:href="#AppleGothic-63" transform="translate(188.59996 0)"/>
    </g>
   </g>
   <g id="text_9">
    <!-- Stress -->
    <g transform="translate(252.582243 470.669354) rotate(-343.636364) scale(0.16 -0.16)">
     <defs>
      <path id="AppleGothic-53" d="M 3418 4666 
L 3418 4019 
Q 3251 4160 3081 4269 
Q 2912 4378 2746 4448 
Q 2362 4627 1965 4627 
Q 1466 4627 1139 4378 
Q 806 4122 806 3770 
Q 806 3258 1562 3002 
Q 1914 2880 2262 2768 
Q 2611 2656 2970 2541 
Q 3731 2176 3731 1453 
Q 3731 749 3187 320 
Q 2669 -83 1901 -83 
Q 1389 -83 915 115 
Q 640 224 262 474 
L 262 1126 
Q 755 685 1261 506 
Q 1427 442 1587 416 
Q 1747 390 1907 390 
Q 2419 390 2771 646 
Q 3162 928 3162 1382 
Q 3162 1933 2419 2221 
Q 2061 2330 1715 2445 
Q 1370 2560 1024 2669 
Q 275 3014 275 3731 
Q 275 4333 749 4710 
Q 1235 5101 1965 5101 
Q 2413 5101 2861 4934 
Q 3091 4858 3418 4666 
z
" transform="scale(0.015625)"/>
      <path id="AppleGothic-73" d="M 224 294 
L 224 851 
Q 621 531 1030 403 
Q 1152 371 1267 355 
Q 1382 339 1504 339 
Q 1894 339 2150 518 
Q 2413 710 2413 947 
Q 2413 1075 2317 1210 
Q 2182 1376 1600 1510 
Q 909 1683 678 1798 
Q 230 2054 230 2515 
Q 230 2944 602 3219 
Q 979 3501 1542 3501 
Q 1798 3501 2003 3456 
Q 2208 3411 2387 3337 
Q 2566 3264 2720 3155 
L 2720 2598 
Q 2451 2822 2156 2953 
Q 1862 3085 1536 3085 
Q 1210 3085 973 2938 
Q 730 2790 730 2554 
Q 730 2240 1306 2054 
Q 1574 1978 1836 1901 
Q 2099 1824 2368 1747 
Q 2950 1498 2950 992 
Q 2950 563 2547 237 
Q 2138 -83 1530 -83 
Q 1261 -83 1005 -26 
Q 595 64 224 294 
z
" transform="scale(0.015625)"/>
     </defs>
     <use xlink:href="#AppleGothic-53"/>
     <use xlink:href="#AppleGothic-74" transform="translate(63.199997 0)"/>
     <use xlink:href="#AppleGothic-72" transform="translate(97.399994 0)"/>
     <use xlink:href="#AppleGothic-65" transform="translate(132.599991 0)"/>
     <use xlink:href="#AppleGothic-73" transform="translate(187.499985 0)"/>
     <use xlink:href="#AppleGothic-73" transform="translate(237.099976 0)"/>
    </g>
   </g>
   <g id="text_10">
    <!-- Stress -->
    <g transform="translate(100.236913 425.936729) rotate(-343.636364) scale(0.16 -0.16)">
     <use xlink:href="#AppleGothic-53"/>
     <use xlink:href="#AppleGothic-74" transform="translate(63.199997 0)"/>
     <use xlink:href="#AppleGothic-72" transform="translate(97.399994 0)"/>
     <use xlink:href="#AppleGothic-65" transform="translate(132.599991 0)"/>
     <use xlink:href="#AppleGothic-73" transform="translate(187.499985 0)"/>
     <use xlink:href="#AppleGothic-73" transform="translate(237.099976 0)"/>
    </g>
   </g>
   <g id="text_11">
    <!-- Envy -->
    <g transform="translate(246.329452 558.9725) scale(0.16 -0.16)">
     <defs>
      <path id="AppleGothic-45" d="M 282 5024 
L 3405 5024 
L 3405 4582 
L 787 4582 
L 787 2848 
L 3309 2848 
L 3309 2406 
L 787 2406 
L 787 442 
L 3424 442 
L 3424 0 
L 282 0 
L 282 5024 
z
" transform="scale(0.015625)"/>
      <path id="AppleGothic-79" d="M 179 3424 
L 691 3424 
L 1869 531 
L 2874 3424 
L 3379 3424 
L 1952 -397 
Q 1798 -806 1555 -979 
Q 1338 -1126 1037 -1126 
Q 883 -1126 780 -1104 
Q 678 -1082 582 -1043 
L 582 -602 
Q 672 -646 784 -678 
Q 896 -710 986 -710 
Q 1210 -710 1334 -595 
Q 1459 -480 1555 -230 
L 1632 32 
L 179 3424 
z
" transform="scale(0.015625)"/>
     </defs>
     <use xlink:href="#AppleGothic-45"/>
     <use xlink:href="#AppleGothic-6e" transform="translate(57.899994 0)"/>
     <use xlink:href="#AppleGothic-76" transform="translate(113.799988 0)"/>
     <use xlink:href="#AppleGothic-79" transform="translate(167.999985 0)"/>
    </g>
   </g>
   <g id="text_12">
    <!-- Envy -->
    <g transform="translate(87.552541 558.9725) scale(0.16 -0.16)">
     <use xlink:href="#AppleGothic-45"/>
     <use xlink:href="#AppleGothic-6e" transform="translate(57.899994 0)"/>
     <use xlink:href="#AppleGothic-76" transform="translate(113.799988 0)"/>
     <use xlink:href="#AppleGothic-79" transform="translate(167.999985 0)"/>
    </g>
   </g>
   <g id="text_13">
    <!-- Low -->
    <g transform="translate(437.84733 695.739514) rotate(-49.090909) scale(0.16 -0.16)">
     <defs>
      <path id="AppleGothic-4c" d="M 333 5018 
L 838 5018 
L 838 442 
L 3315 442 
L 3315 0 
L 333 0 
L 333 5018 
z
" transform="scale(0.015625)"/>
      <path id="AppleGothic-6f" d="M 1888 -83 
Q 1229 -83 730 397 
Q 198 902 198 1709 
Q 198 2470 666 2982 
Q 1146 3501 1850 3501 
Q 2547 3501 3027 2982 
Q 3501 2470 3501 1715 
Q 3501 922 2989 403 
Q 2515 -83 1888 -83 
z
M 1843 339 
Q 2304 339 2662 723 
Q 3008 1114 3008 1715 
Q 3008 2336 2637 2726 
Q 2298 3085 1850 3085 
Q 1389 3085 1062 2714 
Q 704 2304 704 1709 
Q 704 1107 1056 704 
Q 1382 339 1843 339 
z
" transform="scale(0.015625)"/>
      <path id="AppleGothic-77" d="M 2438 3424 
L 2874 3424 
L 3405 1811 
Q 3501 1498 3600 1162 
Q 3699 826 3770 538 
Q 3789 602 3805 646 
Q 3821 691 3834 736 
Q 3904 979 3977 1228 
Q 4051 1478 4122 1747 
L 4646 3424 
L 5126 3424 
L 3981 0 
L 3552 0 
L 2944 1894 
Q 2842 2202 2781 2378 
Q 2720 2554 2707 2618 
Q 2682 2726 2669 2803 
Q 2656 2880 2656 2944 
Q 2598 2771 2556 2636 
Q 2515 2502 2490 2406 
Q 2406 2118 2361 1945 
Q 2317 1773 2304 1715 
L 1760 0 
L 1325 0 
L 186 3424 
L 685 3424 
L 1594 538 
Q 1626 723 1664 886 
Q 1702 1050 1747 1203 
Q 1779 1312 1811 1427 
Q 1843 1542 1888 1664 
L 2438 3424 
z
" transform="scale(0.015625)"/>
     </defs>
     <use xlink:href="#AppleGothic-4c"/>
     <use xlink:href="#AppleGothic-6f" transform="translate(55.199997 0)"/>
     <use xlink:href="#AppleGothic-77" transform="translate(113.499985 0)"/>
    </g>
   </g>
   <g id="text_14">
    <!-- Sadness -->
    <g transform="translate(247.895444 649.112726) rotate(-16.363636) scale(0.16 -0.16)">
     <defs>
      <path id="AppleGothic-64" d="M 2682 5018 
L 3174 5018 
L 3174 0 
L 2733 0 
L 2688 557 
Q 2598 429 2508 329 
Q 2419 230 2330 160 
Q 2010 -83 1587 -83 
Q 928 -83 493 429 
Q 64 941 64 1670 
Q 64 2426 518 2957 
Q 979 3501 1670 3501 
Q 1958 3501 2208 3398 
Q 2298 3360 2416 3296 
Q 2534 3232 2682 3142 
L 2682 5018 
z
M 2682 1658 
L 2682 2643 
Q 2381 2906 2157 2995 
Q 1933 3085 1722 3085 
Q 1197 3085 870 2643 
Q 563 2227 563 1677 
Q 563 1088 902 698 
Q 1216 339 1645 339 
Q 2067 339 2374 710 
Q 2682 1082 2682 1658 
z
" transform="scale(0.015625)"/>
     </defs>
     <use xlink:href="#AppleGothic-53"/>
     <use xlink:href="#AppleGothic-61" transform="translate(63.199997 0)"/>
     <use xlink:href="#AppleGothic-64" transform="translate(119.699982 0)"/>
     <use xlink:href="#AppleGothic-6e" transform="translate(173.699966 0)"/>
     <use xlink:href="#AppleGothic-65" transform="translate(229.59996 0)"/>
     <use xlink:href="#AppleGothic-73" transform="translate(284.499954 0)"/>
     <use xlink:href="#AppleGothic-73" transform="translate(334.099945 0)"/>
    </g>
   </g>
   <g id="text_15">
    <!-- Sadness -->
    <g transform="translate(95.550114 693.845351) rotate(-16.363636) scale(0.16 -0.16)">
     <use xlink:href="#AppleGothic-53"/>
     <use xlink:href="#AppleGothic-61" transform="translate(63.199997 0)"/>
     <use xlink:href="#AppleGothic-64" transform="translate(119.699982 0)"/>
     <use xlink:href="#AppleGothic-6e" transform="translate(173.699966 0)"/>
     <use xlink:href="#AppleGothic-65" transform="translate(229.59996 0)"/>
     <use xlink:href="#AppleGothic-73" transform="translate(284.499954 0)"/>
     <use xlink:href="#AppleGothic-73" transform="translate(334.099945 0)"/>
    </g>
   </g>
   <g id="text_16">
    <!-- Disappointment -->
    <g transform="translate(265.78845 745.215681) rotate(-32.727273) scale(0.16 -0.16)">
     <defs>
      <path id="AppleGothic-44" d="M 358 5024 
L 1562 5024 
Q 2227 5024 2675 4858 
Q 2861 4787 3027 4681 
Q 3194 4576 3341 4429 
Q 3693 4077 3878 3584 
Q 4064 3091 4064 2554 
Q 4064 1357 3379 672 
Q 2688 0 1485 0 
L 358 0 
L 358 5024 
z
M 1363 4582 
L 864 4582 
L 864 442 
L 1690 442 
Q 2413 442 2912 941 
Q 3494 1523 3494 2560 
Q 3494 2765 3472 2944 
Q 3450 3123 3405 3290 
Q 3264 3776 2906 4122 
Q 2643 4371 2298 4480 
Q 1965 4582 1363 4582 
z
" transform="scale(0.015625)"/>
      <path id="AppleGothic-70" d="M 736 307 
L 736 -1101 
L 288 -1101 
L 288 3424 
L 704 3424 
L 730 2803 
Q 941 3149 1216 3325 
Q 1491 3501 1882 3501 
Q 2522 3501 2944 3002 
Q 3162 2752 3270 2441 
Q 3379 2131 3379 1747 
Q 3379 954 2899 435 
Q 2419 -83 1754 -83 
Q 1421 -83 1139 58 
Q 1056 90 960 154 
Q 864 218 736 307 
z
M 736 1824 
L 736 800 
Q 838 704 924 637 
Q 1011 570 1082 525 
Q 1395 339 1715 339 
Q 2227 339 2554 742 
Q 2886 1165 2886 1766 
Q 2886 2330 2579 2707 
Q 2278 3085 1811 3085 
Q 1331 3085 1018 2669 
Q 736 2291 736 1824 
z
" transform="scale(0.015625)"/>
      <path id="AppleGothic-6d" d="M 5389 2195 
L 5389 0 
L 4922 0 
L 4922 2304 
Q 4922 2669 4672 2893 
Q 4461 3085 4173 3085 
Q 3744 3085 3405 2688 
Q 3072 2298 3072 1722 
L 3072 0 
L 2605 0 
L 2605 2304 
Q 2605 2650 2368 2861 
Q 2144 3085 1856 3085 
Q 1440 3085 1114 2714 
Q 755 2304 755 1702 
L 755 0 
L 288 0 
L 288 3424 
L 723 3424 
L 742 2880 
Q 928 3181 1274 3354 
Q 1581 3501 1894 3501 
Q 2381 3501 2714 3219 
Q 2957 3008 3021 2797 
Q 3149 3034 3386 3226 
Q 3757 3501 4205 3501 
Q 4749 3501 5050 3174 
Q 5389 2803 5389 2195 
z
" transform="scale(0.015625)"/>
     </defs>
     <use xlink:href="#AppleGothic-44"/>
     <use xlink:href="#AppleGothic-69" transform="translate(68.499985 0)"/>
     <use xlink:href="#AppleGothic-73" transform="translate(84.399979 0)"/>
     <use xlink:href="#AppleGothic-61" transform="translate(133.999969 0)"/>
     <use xlink:href="#AppleGothic-70" transform="translate(190.499954 0)"/>
     <use xlink:href="#AppleGothic-70" transform="translate(245.899948 0)"/>
     <use xlink:href="#AppleGothic-6f" transform="translate(301.299942 0)"/>
     <use xlink:href="#AppleGothic-69" transform="translate(359.59993 0)"/>
     <use xlink:href="#AppleGothic-6e" transform="translate(375.499924 0)"/>
     <use xlink:href="#AppleGothic-74" transform="translate(431.399918 0)"/>
     <use xlink:href="#AppleGothic-6d" transform="translate(465.599915 0)"/>
     <use xlink:href="#AppleGothic-65" transform="translate(554.899902 0)"/>
     <use xlink:href="#AppleGothic-6e" transform="translate(609.799896 0)"/>
     <use xlink:href="#AppleGothic-74" transform="translate(665.69989 0)"/>
    </g>
   </g>
   <g id="text_17">
    <!-- Disappointment -->
    <g transform="translate(132.216813 831.05696) rotate(-32.727273) scale(0.16 -0.16)">
     <use xlink:href="#AppleGothic-44"/>
     <use xlink:href="#AppleGothic-69" transform="translate(68.499985 0)"/>
     <use xlink:href="#AppleGothic-73" transform="translate(84.399979 0)"/>
     <use xlink:href="#AppleGothic-61" transform="translate(133.999969 0)"/>
     <use xlink:href="#AppleGothic-70" transform="translate(190.499954 0)"/>
     <use xlink:href="#AppleGothic-70" transform="translate(245.899948 0)"/>
     <use xlink:href="#AppleGothic-6f" transform="translate(301.299942 0)"/>
     <use xlink:href="#AppleGothic-69" transform="translate(359.59993 0)"/>
     <use xlink:href="#AppleGothic-6e" transform="translate(375.499924 0)"/>
     <use xlink:href="#AppleGothic-74" transform="translate(431.399918 0)"/>
     <use xlink:href="#AppleGothic-6d" transform="translate(465.599915 0)"/>
     <use xlink:href="#AppleGothic-65" transform="translate(554.899902 0)"/>
     <use xlink:href="#AppleGothic-6e" transform="translate(609.799896 0)"/>
     <use xlink:href="#AppleGothic-74" transform="translate(665.69989 0)"/>
    </g>
   </g>
   <g id="text_18">
    <!-- Shame -->
    <g transform="translate(351.413252 795.489757) rotate(-49.090909) scale(0.16 -0.16)">
     <use xlink:href="#AppleGothic-53"/>
     <use xlink:href="#AppleGothic-68" transform="translate(63.199997 0)"/>
     <use xlink:href="#AppleGothic-61" transform="translate(115.399994 0)"/>
     <use xlink:href="#AppleGothic-6d" transform="translate(171.899979 0)"/>
     <use xlink:href="#AppleGothic-65" transform="translate(261.199966 0)"/>
    </g>
   </g>
   <g id="text_19">
    <!-- Shame -->
    <g transform="translate(247.436488 915.485339) rotate(-49.090909) scale(0.16 -0.16)">
     <use xlink:href="#AppleGothic-53"/>
     <use xlink:href="#AppleGothic-68" transform="translate(63.199997 0)"/>
     <use xlink:href="#AppleGothic-61" transform="translate(115.399994 0)"/>
     <use xlink:href="#AppleGothic-6d" transform="translate(171.899979 0)"/>
     <use xlink:href="#AppleGothic-65" transform="translate(261.199966 0)"/>
    </g>
   </g>
   <g id="text_20">
    <!-- Loneliness -->
    <g transform="translate(422.618861 853.789941) rotate(-65.454545) scale(0.16 -0.16)">
     <defs>
      <path id="AppleGothic-6c" d="M 288 5018 
L 749 5018 
L 749 0 
L 288 0 
L 288 5018 
z
" transform="scale(0.015625)"/>
     </defs>
     <use xlink:href="#AppleGothic-4c"/>
     <use xlink:href="#AppleGothic-6f" transform="translate(55.199997 0)"/>
     <use xlink:href="#AppleGothic-6e" transform="translate(113.499985 0)"/>
     <use xlink:href="#AppleGothic-65" transform="translate(169.399979 0)"/>
     <use xlink:href="#AppleGothic-6c" transform="translate(224.299973 0)"/>
     <use xlink:href="#AppleGothic-69" transform="translate(240.999969 0)"/>
     <use xlink:href="#AppleGothic-6e" transform="translate(256.899963 0)"/>
     <use xlink:href="#AppleGothic-65" transform="translate(312.799957 0)"/>
     <use xlink:href="#AppleGothic-73" transform="translate(367.699951 0)"/>
     <use xlink:href="#AppleGothic-73" transform="translate(417.299942 0)"/>
    </g>
   </g>
   <g id="text_21">
    <!-- Loneliness -->
    <g transform="translate(356.660549 998.218499) rotate(-65.454545) scale(0.16 -0.16)">
     <use xlink:href="#AppleGothic-4c"/>
     <use xlink:href="#AppleGothic-6f" transform="translate(55.199997 0)"/>
     <use xlink:href="#AppleGothic-6e" transform="translate(113.499985 0)"/>
     <use xlink:href="#AppleGothic-65" transform="translate(169.399979 0)"/>
     <use xlink:href="#AppleGothic-6c" transform="translate(224.299973 0)"/>
     <use xlink:href="#AppleGothic-69" transform="translate(240.999969 0)"/>
     <use xlink:href="#AppleGothic-6e" transform="translate(256.899963 0)"/>
     <use xlink:href="#AppleGothic-65" transform="translate(312.799957 0)"/>
     <use xlink:href="#AppleGothic-73" transform="translate(367.699951 0)"/>
     <use xlink:href="#AppleGothic-73" transform="translate(417.299942 0)"/>
    </g>
   </g>
   <g id="text_22">
    <!-- Boredom -->
    <g transform="translate(512.975085 874.534423) rotate(-81.818182) scale(0.16 -0.16)">
     <defs>
      <path id="AppleGothic-42" d="M 307 5018 
L 2029 5018 
Q 2675 5018 3053 4755 
Q 3494 4442 3494 3859 
Q 3494 3373 3181 3040 
Q 3091 2938 2960 2854 
Q 2829 2771 2662 2694 
Q 3322 2586 3616 2176 
Q 3840 1862 3840 1472 
Q 3840 838 3360 416 
Q 2899 0 2240 0 
L 307 0 
L 307 5018 
z
M 1997 4576 
L 813 4576 
L 813 2854 
L 1766 2854 
Q 2342 2854 2649 3113 
Q 2957 3373 2957 3782 
Q 2957 4102 2739 4333 
Q 2477 4576 1997 4576 
z
M 1907 2413 
L 813 2413 
L 813 442 
L 2029 442 
Q 2579 442 2931 717 
Q 3283 1011 3283 1466 
Q 3283 1926 2928 2169 
Q 2573 2413 1907 2413 
z
" transform="scale(0.015625)"/>
     </defs>
     <use xlink:href="#AppleGothic-42"/>
     <use xlink:href="#AppleGothic-6f" transform="translate(64.399994 0)"/>
     <use xlink:href="#AppleGothic-72" transform="translate(122.699982 0)"/>
     <use xlink:href="#AppleGothic-65" transform="translate(157.899979 0)"/>
     <use xlink:href="#AppleGothic-64" transform="translate(212.799973 0)"/>
     <use xlink:href="#AppleGothic-6f" transform="translate(266.799957 0)"/>
     <use xlink:href="#AppleGothic-6d" transform="translate(325.099945 0)"/>
    </g>
   </g>
   <g id="text_23">
    <!-- Boredom -->
    <g transform="translate(490.378774 1031.695214) rotate(-81.818182) scale(0.16 -0.16)">
     <use xlink:href="#AppleGothic-42"/>
     <use xlink:href="#AppleGothic-6f" transform="translate(64.399994 0)"/>
     <use xlink:href="#AppleGothic-72" transform="translate(122.699982 0)"/>
     <use xlink:href="#AppleGothic-65" transform="translate(157.899979 0)"/>
     <use xlink:href="#AppleGothic-64" transform="translate(212.799973 0)"/>
     <use xlink:href="#AppleGothic-6f" transform="translate(266.799957 0)"/>
     <use xlink:href="#AppleGothic-6d" transform="translate(325.099945 0)"/>
    </g>
   </g>
   <g id="text_24">
    <!-- Positive -->
    <g transform="translate(583.325222 558.99625) scale(0.16 -0.16)">
     <use xlink:href="#AppleGothic-50"/>
     <use xlink:href="#AppleGothic-6f" transform="translate(60.299988 0)"/>
     <use xlink:href="#AppleGothic-73" transform="translate(118.599976 0)"/>
     <use xlink:href="#AppleGothic-69" transform="translate(168.199966 0)"/>
     <use xlink:href="#AppleGothic-74" transform="translate(184.09996 0)"/>
     <use xlink:href="#AppleGothic-69" transform="translate(218.299957 0)"/>
     <use xlink:href="#AppleGothic-76" transform="translate(234.199951 0)"/>
     <use xlink:href="#AppleGothic-65" transform="translate(288.399948 0)"/>
    </g>
   </g>
   <g id="text_25">
    <!-- High -->
    <g transform="translate(665.817909 657.043719) rotate(-319.090909) scale(0.16 -0.16)">
     <use xlink:href="#AppleGothic-48"/>
     <use xlink:href="#AppleGothic-69" transform="translate(70.299988 0)"/>
     <use xlink:href="#AppleGothic-67" transform="translate(86.199982 0)"/>
     <use xlink:href="#AppleGothic-68" transform="translate(142.399979 0)"/>
    </g>
   </g>
   <g id="text_26">
    <!-- Joy -->
    <g transform="translate(588.630736 828.451313) rotate(-278.181818) scale(0.16 -0.16)">
     <defs>
      <path id="AppleGothic-4a" d="M 1555 429 
Q 1965 429 2253 678 
Q 2547 941 2547 1293 
L 2547 5018 
L 3046 5018 
L 3046 1274 
Q 3046 768 2598 358 
Q 2157 -45 1587 -45 
Q 1171 -45 710 122 
Q 602 154 467 221 
Q 333 288 166 378 
L 166 960 
Q 333 851 489 761 
Q 646 672 806 602 
Q 1210 429 1555 429 
z
" transform="scale(0.015625)"/>
     </defs>
     <use xlink:href="#AppleGothic-4a"/>
     <use xlink:href="#AppleGothic-6f" transform="translate(53.499985 0)"/>
     <use xlink:href="#AppleGothic-79" transform="translate(111.799973 0)"/>
    </g>
   </g>
   <g id="text_27">
    <!-- Joy -->
    <g transform="translate(611.227046 985.612104) rotate(-278.181818) scale(0.16 -0.16)">
     <use xlink:href="#AppleGothic-4a"/>
     <use xlink:href="#AppleGothic-6f" transform="translate(53.499985 0)"/>
     <use xlink:href="#AppleGothic-79" transform="translate(111.799973 0)"/>
    </g>
   </g>
   <g id="text_28">
    <!-- Motivation -->
    <g transform="translate(654.294157 785.281008) rotate(-294.545455) scale(0.16 -0.16)">
     <defs>
      <path id="AppleGothic-4d" d="M 288 0 
L 288 5018 
L 947 5018 
L 2893 864 
L 4902 5018 
L 5523 5018 
L 5523 0 
L 5069 0 
L 5069 4358 
L 3002 0 
L 2784 0 
L 749 4352 
L 749 0 
L 288 0 
z
" transform="scale(0.015625)"/>
     </defs>
     <use xlink:href="#AppleGothic-4d"/>
     <use xlink:href="#AppleGothic-6f" transform="translate(91.099991 0)"/>
     <use xlink:href="#AppleGothic-74" transform="translate(149.399979 0)"/>
     <use xlink:href="#AppleGothic-69" transform="translate(183.599976 0)"/>
     <use xlink:href="#AppleGothic-76" transform="translate(199.499969 0)"/>
     <use xlink:href="#AppleGothic-61" transform="translate(253.699966 0)"/>
     <use xlink:href="#AppleGothic-74" transform="translate(310.199951 0)"/>
     <use xlink:href="#AppleGothic-69" transform="translate(344.399948 0)"/>
     <use xlink:href="#AppleGothic-6f" transform="translate(360.299942 0)"/>
     <use xlink:href="#AppleGothic-6e" transform="translate(418.59993 0)"/>
    </g>
   </g>
   <g id="text_29">
    <!-- Excitement -->
    <g transform="translate(719.287668 927.596945) rotate(-294.545455) scale(0.16 -0.16)">
     <defs>
      <path id="AppleGothic-78" d="M 352 3424 
L 928 3424 
L 1754 2150 
L 2592 3424 
L 3130 3424 
L 2022 1830 
L 3270 0 
L 2682 0 
L 1722 1504 
L 755 0 
L 211 0 
L 1466 1830 
L 352 3424 
z
" transform="scale(0.015625)"/>
     </defs>
     <use xlink:href="#AppleGothic-45"/>
     <use xlink:href="#AppleGothic-78" transform="translate(57.899994 0)"/>
     <use xlink:href="#AppleGothic-63" transform="translate(112.299988 0)"/>
     <use xlink:href="#AppleGothic-69" transform="translate(164.199982 0)"/>
     <use xlink:href="#AppleGothic-74" transform="translate(180.099976 0)"/>
     <use xlink:href="#AppleGothic-65" transform="translate(214.299973 0)"/>
     <use xlink:href="#AppleGothic-6d" transform="translate(269.199966 0)"/>
     <use xlink:href="#AppleGothic-65" transform="translate(358.499954 0)"/>
     <use xlink:href="#AppleGothic-6e" transform="translate(413.399948 0)"/>
     <use xlink:href="#AppleGothic-74" transform="translate(469.299942 0)"/>
    </g>
   </g>
   <g id="text_30">
    <!-- Interest -->
    <g transform="translate(722.391825 755.7959) rotate(-310.909091) scale(0.16 -0.16)">
     <defs>
      <path id="AppleGothic-49" d="M 435 5018 
L 934 5018 
L 934 0 
L 435 0 
L 435 5018 
z
" transform="scale(0.015625)"/>
     </defs>
     <use xlink:href="#AppleGothic-49"/>
     <use xlink:href="#AppleGothic-6e" transform="translate(21.499985 0)"/>
     <use xlink:href="#AppleGothic-74" transform="translate(77.399979 0)"/>
     <use xlink:href="#AppleGothic-65" transform="translate(111.599976 0)"/>
     <use xlink:href="#AppleGothic-72" transform="translate(166.499969 0)"/>
     <use xlink:href="#AppleGothic-65" transform="translate(201.699966 0)"/>
     <use xlink:href="#AppleGothic-73" transform="translate(256.59996 0)"/>
     <use xlink:href="#AppleGothic-74" transform="translate(306.199951 0)"/>
    </g>
   </g>
   <g id="text_31">
    <!-- Interest -->
    <g transform="translate(826.368589 875.791482) rotate(-310.909091) scale(0.16 -0.16)">
     <use xlink:href="#AppleGothic-49"/>
     <use xlink:href="#AppleGothic-6e" transform="translate(21.499985 0)"/>
     <use xlink:href="#AppleGothic-74" transform="translate(77.399979 0)"/>
     <use xlink:href="#AppleGothic-65" transform="translate(111.599976 0)"/>
     <use xlink:href="#AppleGothic-72" transform="translate(166.499969 0)"/>
     <use xlink:href="#AppleGothic-65" transform="translate(201.699966 0)"/>
     <use xlink:href="#AppleGothic-73" transform="translate(256.59996 0)"/>
     <use xlink:href="#AppleGothic-74" transform="translate(306.199951 0)"/>
    </g>
   </g>
   <g id="text_32">
    <!-- Confidence -->
    <g transform="translate(761.374498 693.127415) rotate(-327.272727) scale(0.16 -0.16)">
     <defs>
      <path id="AppleGothic-43" d="M 4109 4621 
L 4109 3974 
Q 3872 4205 3565 4371 
Q 3085 4627 2598 4627 
Q 1850 4627 1312 3994 
Q 1043 3680 912 3309 
Q 781 2938 781 2515 
Q 781 1651 1318 1030 
Q 1850 410 2611 410 
Q 2970 410 3344 554 
Q 3718 698 4109 998 
L 4109 378 
Q 3251 -83 2554 -83 
Q 1651 -83 973 614 
Q 243 1363 243 2490 
Q 243 3584 922 4339 
Q 1613 5101 2630 5101 
Q 3027 5101 3392 4979 
Q 3757 4858 4109 4621 
z
" transform="scale(0.015625)"/>
      <path id="AppleGothic-66" d="M 646 3430 
L 646 4083 
Q 646 4538 819 4774 
Q 1037 5101 1555 5101 
Q 1613 5101 1657 5097 
Q 1702 5094 1750 5088 
Q 1798 5082 1862 5062 
Q 1926 5043 2016 5018 
L 2016 4595 
Q 1997 4621 1837 4653 
Q 1766 4666 1712 4672 
Q 1658 4678 1619 4678 
Q 1350 4678 1228 4524 
Q 1107 4371 1107 4083 
L 1107 3430 
L 2016 3430 
L 2016 3014 
L 1107 3014 
L 1107 0 
L 646 0 
L 646 3014 
L 64 3014 
L 64 3430 
L 646 3430 
z
" transform="scale(0.015625)"/>
     </defs>
     <use xlink:href="#AppleGothic-43"/>
     <use xlink:href="#AppleGothic-6f" transform="translate(68.499985 0)"/>
     <use xlink:href="#AppleGothic-6e" transform="translate(126.799973 0)"/>
     <use xlink:href="#AppleGothic-66" transform="translate(182.699966 0)"/>
     <use xlink:href="#AppleGothic-69" transform="translate(216.699951 0)"/>
     <use xlink:href="#AppleGothic-64" transform="translate(232.599945 0)"/>
     <use xlink:href="#AppleGothic-65" transform="translate(286.59993 0)"/>
     <use xlink:href="#AppleGothic-6e" transform="translate(341.499924 0)"/>
     <use xlink:href="#AppleGothic-63" transform="translate(397.399918 0)"/>
     <use xlink:href="#AppleGothic-65" transform="translate(449.299911 0)"/>
    </g>
   </g>
   <g id="text_33">
    <!-- Pride -->
    <g transform="translate(914.054157 791.248674) rotate(-327.272727) scale(0.16 -0.16)">
     <use xlink:href="#AppleGothic-50"/>
     <use xlink:href="#AppleGothic-72" transform="translate(60.299988 0)"/>
     <use xlink:href="#AppleGothic-69" transform="translate(95.499985 0)"/>
     <use xlink:href="#AppleGothic-64" transform="translate(111.399979 0)"/>
     <use xlink:href="#AppleGothic-65" transform="translate(165.399963 0)"/>
    </g>
   </g>
   <g id="text_34">
    <!-- Desire -->
    <g transform="translate(809.434638 634.17597) rotate(-343.636364) scale(0.16 -0.16)">
     <use xlink:href="#AppleGothic-44"/>
     <use xlink:href="#AppleGothic-65" transform="translate(68.499985 0)"/>
     <use xlink:href="#AppleGothic-73" transform="translate(123.399979 0)"/>
     <use xlink:href="#AppleGothic-69" transform="translate(172.999969 0)"/>
     <use xlink:href="#AppleGothic-72" transform="translate(188.899963 0)"/>
     <use xlink:href="#AppleGothic-65" transform="translate(224.09996 0)"/>
    </g>
   </g>
   <g id="text_35">
    <!-- Attraction -->
    <g transform="translate(948.738059 675.079145) rotate(-343.636364) scale(0.16 -0.16)">
     <use xlink:href="#AppleGothic-41"/>
     <use xlink:href="#AppleGothic-74" transform="translate(72.599991 0)"/>
     <use xlink:href="#AppleGothic-74" transform="translate(106.799988 0)"/>
     <use xlink:href="#AppleGothic-72" transform="translate(140.999985 0)"/>
     <use xlink:href="#AppleGothic-61" transform="translate(176.199982 0)"/>
     <use xlink:href="#AppleGothic-63" transform="translate(232.699966 0)"/>
     <use xlink:href="#AppleGothic-74" transform="translate(284.59996 0)"/>
     <use xlink:href="#AppleGothic-69" transform="translate(318.799957 0)"/>
     <use xlink:href="#AppleGothic-6f" transform="translate(334.699951 0)"/>
     <use xlink:href="#AppleGothic-6e" transform="translate(392.999939 0)"/>
    </g>
   </g>
   <g id="text_36">
    <!-- Playfulness -->
    <g transform="translate(803.540548 559.06875) rotate(-0) scale(0.16 -0.16)">
     <defs>
      <path id="AppleGothic-75" d="M 262 3424 
L 730 3424 
L 730 1242 
Q 730 877 941 627 
Q 1171 339 1594 339 
Q 2080 339 2426 730 
Q 2784 1139 2784 1632 
L 2784 3424 
L 3245 3424 
L 3245 0 
L 2842 0 
L 2810 582 
Q 2707 442 2592 330 
Q 2477 218 2342 134 
Q 1984 -83 1555 -83 
Q 966 -83 614 282 
Q 262 653 262 1184 
L 262 3424 
z
" transform="scale(0.015625)"/>
     </defs>
     <use xlink:href="#AppleGothic-50"/>
     <use xlink:href="#AppleGothic-6c" transform="translate(60.299988 0)"/>
     <use xlink:href="#AppleGothic-61" transform="translate(76.999985 0)"/>
     <use xlink:href="#AppleGothic-79" transform="translate(133.499969 0)"/>
     <use xlink:href="#AppleGothic-66" transform="translate(189.199966 0)"/>
     <use xlink:href="#AppleGothic-75" transform="translate(223.199951 0)"/>
     <use xlink:href="#AppleGothic-6c" transform="translate(278.699936 0)"/>
     <use xlink:href="#AppleGothic-6e" transform="translate(295.399933 0)"/>
     <use xlink:href="#AppleGothic-65" transform="translate(351.299927 0)"/>
     <use xlink:href="#AppleGothic-73" transform="translate(406.199921 0)"/>
     <use xlink:href="#AppleGothic-73" transform="translate(455.799911 0)"/>
    </g>
   </g>
   <g id="text_37">
    <!-- Amusement -->
    <g transform="translate(958.253709 558.99625) rotate(-0) scale(0.16 -0.16)">
     <use xlink:href="#AppleGothic-41"/>
     <use xlink:href="#AppleGothic-6d" transform="translate(72.599991 0)"/>
     <use xlink:href="#AppleGothic-75" transform="translate(161.899979 0)"/>
     <use xlink:href="#AppleGothic-73" transform="translate(217.399963 0)"/>
     <use xlink:href="#AppleGothic-65" transform="translate(266.999954 0)"/>
     <use xlink:href="#AppleGothic-6d" transform="translate(321.899948 0)"/>
     <use xlink:href="#AppleGothic-65" transform="translate(411.199936 0)"/>
     <use xlink:href="#AppleGothic-6e" transform="translate(466.09993 0)"/>
     <use xlink:href="#AppleGothic-74" transform="translate(521.999924 0)"/>
    </g>
   </g>
   <g id="text_38">
    <!-- Low -->
    <g transform="translate(657.112138 442.694436) rotate(-49.090909) scale(0.16 -0.16)">
     <use xlink:href="#AppleGothic-4c"/>
     <use xlink:href="#AppleGothic-6f" transform="translate(55.199997 0)"/>
     <use xlink:href="#AppleGothic-77" transform="translate(113.499985 0)"/>
    </g>
   </g>
   <g id="text_39">
    <!-- Calm -->
    <g transform="translate(815.879156 482.33766) rotate(-16.363636) scale(0.16 -0.16)">
     <use xlink:href="#AppleGothic-43"/>
     <use xlink:href="#AppleGothic-61" transform="translate(68.499985 0)"/>
     <use xlink:href="#AppleGothic-6c" transform="translate(124.999969 0)"/>
     <use xlink:href="#AppleGothic-6d" transform="translate(141.699966 0)"/>
    </g>
   </g>
   <g id="text_40">
    <!-- Calm -->
    <g transform="translate(968.224486 437.605035) rotate(-16.363636) scale(0.16 -0.16)">
     <use xlink:href="#AppleGothic-43"/>
     <use xlink:href="#AppleGothic-61" transform="translate(68.499985 0)"/>
     <use xlink:href="#AppleGothic-6c" transform="translate(124.999969 0)"/>
     <use xlink:href="#AppleGothic-6d" transform="translate(141.699966 0)"/>
    </g>
   </g>
   <g id="text_41">
    <!-- Contentment -->
    <g transform="translate(760.477097 427.289677) rotate(-32.727273) scale(0.16 -0.16)">
     <use xlink:href="#AppleGothic-43"/>
     <use xlink:href="#AppleGothic-6f" transform="translate(68.499985 0)"/>
     <use xlink:href="#AppleGothic-6e" transform="translate(126.799973 0)"/>
     <use xlink:href="#AppleGothic-74" transform="translate(182.699966 0)"/>
     <use xlink:href="#AppleGothic-65" transform="translate(216.899963 0)"/>
     <use xlink:href="#AppleGothic-6e" transform="translate(271.799957 0)"/>
     <use xlink:href="#AppleGothic-74" transform="translate(327.699951 0)"/>
     <use xlink:href="#AppleGothic-6d" transform="translate(361.899948 0)"/>
     <use xlink:href="#AppleGothic-65" transform="translate(451.199936 0)"/>
     <use xlink:href="#AppleGothic-6e" transform="translate(506.09993 0)"/>
     <use xlink:href="#AppleGothic-74" transform="translate(561.999924 0)"/>
    </g>
   </g>
   <g id="text_42">
    <!-- Contentment -->
    <g transform="translate(894.048734 341.448398) rotate(-32.727273) scale(0.16 -0.16)">
     <use xlink:href="#AppleGothic-43"/>
     <use xlink:href="#AppleGothic-6f" transform="translate(68.499985 0)"/>
     <use xlink:href="#AppleGothic-6e" transform="translate(126.799973 0)"/>
     <use xlink:href="#AppleGothic-74" transform="translate(182.699966 0)"/>
     <use xlink:href="#AppleGothic-65" transform="translate(216.899963 0)"/>
     <use xlink:href="#AppleGothic-6e" transform="translate(271.799957 0)"/>
     <use xlink:href="#AppleGothic-74" transform="translate(327.699951 0)"/>
     <use xlink:href="#AppleGothic-6d" transform="translate(361.899948 0)"/>
     <use xlink:href="#AppleGothic-65" transform="translate(451.199936 0)"/>
     <use xlink:href="#AppleGothic-6e" transform="translate(506.09993 0)"/>
     <use xlink:href="#AppleGothic-74" transform="translate(561.999924 0)"/>
    </g>
   </g>
   <g id="text_43">
    <!-- Love -->
    <g transform="translate(735.964565 351.693884) rotate(-49.090909) scale(0.16 -0.16)">
     <use xlink:href="#AppleGothic-4c"/>
     <use xlink:href="#AppleGothic-6f" transform="translate(55.199997 0)"/>
     <use xlink:href="#AppleGothic-76" transform="translate(113.499985 0)"/>
     <use xlink:href="#AppleGothic-65" transform="translate(167.699982 0)"/>
    </g>
   </g>
   <g id="text_44">
    <!-- Love -->
    <g transform="translate(839.941329 231.698302) rotate(-49.090909) scale(0.16 -0.16)">
     <use xlink:href="#AppleGothic-4c"/>
     <use xlink:href="#AppleGothic-6f" transform="translate(55.199997 0)"/>
     <use xlink:href="#AppleGothic-76" transform="translate(113.499985 0)"/>
     <use xlink:href="#AppleGothic-65" transform="translate(167.699982 0)"/>
    </g>
   </g>
   <g id="text_45">
    <!-- Relief -->
    <g transform="translate(670.981413 309.951811) rotate(-65.454545) scale(0.16 -0.16)">
     <use xlink:href="#AppleGothic-52"/>
     <use xlink:href="#AppleGothic-65" transform="translate(63.999985 0)"/>
     <use xlink:href="#AppleGothic-6c" transform="translate(118.899979 0)"/>
     <use xlink:href="#AppleGothic-69" transform="translate(135.599976 0)"/>
     <use xlink:href="#AppleGothic-65" transform="translate(151.499969 0)"/>
     <use xlink:href="#AppleGothic-66" transform="translate(206.399963 0)"/>
    </g>
   </g>
   <g id="text_46">
    <!-- Relief -->
    <g transform="translate(736.939726 165.523253) rotate(-65.454545) scale(0.16 -0.16)">
     <use xlink:href="#AppleGothic-52"/>
     <use xlink:href="#AppleGothic-65" transform="translate(63.999985 0)"/>
     <use xlink:href="#AppleGothic-6c" transform="translate(118.899979 0)"/>
     <use xlink:href="#AppleGothic-69" transform="translate(135.599976 0)"/>
     <use xlink:href="#AppleGothic-65" transform="translate(151.499969 0)"/>
     <use xlink:href="#AppleGothic-66" transform="translate(206.399963 0)"/>
    </g>
   </g>
   <g id="text_47">
    <!-- Nostalgia -->
    <g transform="translate(595.204077 300.818632) rotate(-81.818182) scale(0.16 -0.16)">
     <use xlink:href="#AppleGothic-4e"/>
     <use xlink:href="#AppleGothic-6f" transform="translate(72.599991 0)"/>
     <use xlink:href="#AppleGothic-73" transform="translate(130.899979 0)"/>
     <use xlink:href="#AppleGothic-74" transform="translate(180.499969 0)"/>
     <use xlink:href="#AppleGothic-61" transform="translate(214.699966 0)"/>
     <use xlink:href="#AppleGothic-6c" transform="translate(271.199951 0)"/>
     <use xlink:href="#AppleGothic-67" transform="translate(287.899948 0)"/>
     <use xlink:href="#AppleGothic-69" transform="translate(344.099945 0)"/>
     <use xlink:href="#AppleGothic-61" transform="translate(359.999939 0)"/>
    </g>
   </g>
   <g id="text_48">
    <!-- Nostalgia -->
    <g transform="translate(617.800387 143.657842) rotate(-81.818182) scale(0.16 -0.16)">
     <use xlink:href="#AppleGothic-4e"/>
     <use xlink:href="#AppleGothic-6f" transform="translate(72.599991 0)"/>
     <use xlink:href="#AppleGothic-73" transform="translate(130.899979 0)"/>
     <use xlink:href="#AppleGothic-74" transform="translate(180.499969 0)"/>
     <use xlink:href="#AppleGothic-61" transform="translate(214.699966 0)"/>
     <use xlink:href="#AppleGothic-6c" transform="translate(271.199951 0)"/>
     <use xlink:href="#AppleGothic-67" transform="translate(287.899948 0)"/>
     <use xlink:href="#AppleGothic-69" transform="translate(344.099945 0)"/>
     <use xlink:href="#AppleGothic-61" transform="translate(359.999939 0)"/>
    </g>
   </g>
  </g>
 </g>
 <defs>
  <clipPath id="p62452e2044">
   <rect x="4.32" y="4.32" width="1099.56" height="1099.56"/>
  </clipPath>
 </defs>
</svg>
