<?xml version="1.0" encoding="utf-8" standalone="no"?>
<!DOCTYPE svg PUBLIC "-//W3C//DTD SVG 1.1//EN"
  "http://www.w3.org/Graphics/SVG/1.1/DTD/svg11.dtd">
<svg xmlns:xlink="http://www.w3.org/1999/xlink" width="1195.749pt" height="1195.749pt" viewBox="0 0 1195.749 1195.749" xmlns="http://www.w3.org/2000/svg" version="1.1">
 <metadata>
  <rdf:RDF xmlns:dc="http://purl.org/dc/elements/1.1/" xmlns:cc="http://creativecommons.org/ns#" xmlns:rdf="http://www.w3.org/1999/02/22-rdf-syntax-ns#">
   <cc:Work>
    <dc:type rdf:resource="http://purl.org/dc/dcmitype/StillImage"/>
    <dc:date>2026-03-13T11:45:47.381918</dc:date>
    <dc:format>image/svg+xml</dc:format>
    <dc:creator>
     <cc:Agent>
      <dc:title>Matplotlib v3.10.8, https://matplotlib.org/</dc:title>
     </cc:Agent>
    </dc:creator>
   </cc:Work>
  </rdf:RDF>
 </metadata>
 <defs>
  <style type="text/css">*{stroke-linejoin: round; stroke-linecap: butt}</style>
 </defs>
 <g id="figure_1">
  <g id="patch_1">
   <path d="M 0 1195.749 
L 1195.749 1195.749 
L 1195.749 0 
L 0 0 
L 0 1195.749 
z
" style="fill: none"/>
  </g>
  <g id="axes_1">
   <g id="patch_2">
    <path d="M 597.8745 476.166542 
C 566.413595 476.166542 536.146507 488.365274 513.478246 510.181288 
C 490.809985 531.997302 477.460892 561.774934 476.255853 593.212752 
C 475.050814 624.650571 486.081283 655.362693 507.013032 678.849933 
C 527.94478 702.337173 557.189254 716.817034 588.557847 719.225343 
L 597.8745 597.8745 
C 597.8745 597.8745 597.8745 597.8745 597.8745 597.8745 
C 597.8745 597.8745 597.8745 597.8745 597.8745 597.8745 
C 597.8745 597.8745 597.8745 597.8745 597.8745 597.8745 
C 597.8745 597.8745 597.8745 597.8745 597.8745 597.8745 
z
" clip-path="url(#pce1df888e6)" style="fill: #dcd7dc; stroke: #000000; stroke-width: 1.2; stroke-linejoin: miter"/>
   </g>
   <g id="patch_3">
    <path d="M 597.8745 360.163644 
C 536.42742 360.163644 477.312014 383.989293 433.038066 426.598695 
C 388.764118 469.208097 362.691671 527.367536 360.33808 588.769524 
L 476.255853 593.212752 
C 477.460892 561.774934 490.809985 531.997302 513.478246 510.181288 
C 536.146507 488.365274 566.413595 476.166542 597.8745 476.166542 
z
" clip-path="url(#pce1df888e6)" style="fill: #efbabc; stroke: #000000; stroke-width: 1.2; stroke-linejoin: miter"/>
   </g>
   <g id="patch_4">
    <path d="M 597.8745 213.258334 
C 568.371184 213.258334 538.965601 216.653065 510.238357 223.3755 
C 481.511113 230.097934 453.652533 240.103533 427.212677 253.19474 
L 492.397477 384.846218 
C 508.73855 376.755237 525.956461 370.571307 543.711247 366.416527 
C 561.466033 362.261747 579.640065 360.163644 597.8745 360.163644 
z
" clip-path="url(#pce1df888e6)" style="fill: #eaa5a9; stroke: #000000; stroke-width: 1.2; stroke-linejoin: miter"/>
   </g>
   <g id="patch_5">
    <path d="M 597.8745 15.958324 
C 583.009726 15.958324 568.150409 16.527894 553.329251 17.665781 
C 538.508094 18.803669 523.735977 20.509037 509.045412 22.778135 
L 539.163118 217.765873 
C 548.872813 216.266118 558.63641 215.138959 568.43242 214.386875 
C 578.22843 213.634791 588.049662 213.258334 597.8745 213.258334 
z
" clip-path="url(#pce1df888e6)" style="fill: #edb1b3; stroke: #000000; stroke-width: 1.2; stroke-linejoin: miter"/>
   </g>
   <g id="patch_6">
    <path d="M 509.045412 22.778135 
C 494.354847 25.047232 479.756619 27.878391 465.282857 31.265382 
C 450.809095 34.652373 436.470425 38.592708 422.298403 43.077717 
L 481.82788 231.182835 
C 491.194846 228.218479 500.671957 225.614123 510.238357 223.3755 
C 519.804757 221.136876 529.453422 219.265627 539.163118 217.765873 
z
" clip-path="url(#pce1df888e6)" style="fill: #edb1b3; stroke: #000000; stroke-width: 1.2; stroke-linejoin: miter"/>
   </g>
   <g id="patch_7">
    <path d="M 422.298403 43.077717 
C 408.126381 47.562725 394.131413 52.589114 380.344299 58.14582 
C 366.557185 63.702526 352.988047 69.785471 339.666749 76.381266 
L 427.212677 253.19474 
C 436.017359 248.835264 444.98585 244.814756 454.098411 241.142064 
C 463.210973 237.469371 472.460915 234.147191 481.82788 231.182835 
z
" clip-path="url(#pce1df888e6)" style="fill: #edb1b3; stroke: #000000; stroke-width: 1.2; stroke-linejoin: miter"/>
   </g>
   <g id="patch_8">
    <path d="M 427.212677 253.19474 
C 400.772822 266.285946 375.92686 282.376028 353.165371 301.14729 
C 330.403882 319.918552 309.877665 341.24663 291.992005 364.710407 
L 408.82475 453.768138 
C 419.878928 439.266422 432.565095 426.084668 446.632764 414.483146 
C 460.700434 402.881625 476.056405 392.937199 492.397477 384.846218 
z
" clip-path="url(#pce1df888e6)" style="fill: #eaa5a9; stroke: #000000; stroke-width: 1.2; stroke-linejoin: miter"/>
   </g>
   <g id="patch_9">
    <path d="M 339.666749 76.381266 
C 326.34545 82.977061 313.281772 90.080864 300.504464 97.677041 
C 287.727156 105.273218 275.2456 113.356192 263.087265 121.908174 
L 376.597643 283.285645 
C 384.633667 277.633233 392.883323 272.290809 401.328455 267.270134 
C 409.773587 262.249458 418.407996 257.554215 427.212677 253.19474 
z
" clip-path="url(#pce1df888e6)" style="fill: #edb1b3; stroke: #000000; stroke-width: 1.2; stroke-linejoin: miter"/>
   </g>
   <g id="patch_10">
    <path d="M 263.087265 121.908174 
C 250.92893 130.460155 239.102743 139.474866 227.634731 148.932466 
C 216.166719 158.390066 205.065301 168.283612 194.35491 178.591329 
L 331.16915 320.750247 
C 338.248158 313.937385 345.585615 307.398269 353.165371 301.14729 
C 360.745128 294.896311 368.561619 288.938058 376.597643 283.285645 
z
" clip-path="url(#pce1df888e6)" style="fill: #edb1b3; stroke: #000000; stroke-width: 1.2; stroke-linejoin: miter"/>
   </g>
   <g id="patch_11">
    <path d="M 194.35491 178.591329 
C 183.64452 188.899046 173.33302 199.613368 163.443104 210.710712 
C 153.553188 221.808057 144.092117 233.280278 135.080713 245.102127 
L 291.992005 364.710407 
C 297.948072 356.896783 304.201345 349.314245 310.738062 341.97948 
C 317.27478 334.644716 324.090142 327.56311 331.16915 320.750247 
z
" clip-path="url(#pce1df888e6)" style="fill: #edb1b3; stroke: #000000; stroke-width: 1.2; stroke-linejoin: miter"/>
   </g>
   <g id="patch_12">
    <path d="M 291.992005 364.710407 
C 280.075504 380.343385 269.374968 396.866924 259.984487 414.135735 
C 250.594005 431.404546 242.541181 449.367866 235.896823 467.867744 
L 374.155293 517.524218 
C 378.261818 506.090425 383.238842 494.988249 389.0426 484.315313 
C 394.846359 473.642376 401.459793 463.430053 408.82475 453.768138 
z
" clip-path="url(#pce1df888e6)" style="fill: #eaa5a9; stroke: #000000; stroke-width: 1.2; stroke-linejoin: miter"/>
   </g>
   <g id="patch_13">
    <path d="M 135.080713 245.102127 
C 126.06931 256.923975 117.514189 269.086772 109.434181 281.56375 
C 101.354172 294.040727 93.755207 306.822724 86.65401 319.88161 
L 259.984487 414.135735 
C 264.678006 405.504494 269.700525 397.056263 275.040988 388.809633 
C 280.381451 380.563004 286.035939 372.524031 291.992005 364.710407 
z
" clip-path="url(#pce1df888e6)" style="fill: #edb1b3; stroke: #000000; stroke-width: 1.2; stroke-linejoin: miter"/>
   </g>
   <g id="patch_14">
    <path d="M 86.65401 319.88161 
C 79.552813 332.940496 72.954597 346.266683 66.873884 359.830843 
C 60.793172 373.395003 55.234426 387.187177 50.209882 401.177011 
L 235.896823 467.867744 
C 239.217785 458.621196 242.891825 449.50529 246.910858 440.540089 
C 250.929891 431.574889 255.290967 422.766976 259.984487 414.135735 
z
" clip-path="url(#pce1df888e6)" style="fill: #edb1b3; stroke: #000000; stroke-width: 1.2; stroke-linejoin: miter"/>
   </g>
   <g id="patch_15">
    <path d="M 235.896823 467.867744 
C 229.252466 486.367623 224.036106 505.349678 220.29361 524.647002 
C 216.551115 543.944326 214.293485 563.500193 213.540573 583.142649 
L 360.33808 588.769524 
C 360.803415 576.629563 362.198737 564.543119 364.511775 552.616466 
C 366.824813 540.689814 370.048768 528.958012 374.155293 517.524218 
z
" clip-path="url(#pce1df888e6)" style="fill: #eaa5a9; stroke: #000000; stroke-width: 1.2; stroke-linejoin: miter"/>
   </g>
   <g id="patch_16">
    <path d="M 50.209882 401.177011 
C 45.185337 415.166844 40.698683 429.344067 36.759793 443.677477 
C 32.820903 458.010887 29.432669 472.489962 26.602548 487.082834 
L 220.29361 524.647002 
C 222.164172 515.001876 224.403617 505.431965 227.007018 495.958331 
C 229.610418 486.484696 232.575862 477.114293 235.896823 467.867744 
z
" clip-path="url(#pce1df888e6)" style="fill: #edb1b3; stroke: #000000; stroke-width: 1.2; stroke-linejoin: miter"/>
   </g>
   <g id="patch_17">
    <path d="M 26.602548 487.082834 
C 23.772427 501.675706 21.502497 516.371662 19.797754 531.13836 
C 18.093011 545.905057 16.954706 560.731654 16.385345 575.58552 
L 213.540573 583.142649 
C 213.916891 573.325021 214.669251 563.525415 215.795997 553.765401 
C 216.922743 544.005386 218.423048 534.292127 220.29361 524.647002 
z
" clip-path="url(#pce1df888e6)" style="fill: #edb1b3; stroke: #000000; stroke-width: 1.2; stroke-linejoin: miter"/>
   </g>
   <g id="patch_18">
    <path d="M 360.33808 588.769524 
C 357.984489 650.171513 379.528373 710.156127 420.410694 756.029642 
C 461.293016 801.903157 518.41113 830.184137 579.677912 834.887865 
L 588.557847 719.225343 
C 557.189254 716.817034 527.94478 702.337173 507.013032 678.849933 
C 486.081283 655.362693 475.050814 624.650571 476.255853 593.212752 
z
" clip-path="url(#pce1df888e6)" style="fill: #c1d2e6; stroke: #000000; stroke-width: 1.2; stroke-linejoin: miter"/>
   </g>
   <g id="patch_19">
    <path d="M 213.540573 583.142649 
C 212.787661 602.785106 213.541679 622.456412 215.795997 641.983599 
C 218.050316 661.510786 221.798308 680.836453 227.007018 699.790669 
L 368.660976 660.86348 
C 365.441748 649.148884 363.125313 637.204714 361.732038 625.135995 
C 360.338764 613.067276 359.872745 600.909485 360.33808 588.769524 
z
" clip-path="url(#pce1df888e6)" style="fill: #afc5df; stroke: #000000; stroke-width: 1.2; stroke-linejoin: miter"/>
   </g>
   <g id="patch_20">
    <path d="M 16.385345 575.58552 
C 15.815983 590.439385 15.815983 605.309615 16.385345 620.16348 
C 16.954706 635.017346 18.093011 649.843943 19.797754 664.61064 
L 215.795997 641.983599 
C 214.669251 632.223585 213.916891 622.423979 213.540573 612.606351 
C 213.164255 602.788722 213.164255 592.960278 213.540573 583.142649 
z
" clip-path="url(#pce1df888e6)" style="fill: #b9cde3; stroke: #000000; stroke-width: 1.2; stroke-linejoin: miter"/>
   </g>
   <g id="patch_21">
    <path d="M 19.797754 664.61064 
C 21.502497 679.377338 23.772427 694.073294 26.602548 708.666166 
C 29.432669 723.259038 32.820903 737.738113 36.759793 752.071523 
L 227.007018 699.790669 
C 224.403617 690.317035 222.164172 680.747124 220.29361 671.101998 
C 218.423048 661.456873 216.922743 651.743614 215.795997 641.983599 
z
" clip-path="url(#pce1df888e6)" style="fill: #b9cde3; stroke: #000000; stroke-width: 1.2; stroke-linejoin: miter"/>
   </g>
   <g id="patch_22">
    <path d="M 227.007018 699.790669 
C 232.215728 718.744886 238.869844 737.271935 246.910858 755.208911 
C 254.951872 773.145886 264.356145 790.44006 275.040988 806.939367 
L 398.348226 727.086408 
C 391.744491 716.889061 385.932208 706.200449 380.962484 695.114556 
C 375.99276 684.028663 371.880203 672.578076 368.660976 660.86348 
z
" clip-path="url(#pce1df888e6)" style="fill: #afc5df; stroke: #000000; stroke-width: 1.2; stroke-linejoin: miter"/>
   </g>
   <g id="patch_23">
    <path d="M 36.759793 752.071523 
C 40.698683 766.404933 45.185337 780.582156 50.209882 794.571989 
C 55.234426 808.561823 60.793172 822.353997 66.873884 835.918157 
L 246.910858 755.208911 
C 242.891825 746.24371 239.217785 737.127804 235.896823 727.881256 
C 232.575862 718.634707 229.610418 709.264304 227.007018 699.790669 
z
" clip-path="url(#pce1df888e6)" style="fill: #b9cde3; stroke: #000000; stroke-width: 1.2; stroke-linejoin: miter"/>
   </g>
   <g id="patch_24">
    <path d="M 66.873884 835.918157 
C 72.954597 849.482317 79.552813 862.808504 86.65401 875.86739 
C 93.755207 888.926276 101.354172 901.708273 109.434181 914.18525 
L 275.040988 806.939367 
C 269.700525 798.692737 264.678006 790.244506 259.984487 781.613265 
C 255.290967 772.982024 250.929891 764.174111 246.910858 755.208911 
z
" clip-path="url(#pce1df888e6)" style="fill: #b9cde3; stroke: #000000; stroke-width: 1.2; stroke-linejoin: miter"/>
   </g>
   <g id="patch_25">
    <path d="M 275.040988 806.939367 
C 285.725831 823.438674 297.659834 839.094612 310.738062 853.76952 
C 323.816291 868.444428 338.0003 882.095168 353.165371 894.60171 
L 446.632764 781.265854 
C 437.260038 773.536223 428.493654 765.099425 420.410694 756.029642 
C 412.327735 746.959859 404.951961 737.283754 398.348226 727.086408 
z
" clip-path="url(#pce1df888e6)" style="fill: #afc5df; stroke: #000000; stroke-width: 1.2; stroke-linejoin: miter"/>
   </g>
   <g id="patch_26">
    <path d="M 109.434181 914.18525 
C 117.514189 926.662228 126.06931 938.825025 135.080713 950.646873 
C 144.092117 962.468722 153.553188 973.940943 163.443104 985.038288 
L 310.738062 853.76952 
C 304.201345 846.434755 297.948072 838.852217 291.992005 831.038593 
C 286.035939 823.224969 280.381451 815.185996 275.040988 806.939367 
z
" clip-path="url(#pce1df888e6)" style="fill: #b9cde3; stroke: #000000; stroke-width: 1.2; stroke-linejoin: miter"/>
   </g>
   <g id="patch_27">
    <path d="M 163.443104 985.038288 
C 173.33302 996.135632 183.64452 1006.849954 194.35491 1017.157671 
C 205.065301 1027.465388 216.166719 1037.358934 227.634731 1046.816534 
L 353.165371 894.60171 
C 345.585615 888.350731 338.248158 881.811615 331.16915 874.998753 
C 324.090142 868.18589 317.27478 861.104284 310.738062 853.76952 
z
" clip-path="url(#pce1df888e6)" style="fill: #b9cde3; stroke: #000000; stroke-width: 1.2; stroke-linejoin: miter"/>
   </g>
   <g id="patch_28">
    <path d="M 353.165371 894.60171 
C 368.330443 907.108252 384.431997 918.433833 401.328455 928.478866 
C 418.224913 938.5239 435.866605 947.258859 454.098411 954.606936 
L 509.014124 818.351902 
C 497.746011 813.810445 486.842617 808.41183 476.399812 802.203527 
C 465.957007 795.995225 456.005491 788.995484 446.632764 781.265854 
z
" clip-path="url(#pce1df888e6)" style="fill: #afc5df; stroke: #000000; stroke-width: 1.2; stroke-linejoin: miter"/>
   </g>
   <g id="patch_29">
    <path d="M 227.634731 1046.816534 
C 239.102743 1056.274134 250.92893 1065.288845 263.087265 1073.840826 
C 275.2456 1082.392808 287.727156 1090.475782 300.504464 1098.071959 
L 401.328455 928.478866 
C 392.883323 923.458191 384.633667 918.115767 376.597643 912.463355 
C 368.561619 906.810942 360.745128 900.852689 353.165371 894.60171 
z
" clip-path="url(#pce1df888e6)" style="fill: #b9cde3; stroke: #000000; stroke-width: 1.2; stroke-linejoin: miter"/>
   </g>
   <g id="patch_30">
    <path d="M 300.504464 1098.071959 
C 313.281772 1105.668136 326.34545 1112.771939 339.666749 1119.367734 
C 352.988047 1125.963529 366.557185 1132.046474 380.344299 1137.60318 
L 454.098411 954.606936 
C 444.98585 950.934244 436.017359 946.913736 427.212677 942.55426 
C 418.407996 938.194785 409.773587 933.499542 401.328455 928.478866 
z
" clip-path="url(#pce1df888e6)" style="fill: #b9cde3; stroke: #000000; stroke-width: 1.2; stroke-linejoin: miter"/>
   </g>
   <g id="patch_31">
    <path d="M 454.098411 954.606936 
C 472.330217 961.955014 491.098542 967.894611 510.238357 972.3735 
C 529.378173 976.85239 548.833216 979.857406 568.43242 981.362125 
L 579.677912 834.887865 
C 567.564683 833.957878 555.540552 832.100637 543.711247 829.332473 
C 531.881942 826.564309 520.282236 822.893359 509.014124 818.351902 
z
" clip-path="url(#pce1df888e6)" style="fill: #afc5df; stroke: #000000; stroke-width: 1.2; stroke-linejoin: miter"/>
   </g>
   <g id="patch_32">
    <path d="M 380.344299 1137.60318 
C 394.131413 1143.159886 408.126381 1148.186275 422.298403 1152.671283 
C 436.470425 1157.156292 450.809095 1161.096627 465.282857 1164.483618 
L 510.238357 972.3735 
C 500.671957 970.134877 491.194846 967.530521 481.82788 964.566165 
C 472.460915 961.601809 463.210973 958.279629 454.098411 954.606936 
z
" clip-path="url(#pce1df888e6)" style="fill: #b9cde3; stroke: #000000; stroke-width: 1.2; stroke-linejoin: miter"/>
   </g>
   <g id="patch_33">
    <path d="M 465.282857 1164.483618 
C 479.756619 1167.870609 494.354847 1170.701768 509.045412 1172.970865 
C 523.735977 1175.239963 538.508094 1176.945331 553.329251 1178.083219 
L 568.43242 981.362125 
C 558.63641 980.610041 548.872813 979.482882 539.163118 977.983127 
C 529.453422 976.483373 519.804757 974.612124 510.238357 972.3735 
z
" clip-path="url(#pce1df888e6)" style="fill: #b9cde3; stroke: #000000; stroke-width: 1.2; stroke-linejoin: miter"/>
   </g>
   <g id="patch_34">
    <path d="M 588.557847 719.225343 
C 604.884731 720.478832 621.297917 718.424527 636.812215 713.185738 
C 652.326513 707.946948 666.625175 699.630631 678.849933 688.735968 
C 691.07469 677.841306 700.975956 664.590729 707.959414 649.779595 
C 714.942871 634.968461 718.865942 618.899163 719.493147 602.536248 
C 720.120352 586.173333 717.438884 569.850876 711.609699 554.548623 
C 705.780514 539.246369 696.922622 525.276738 685.567712 513.478246 
C 674.212803 501.679754 660.592704 492.293288 645.524953 485.882262 
C 630.457202 479.471236 614.249431 476.166542 597.8745 476.166542 
L 597.8745 597.8745 
C 597.8745 597.8745 597.8745 597.8745 597.8745 597.8745 
C 597.8745 597.8745 597.8745 597.8745 597.8745 597.8745 
C 597.8745 597.8745 597.8745 597.8745 597.8745 597.8745 
C 597.8745 597.8745 597.8745 597.8745 597.8745 597.8745 
C 597.8745 597.8745 597.8745 597.8745 597.8745 597.8745 
C 597.8745 597.8745 597.8745 597.8745 597.8745 597.8745 
C 597.8745 597.8745 597.8745 597.8745 597.8745 597.8745 
C 597.8745 597.8745 597.8745 597.8745 597.8745 597.8745 
z
" clip-path="url(#pce1df888e6)" style="fill: #dcd7be; stroke: #000000; stroke-width: 1.2; stroke-linejoin: miter"/>
   </g>
   <g id="patch_35">
    <path d="M 579.677912 834.887865 
C 616.159018 837.688685 652.798986 832.029295 686.734876 818.351902 
C 720.670767 804.674509 750.99506 783.344878 775.338306 756.029642 
C 799.681551 728.714406 817.392758 696.144035 827.088024 660.86348 
C 836.78329 625.582925 838.203344 588.535666 831.237225 552.616466 
L 717.356215 574.702387 
C 720.922868 593.093017 720.195801 612.061214 715.231824 630.124858 
C 710.267848 648.188502 701.19971 664.864532 688.735968 678.849933 
C 676.272227 692.835334 660.746189 703.756105 643.371013 710.75893 
C 625.995837 717.761755 607.236173 720.659363 588.557847 719.225343 
z
" clip-path="url(#pce1df888e6)" style="fill: #f2e6b7; stroke: #000000; stroke-width: 1.2; stroke-linejoin: miter"/>
   </g>
   <g id="patch_36">
    <path d="M 568.43242 981.362125 
C 588.031624 982.866845 607.717376 982.866845 627.31658 981.362125 
C 646.915784 979.857406 666.370827 976.85239 685.510643 972.3735 
L 652.037753 829.332473 
C 640.208448 832.100637 628.184317 833.957878 616.071088 834.887865 
C 603.95786 835.817853 591.79114 835.817853 579.677912 834.887865 
z
" clip-path="url(#pce1df888e6)" style="fill: #eedfa2; stroke: #000000; stroke-width: 1.2; stroke-linejoin: miter"/>
   </g>
   <g id="patch_37">
    <path d="M 553.329251 1178.083219 
C 568.150409 1179.221106 583.009726 1179.790676 597.8745 1179.790676 
C 612.739274 1179.790676 627.598591 1179.221106 642.419749 1178.083219 
L 627.31658 981.362125 
C 617.52057 982.114209 607.699338 982.490666 597.8745 982.490666 
C 588.049662 982.490666 578.22843 982.114209 568.43242 981.362125 
z
" clip-path="url(#pce1df888e6)" style="fill: #f0e3ae; stroke: #000000; stroke-width: 1.2; stroke-linejoin: miter"/>
   </g>
   <g id="patch_38">
    <path d="M 642.419749 1178.083219 
C 657.240906 1176.945331 672.013023 1175.239963 686.703588 1172.970865 
C 701.394153 1170.701768 715.992381 1167.870609 730.466143 1164.483618 
L 685.510643 972.3735 
C 675.944243 974.612124 666.295578 976.483373 656.585882 977.983127 
C 646.876187 979.482882 637.11259 980.610041 627.31658 981.362125 
z
" clip-path="url(#pce1df888e6)" style="fill: #f0e3ae; stroke: #000000; stroke-width: 1.2; stroke-linejoin: miter"/>
   </g>
   <g id="patch_39">
    <path d="M 685.510643 972.3735 
C 704.650458 967.894611 723.418783 961.955014 741.650589 954.606936 
C 759.882395 947.258859 777.524087 938.5239 794.420545 928.478866 
L 719.349188 802.203527 
C 708.906383 808.41183 698.002989 813.810445 686.734876 818.351902 
C 675.466764 822.893359 663.867058 826.564309 652.037753 829.332473 
z
" clip-path="url(#pce1df888e6)" style="fill: #eedfa2; stroke: #000000; stroke-width: 1.2; stroke-linejoin: miter"/>
   </g>
   <g id="patch_40">
    <path d="M 730.466143 1164.483618 
C 744.939905 1161.096627 759.278575 1157.156292 773.450597 1152.671283 
C 787.622619 1148.186275 801.617587 1143.159886 815.404701 1137.60318 
L 741.650589 954.606936 
C 732.538027 958.279629 723.288085 961.601809 713.92112 964.566165 
C 704.554154 967.530521 695.077043 970.134877 685.510643 972.3735 
z
" clip-path="url(#pce1df888e6)" style="fill: #f0e3ae; stroke: #000000; stroke-width: 1.2; stroke-linejoin: miter"/>
   </g>
   <g id="patch_41">
    <path d="M 815.404701 1137.60318 
C 829.191815 1132.046474 842.760953 1125.963529 856.082251 1119.367734 
C 869.40355 1112.771939 882.467228 1105.668136 895.244536 1098.071959 
L 794.420545 928.478866 
C 785.975413 933.499542 777.341004 938.194785 768.536323 942.55426 
C 759.731641 946.913736 750.76315 950.934244 741.650589 954.606936 
z
" clip-path="url(#pce1df888e6)" style="fill: #f0e3ae; stroke: #000000; stroke-width: 1.2; stroke-linejoin: miter"/>
   </g>
   <g id="patch_42">
    <path d="M 794.420545 928.478866 
C 811.317003 918.433833 827.418557 907.108252 842.583629 894.60171 
C 857.7487 882.095168 871.932709 868.444428 885.010938 853.76952 
L 775.338306 756.029642 
C 767.255346 765.099425 758.488962 773.536223 749.116236 781.265854 
C 739.743509 788.995484 729.791993 795.995225 719.349188 802.203527 
z
" clip-path="url(#pce1df888e6)" style="fill: #eedfa2; stroke: #000000; stroke-width: 1.2; stroke-linejoin: miter"/>
   </g>
   <g id="patch_43">
    <path d="M 895.244536 1098.071959 
C 908.021844 1090.475782 920.5034 1082.392808 932.661735 1073.840826 
C 944.82007 1065.288845 956.646257 1056.274134 968.114269 1046.816534 
L 842.583629 894.60171 
C 835.003872 900.852689 827.187381 906.810942 819.151357 912.463355 
C 811.115333 918.115767 802.865677 923.458191 794.420545 928.478866 
z
" clip-path="url(#pce1df888e6)" style="fill: #f0e3ae; stroke: #000000; stroke-width: 1.2; stroke-linejoin: miter"/>
   </g>
   <g id="patch_44">
    <path d="M 968.114269 1046.816534 
C 979.582281 1037.358934 990.683699 1027.465388 1001.39409 1017.157671 
C 1012.10448 1006.849954 1022.41598 996.135632 1032.305896 985.038288 
L 885.010938 853.76952 
C 878.47422 861.104284 871.658858 868.18589 864.57985 874.998753 
C 857.500842 881.811615 850.163385 888.350731 842.583629 894.60171 
z
" clip-path="url(#pce1df888e6)" style="fill: #f0e3ae; stroke: #000000; stroke-width: 1.2; stroke-linejoin: miter"/>
   </g>
   <g id="patch_45">
    <path d="M 885.010938 853.76952 
C 898.089166 839.094612 910.023169 823.438674 920.708012 806.939367 
C 931.392855 790.44006 940.797128 773.145886 948.838142 755.208911 
L 814.786516 695.114556 
C 809.816792 706.200449 804.004509 716.889061 797.400774 727.086408 
C 790.797039 737.283754 783.421265 746.959859 775.338306 756.029642 
z
" clip-path="url(#pce1df888e6)" style="fill: #eedfa2; stroke: #000000; stroke-width: 1.2; stroke-linejoin: miter"/>
   </g>
   <g id="patch_46">
    <path d="M 1032.305896 985.038288 
C 1042.195812 973.940943 1051.656883 962.468722 1060.668287 950.646873 
C 1069.67969 938.825025 1078.234811 926.662228 1086.314819 914.18525 
L 920.708012 806.939367 
C 915.367549 815.185996 909.713061 823.224969 903.756995 831.038593 
C 897.800928 838.852217 891.547655 846.434755 885.010938 853.76952 
z
" clip-path="url(#pce1df888e6)" style="fill: #f0e3ae; stroke: #000000; stroke-width: 1.2; stroke-linejoin: miter"/>
   </g>
   <g id="patch_47">
    <path d="M 1086.314819 914.18525 
C 1094.394828 901.708273 1101.993793 888.926276 1109.09499 875.86739 
C 1116.196187 862.808504 1122.794403 849.482317 1128.875116 835.918157 
L 948.838142 755.208911 
C 944.819109 764.174111 940.458033 772.982024 935.764513 781.613265 
C 931.070994 790.244506 926.048475 798.692737 920.708012 806.939367 
z
" clip-path="url(#pce1df888e6)" style="fill: #f0e3ae; stroke: #000000; stroke-width: 1.2; stroke-linejoin: miter"/>
   </g>
   <g id="patch_48">
    <path d="M 948.838142 755.208911 
C 956.879156 737.271935 963.533272 718.744886 968.741982 699.790669 
C 973.950692 680.836453 977.698684 661.510786 979.953003 641.983599 
L 834.016962 625.135995 
C 832.623687 637.204714 830.307252 649.148884 827.088024 660.86348 
C 823.868797 672.578076 819.75624 684.028663 814.786516 695.114556 
z
" clip-path="url(#pce1df888e6)" style="fill: #eedfa2; stroke: #000000; stroke-width: 1.2; stroke-linejoin: miter"/>
   </g>
   <g id="patch_49">
    <path d="M 1128.875116 835.918157 
C 1134.955828 822.353997 1140.514574 808.561823 1145.539118 794.571989 
C 1150.563663 780.582156 1155.050317 766.404933 1158.989207 752.071523 
L 968.741982 699.790669 
C 966.138582 709.264304 963.173138 718.634707 959.852177 727.881256 
C 956.531215 737.127804 952.857175 746.24371 948.838142 755.208911 
z
" clip-path="url(#pce1df888e6)" style="fill: #f0e3ae; stroke: #000000; stroke-width: 1.2; stroke-linejoin: miter"/>
   </g>
   <g id="patch_50">
    <path d="M 1158.989207 752.071523 
C 1162.928097 737.738113 1166.316331 723.259038 1169.146452 708.666166 
C 1171.976573 694.073294 1174.246503 679.377338 1175.951246 664.61064 
L 979.953003 641.983599 
C 978.826257 651.743614 977.325952 661.456873 975.45539 671.101998 
C 973.584828 680.747124 971.345383 690.317035 968.741982 699.790669 
z
" clip-path="url(#pce1df888e6)" style="fill: #f0e3ae; stroke: #000000; stroke-width: 1.2; stroke-linejoin: miter"/>
   </g>
   <g id="patch_51">
    <path d="M 979.953003 641.983599 
C 982.207321 622.456412 982.961339 602.785106 982.208427 583.142649 
C 981.455515 563.500193 979.197885 543.944326 975.45539 524.647002 
L 831.237225 552.616466 
C 833.550263 564.543119 834.945585 576.629563 835.41092 588.769524 
C 835.876255 600.909485 835.410236 613.067276 834.016962 625.135995 
z
" clip-path="url(#pce1df888e6)" style="fill: #eedfa2; stroke: #000000; stroke-width: 1.2; stroke-linejoin: miter"/>
   </g>
   <g id="patch_52">
    <path d="M 1175.951246 664.61064 
C 1177.655989 649.843943 1178.794294 635.017346 1179.363655 620.16348 
C 1179.933017 605.309615 1179.933017 590.439385 1179.363655 575.58552 
L 982.208427 583.142649 
C 982.584745 592.960278 982.584745 602.788722 982.208427 612.606351 
C 981.832109 622.423979 981.079749 632.223585 979.953003 641.983599 
z
" clip-path="url(#pce1df888e6)" style="fill: #f0e3ae; stroke: #000000; stroke-width: 1.2; stroke-linejoin: miter"/>
   </g>
   <g id="patch_53">
    <path d="M 1179.363655 575.58552 
C 1178.794294 560.731654 1177.655989 545.905057 1175.951246 531.13836 
C 1174.246503 516.371662 1171.976573 501.675706 1169.146452 487.082834 
L 975.45539 524.647002 
C 977.325952 534.292127 978.826257 544.005386 979.953003 553.765401 
C 981.079749 563.525415 981.832109 573.325021 982.208427 583.142649 
z
" clip-path="url(#pce1df888e6)" style="fill: #f0e3ae; stroke: #000000; stroke-width: 1.2; stroke-linejoin: miter"/>
   </g>
   <g id="patch_54">
    <path d="M 831.237225 552.616466 
C 820.731704 498.44714 791.685957 449.590137 749.116236 414.483146 
C 706.546515 379.376156 653.053136 360.163644 597.8745 360.163644 
L 597.8745 476.166542 
C 626.125962 476.166542 653.514572 486.003348 675.310269 503.978127 
C 697.105966 521.952906 711.977388 546.967692 717.356215 574.702387 
z
" clip-path="url(#pce1df888e6)" style="fill: #c3dfca; stroke: #000000; stroke-width: 1.2; stroke-linejoin: miter"/>
   </g>
   <g id="patch_55">
    <path d="M 975.45539 524.647002 
C 971.712894 505.349678 966.496534 486.367623 959.852177 467.867744 
C 953.207819 449.367866 945.154995 431.404546 935.764513 414.135735 
L 806.7064 484.315313 
C 812.510158 494.988249 817.487182 506.090425 821.593707 517.524218 
C 825.700232 528.958012 828.924187 540.689814 831.237225 552.616466 
z
" clip-path="url(#pce1df888e6)" style="fill: #b2d6ba; stroke: #000000; stroke-width: 1.2; stroke-linejoin: miter"/>
   </g>
   <g id="patch_56">
    <path d="M 1169.146452 487.082834 
C 1166.316331 472.489962 1162.928097 458.010887 1158.989207 443.677477 
C 1155.050317 429.344067 1150.563663 415.166844 1145.539118 401.177011 
L 959.852177 467.867744 
C 963.173138 477.114293 966.138582 486.484696 968.741982 495.958331 
C 971.345383 505.431965 973.584828 515.001876 975.45539 524.647002 
z
" clip-path="url(#pce1df888e6)" style="fill: #bcdbc3; stroke: #000000; stroke-width: 1.2; stroke-linejoin: miter"/>
   </g>
   <g id="patch_57">
    <path d="M 1145.539118 401.177011 
C 1140.514574 387.187177 1134.955828 373.395003 1128.875116 359.830843 
C 1122.794403 346.266683 1116.196187 332.940496 1109.09499 319.88161 
L 935.764513 414.135735 
C 940.458033 422.766976 944.819109 431.574889 948.838142 440.540089 
C 952.857175 449.50529 956.531215 458.621196 959.852177 467.867744 
z
" clip-path="url(#pce1df888e6)" style="fill: #bcdbc3; stroke: #000000; stroke-width: 1.2; stroke-linejoin: miter"/>
   </g>
   <g id="patch_58">
    <path d="M 935.764513 414.135735 
C 926.374032 396.866924 915.673496 380.343385 903.756995 364.710407 
C 891.840494 349.077429 878.743057 334.380968 864.57985 320.750247 
L 762.710934 426.598695 
C 771.464461 435.02312 779.559292 444.106224 786.92425 453.768138 
C 794.289207 463.430053 800.902641 473.642376 806.7064 484.315313 
z
" clip-path="url(#pce1df888e6)" style="fill: #b2d6ba; stroke: #000000; stroke-width: 1.2; stroke-linejoin: miter"/>
   </g>
   <g id="patch_59">
    <path d="M 1109.09499 319.88161 
C 1101.993793 306.822724 1094.394828 294.040727 1086.314819 281.56375 
C 1078.234811 269.086772 1069.67969 256.923975 1060.668287 245.102127 
L 903.756995 364.710407 
C 909.713061 372.524031 915.367549 380.563004 920.708012 388.809633 
C 926.048475 397.056263 931.070994 405.504494 935.764513 414.135735 
z
" clip-path="url(#pce1df888e6)" style="fill: #bcdbc3; stroke: #000000; stroke-width: 1.2; stroke-linejoin: miter"/>
   </g>
   <g id="patch_60">
    <path d="M 1060.668287 245.102127 
C 1051.656883 233.280278 1042.195812 221.808057 1032.305896 210.710712 
C 1022.41598 199.613368 1012.10448 188.899046 1001.39409 178.591329 
L 864.57985 320.750247 
C 871.658858 327.56311 878.47422 334.644716 885.010938 341.97948 
C 891.547655 349.314245 897.800928 356.896783 903.756995 364.710407 
z
" clip-path="url(#pce1df888e6)" style="fill: #bcdbc3; stroke: #000000; stroke-width: 1.2; stroke-linejoin: miter"/>
   </g>
   <g id="patch_61">
    <path d="M 864.57985 320.750247 
C 850.416642 307.119527 835.229298 294.594616 819.151357 283.285645 
C 803.073417 271.976675 786.152143 261.916888 768.536323 253.19474 
L 703.351523 384.846218 
C 714.238927 390.236915 724.697069 396.454336 734.633991 403.443811 
C 744.570914 410.433286 753.957406 418.174269 762.710934 426.598695 
z
" clip-path="url(#pce1df888e6)" style="fill: #b2d6ba; stroke: #000000; stroke-width: 1.2; stroke-linejoin: miter"/>
   </g>
   <g id="patch_62">
    <path d="M 1001.39409 178.591329 
C 990.683699 168.283612 979.582281 158.390066 968.114269 148.932466 
C 956.646257 139.474866 944.82007 130.460155 932.661735 121.908174 
L 819.151357 283.285645 
C 827.187381 288.938058 835.003872 294.896311 842.583629 301.14729 
C 850.163385 307.398269 857.500842 313.937385 864.57985 320.750247 
z
" clip-path="url(#pce1df888e6)" style="fill: #bcdbc3; stroke: #000000; stroke-width: 1.2; stroke-linejoin: miter"/>
   </g>
   <g id="patch_63">
    <path d="M 932.661735 121.908174 
C 920.5034 113.356192 908.021844 105.273218 895.244536 97.677041 
C 882.467228 90.080864 869.40355 82.977061 856.082251 76.381266 
L 768.536323 253.19474 
C 777.341004 257.554215 785.975413 262.249458 794.420545 267.270134 
C 802.865677 272.290809 811.115333 277.633233 819.151357 283.285645 
z
" clip-path="url(#pce1df888e6)" style="fill: #bcdbc3; stroke: #000000; stroke-width: 1.2; stroke-linejoin: miter"/>
   </g>
   <g id="patch_64">
    <path d="M 768.536323 253.19474 
C 750.920503 244.472591 732.66192 237.113721 713.92112 231.182835 
C 695.18032 225.251949 676.012393 220.766482 656.585882 217.765873 
L 634.160892 362.949514 
C 646.167388 364.804031 658.014067 367.576261 669.596762 371.241827 
C 681.179456 374.907393 692.464118 379.455521 703.351523 384.846218 
z
" clip-path="url(#pce1df888e6)" style="fill: #b2d6ba; stroke: #000000; stroke-width: 1.2; stroke-linejoin: miter"/>
   </g>
   <g id="patch_65">
    <path d="M 856.082251 76.381266 
C 842.760953 69.785471 829.191815 63.702526 815.404701 58.14582 
C 801.617587 52.589114 787.622619 47.562725 773.450597 43.077717 
L 713.92112 231.182835 
C 723.288085 234.147191 732.538027 237.469371 741.650589 241.142064 
C 750.76315 244.814756 759.731641 248.835264 768.536323 253.19474 
z
" clip-path="url(#pce1df888e6)" style="fill: #bcdbc3; stroke: #000000; stroke-width: 1.2; stroke-linejoin: miter"/>
   </g>
   <g id="patch_66">
    <path d="M 773.450597 43.077717 
C 759.278575 38.592708 744.939905 34.652373 730.466143 31.265382 
C 715.992381 27.878391 701.394153 25.047232 686.703588 22.778135 
L 656.585882 217.765873 
C 666.295578 219.265627 675.944243 221.136876 685.510643 223.3755 
C 695.077043 225.614123 704.554154 228.218479 713.92112 231.182835 
z
" clip-path="url(#pce1df888e6)" style="fill: #bcdbc3; stroke: #000000; stroke-width: 1.2; stroke-linejoin: miter"/>
   </g>
   <g id="patch_67">
    <path d="M 656.585882 217.765873 
C 646.876187 216.266118 637.11259 215.138959 627.31658 214.386875 
C 617.52057 213.634791 607.699338 213.258334 597.8745 213.258334 
L 597.8745 360.163644 
C 603.946711 360.163644 610.016694 360.396311 616.071088 360.861135 
C 622.125483 361.325958 628.159844 362.022595 634.160892 362.949514 
z
" clip-path="url(#pce1df888e6)" style="fill: #b2d6ba; stroke: #000000; stroke-width: 1.2; stroke-linejoin: miter"/>
   </g>
   <g id="patch_68">
    <path d="M 686.703588 22.778135 
C 672.013023 20.509037 657.240906 18.803669 642.419749 17.665781 
C 627.598591 16.527894 612.739274 15.958324 597.8745 15.958324 
L 597.8745 213.258334 
C 607.699338 213.258334 617.52057 213.634791 627.31658 214.386875 
C 637.11259 215.138959 646.876187 216.266118 656.585882 217.765873 
z
" clip-path="url(#pce1df888e6)" style="fill: #bcdbc3; stroke: #000000; stroke-width: 1.2; stroke-linejoin: miter"/>
   </g>
   <g id="patch_69">
    <path d="M 597.8745 719.582458 
C 630.151828 719.582458 661.111505 706.75854 683.935023 683.935023 
C 706.75854 661.111505 719.582458 630.151828 719.582458 597.8745 
C 719.582458 565.597172 706.75854 534.637495 683.935023 511.813977 
C 661.111505 488.99046 630.151828 476.166542 597.8745 476.166542 
C 565.597172 476.166542 534.637495 488.99046 511.813977 511.813977 
C 488.99046 534.637495 476.166542 565.597172 476.166542 597.8745 
C 476.166542 630.151828 488.99046 661.111505 511.813977 683.935023 
C 534.637495 706.75854 565.597172 719.582458 597.8745 719.582458 
L 597.8745 719.582458 
z
" clip-path="url(#pce1df888e6)" style="fill: none; stroke: #000000; stroke-width: 1.2; stroke-linejoin: miter"/>
   </g>
   <g id="patch_70">
    <path d="M 597.8745 835.585356 
C 660.916156 835.585356 721.384276 810.538641 765.961459 765.961459 
C 810.538641 721.384276 835.585356 660.916156 835.585356 597.8745 
C 835.585356 534.832844 810.538641 474.364724 765.961459 429.787541 
C 721.384276 385.210359 660.916156 360.163644 597.8745 360.163644 
C 534.832844 360.163644 474.364724 385.210359 429.787541 429.787541 
C 385.210359 474.364724 360.163644 534.832844 360.163644 597.8745 
C 360.163644 660.916156 385.210359 721.384276 429.787541 765.961459 
C 474.364724 810.538641 534.832844 835.585356 597.8745 835.585356 
L 597.8745 835.585356 
z
" clip-path="url(#pce1df888e6)" style="fill: none; stroke: #000000; stroke-width: 1.2; stroke-linejoin: miter"/>
   </g>
   <g id="patch_71">
    <path d="M 597.8745 982.490666 
C 699.875899 982.490666 797.713318 941.96508 869.839199 869.839199 
C 941.96508 797.713318 982.490666 699.875899 982.490666 597.8745 
C 982.490666 495.873101 941.96508 398.035682 869.839199 325.909801 
C 797.713318 253.78392 699.875899 213.258334 597.8745 213.258334 
C 495.873101 213.258334 398.035682 253.78392 325.909801 325.909801 
C 253.78392 398.035682 213.258334 495.873101 213.258334 597.8745 
C 213.258334 699.875899 253.78392 797.713318 325.909801 869.839199 
C 398.035682 941.96508 495.873101 982.490666 597.8745 982.490666 
L 597.8745 982.490666 
z
" clip-path="url(#pce1df888e6)" style="fill: none; stroke: #000000; stroke-width: 1.2; stroke-linejoin: miter"/>
   </g>
   <g id="patch_72">
    <path d="M 597.8745 1179.790676 
C 752.200474 1179.790676 900.226432 1118.476317 1009.351374 1009.351374 
C 1118.476317 900.226432 1179.790676 752.200474 1179.790676 597.8745 
C 1179.790676 443.548526 1118.476317 295.522568 1009.351374 186.397626 
C 900.226432 77.272683 752.200474 15.958324 597.8745 15.958324 
C 443.548526 15.958324 295.522568 77.272683 186.397626 186.397626 
C 77.272683 295.522568 15.958324 443.548526 15.958324 597.8745 
C 15.958324 752.200474 77.272683 900.226432 186.397626 1009.351374 
C 295.522568 1118.476317 443.548526 1179.790676 597.8745 1179.790676 
L 597.8745 1179.790676 
z
" clip-path="url(#pce1df888e6)" style="fill: none; stroke: #000000; stroke-width: 1.2; stroke-linejoin: miter"/>
   </g>
   <g id="text_1">
    <!-- Negative -->
    <g transform="translate(504.95715 598.956305) rotate(-357.804878) scale(0.16 -0.16)">
     <defs>
      <path id="AppleGothic-4e" d="M 320 0 
L 320 5018 
L 781 5018 
L 3866 768 
L 3866 5018 
L 4326 5018 
L 4326 0 
L 3866 0 
L 781 4243 
L 781 0 
L 320 0 
z
" transform="scale(0.015625)"/>
      <path id="AppleGothic-65" d="M 3296 1850 
L 691 1850 
Q 691 1114 1033 726 
Q 1376 339 1933 339 
Q 2355 339 2746 608 
Q 2854 678 2976 784 
Q 3098 890 3238 1030 
L 3238 474 
Q 3085 358 2953 272 
Q 2822 186 2707 128 
Q 2304 -83 1901 -83 
Q 1203 -83 717 397 
Q 192 902 192 1709 
Q 192 2470 666 2982 
Q 1146 3501 1850 3501 
Q 2534 3501 2938 3002 
Q 3296 2547 3296 1850 
z
M 755 2240 
L 2758 2240 
Q 2682 2675 2429 2889 
Q 2176 3104 1818 3104 
Q 1421 3104 1146 2854 
Q 890 2624 755 2240 
z
" transform="scale(0.015625)"/>
      <path id="AppleGothic-67" d="M 2822 3040 
L 2950 3424 
L 3290 3424 
L 3290 326 
Q 3290 -474 2899 -890 
Q 2509 -1306 1690 -1306 
Q 1357 -1306 1059 -1187 
Q 762 -1069 435 -819 
L 435 -256 
Q 640 -448 838 -579 
Q 1037 -710 1229 -781 
Q 1453 -864 1690 -864 
Q 2195 -864 2477 -634 
Q 2822 -352 2822 269 
L 2822 691 
Q 2579 288 2221 122 
Q 1978 6 1683 6 
Q 1050 6 621 512 
Q 198 1030 198 1709 
Q 198 2387 595 2906 
Q 1056 3501 1773 3501 
Q 2131 3501 2451 3328 
Q 2547 3270 2640 3200 
Q 2733 3130 2822 3040 
z
M 2822 1658 
L 2822 2598 
Q 2714 2720 2602 2803 
Q 2490 2886 2381 2950 
Q 2253 3021 2118 3053 
Q 1984 3085 1843 3085 
Q 1363 3085 1050 2746 
Q 698 2362 698 1734 
Q 698 1165 992 794 
Q 1280 429 1741 429 
Q 2195 429 2509 781 
Q 2822 1120 2822 1658 
z
" transform="scale(0.015625)"/>
      <path id="AppleGothic-61" d="M 2950 2214 
L 2950 602 
Q 2950 493 2998 413 
Q 3046 333 3174 333 
Q 3213 333 3238 336 
Q 3264 339 3290 346 
Q 3328 358 3357 371 
Q 3386 384 3405 390 
L 3405 32 
Q 3290 -6 3174 -22 
Q 3059 -38 2995 -38 
Q 2669 -38 2566 134 
Q 2483 243 2483 602 
Q 2400 461 2317 355 
Q 2234 250 2150 179 
Q 1818 -83 1376 -83 
Q 909 -83 563 192 
Q 205 486 205 941 
Q 205 1510 781 1779 
Q 992 1882 1341 1958 
Q 1690 2035 2176 2099 
L 2483 2131 
Q 2483 2579 2256 2832 
Q 2029 3085 1587 3085 
Q 1421 3085 1257 3043 
Q 1094 3002 928 2912 
Q 838 2861 729 2790 
Q 621 2720 493 2611 
L 493 3136 
Q 1037 3501 1664 3501 
Q 2304 3501 2650 3098 
Q 2950 2746 2950 2214 
z
M 2483 1542 
L 2483 1747 
L 2266 1722 
Q 1466 1638 1139 1498 
Q 704 1325 704 934 
Q 704 819 755 713 
Q 806 608 896 525 
Q 986 442 1117 390 
Q 1248 339 1408 339 
Q 1843 339 2170 691 
Q 2483 1050 2483 1542 
z
" transform="scale(0.015625)"/>
      <path id="AppleGothic-74" d="M 691 4435 
L 1114 4435 
L 1114 3430 
L 2016 3430 
L 2016 3014 
L 1114 3014 
L 1114 838 
Q 1114 570 1213 454 
Q 1312 339 1555 339 
Q 1696 339 1795 371 
Q 1894 403 2016 454 
L 2016 38 
Q 1914 6 1770 -22 
Q 1626 -51 1478 -51 
Q 1094 -51 883 122 
Q 646 301 646 698 
L 646 3014 
L 70 3014 
L 70 3430 
L 646 3430 
L 691 4435 
z
" transform="scale(0.015625)"/>
      <path id="AppleGothic-69" d="M 256 3424 
L 717 3424 
L 717 0 
L 256 0 
L 256 3424 
z
M 480 4870 
Q 614 4870 704 4780 
Q 794 4691 794 4525 
Q 794 4358 710 4268 
Q 627 4179 480 4179 
Q 333 4179 253 4281 
Q 173 4384 173 4518 
Q 173 4730 269 4800 
Q 365 4870 480 4870 
z
" transform="scale(0.015625)"/>
      <path id="AppleGothic-76" d="M 109 3424 
L 627 3424 
L 1715 486 
L 2829 3424 
L 3290 3424 
L 1920 0 
L 1478 0 
L 109 3424 
z
" transform="scale(0.015625)"/>
     </defs>
     <use xlink:href="#AppleGothic-4e"/>
     <use xlink:href="#AppleGothic-65" transform="translate(72.599991 0)"/>
     <use xlink:href="#AppleGothic-67" transform="translate(127.499985 0)"/>
     <use xlink:href="#AppleGothic-61" transform="translate(183.699982 0)"/>
     <use xlink:href="#AppleGothic-74" transform="translate(240.199966 0)"/>
     <use xlink:href="#AppleGothic-69" transform="translate(274.399963 0)"/>
     <use xlink:href="#AppleGothic-76" transform="translate(290.299957 0)"/>
     <use xlink:href="#AppleGothic-65" transform="translate(344.499954 0)"/>
    </g>
   </g>
   <g id="text_2">
    <!-- High -->
    <g transform="translate(459.119059 460.389898) rotate(-313.902439) scale(0.16 -0.16)">
     <defs>
      <path id="AppleGothic-48" d="M 352 5018 
L 851 5018 
L 851 2829 
L 3610 2829 
L 3610 5018 
L 4109 5018 
L 4109 0 
L 3610 0 
L 3610 2406 
L 851 2406 
L 851 0 
L 352 0 
L 352 5018 
z
" transform="scale(0.015625)"/>
      <path id="AppleGothic-68" d="M 288 5018 
L 749 5018 
L 749 2810 
Q 909 3066 1139 3238 
Q 1491 3501 1926 3501 
Q 2195 3501 2409 3424 
Q 2624 3347 2803 3200 
Q 3181 2867 3181 2266 
L 3181 0 
L 2714 0 
L 2714 2202 
Q 2714 2573 2477 2829 
Q 2240 3085 1901 3085 
Q 1408 3085 1082 2694 
Q 749 2291 749 1773 
L 749 0 
L 288 0 
L 288 5018 
z
" transform="scale(0.015625)"/>
     </defs>
     <use xlink:href="#AppleGothic-48"/>
     <use xlink:href="#AppleGothic-69" transform="translate(70.299988 0)"/>
     <use xlink:href="#AppleGothic-67" transform="translate(86.199982 0)"/>
     <use xlink:href="#AppleGothic-68" transform="translate(142.399979 0)"/>
    </g>
   </g>
   <g id="text_3">
    <!-- Anger -->
    <g transform="translate(517.447496 274.54656) rotate(-283.170732) scale(0.16 -0.16)">
     <defs>
      <path id="AppleGothic-41" d="M 2086 5018 
L 2579 5018 
L 4448 0 
L 3859 0 
L 3258 1715 
L 1350 1715 
L 723 0 
L 166 0 
L 2086 5018 
z
M 3117 2157 
L 2342 4416 
L 1504 2157 
L 3117 2157 
z
" transform="scale(0.015625)"/>
      <path id="AppleGothic-6e" d="M 3264 2291 
L 3264 0 
L 2803 0 
L 2803 2259 
Q 2803 2618 2541 2848 
Q 2278 3085 1914 3085 
Q 1427 3085 1075 2682 
Q 723 2272 723 1760 
L 723 0 
L 288 0 
L 288 3424 
L 691 3424 
L 710 2784 
Q 883 3046 1114 3219 
Q 1491 3501 1965 3501 
Q 2515 3501 2886 3168 
Q 3264 2842 3264 2291 
z
" transform="scale(0.015625)"/>
      <path id="AppleGothic-72" d="M 2125 3424 
L 2125 2963 
Q 2054 2989 2009 3005 
Q 1965 3021 1933 3027 
Q 1901 3034 1865 3037 
Q 1830 3040 1773 3040 
Q 1306 3040 1005 2586 
Q 749 2170 749 1658 
L 749 0 
L 288 0 
L 288 3424 
L 710 3424 
L 742 2835 
Q 902 3104 1043 3219 
Q 1331 3456 1734 3456 
Q 1843 3456 1936 3449 
Q 2029 3443 2125 3424 
z
" transform="scale(0.015625)"/>
     </defs>
     <use xlink:href="#AppleGothic-41"/>
     <use xlink:href="#AppleGothic-6e" transform="translate(72.599991 0)"/>
     <use xlink:href="#AppleGothic-67" transform="translate(128.499985 0)"/>
     <use xlink:href="#AppleGothic-65" transform="translate(184.699982 0)"/>
     <use xlink:href="#AppleGothic-72" transform="translate(239.599976 0)"/>
    </g>
   </g>
   <g id="text_4">
    <!-- Anger -->
    <g transform="translate(554.571515 94.461025) rotate(-274.390244) scale(0.16 -0.16)">
     <use xlink:href="#AppleGothic-41"/>
     <use xlink:href="#AppleGothic-6e" transform="translate(72.599991 0)"/>
     <use xlink:href="#AppleGothic-67" transform="translate(128.499985 0)"/>
     <use xlink:href="#AppleGothic-65" transform="translate(184.699982 0)"/>
     <use xlink:href="#AppleGothic-72" transform="translate(239.599976 0)"/>
    </g>
   </g>
   <g id="text_5">
    <!-- Rage -->
    <g transform="translate(479.02082 110.336322) rotate(-283.170732) scale(0.16 -0.16)">
     <defs>
      <path id="AppleGothic-52" d="M 314 5018 
L 1971 5018 
Q 2637 5018 3072 4800 
Q 3680 4493 3680 3776 
Q 3680 3283 3405 2969 
Q 3130 2656 2522 2470 
Q 2630 2426 2713 2384 
Q 2797 2342 2848 2291 
Q 3072 2099 3200 1728 
L 3840 0 
L 3270 0 
L 2938 1050 
Q 2675 1837 2387 2080 
Q 2138 2310 1562 2310 
L 819 2310 
L 819 0 
L 314 0 
L 314 5018 
z
M 2067 4576 
L 819 4576 
L 819 2707 
L 1587 2707 
Q 2048 2707 2365 2793 
Q 2682 2880 2880 3072 
Q 3014 3194 3100 3373 
Q 3187 3552 3187 3738 
Q 3187 4090 2899 4320 
Q 2586 4576 2067 4576 
z
" transform="scale(0.015625)"/>
     </defs>
     <use xlink:href="#AppleGothic-52"/>
     <use xlink:href="#AppleGothic-61" transform="translate(63.999985 0)"/>
     <use xlink:href="#AppleGothic-67" transform="translate(120.499969 0)"/>
     <use xlink:href="#AppleGothic-65" transform="translate(176.699966 0)"/>
    </g>
   </g>
   <g id="text_6">
    <!-- Outrage -->
    <g transform="translate(401.753259 123.955048) rotate(-291.95122) scale(0.16 -0.16)">
     <defs>
      <path id="AppleGothic-4f" d="M 2496 -83 
Q 1626 -83 973 595 
Q 256 1331 256 2496 
Q 256 3610 928 4378 
Q 1581 5101 2477 5101 
Q 3386 5101 4038 4390 
Q 4710 3642 4710 2502 
Q 4710 1318 3981 582 
Q 3334 -83 2496 -83 
z
M 2458 390 
Q 3168 390 3667 986 
Q 4173 1594 4173 2502 
Q 4173 2944 4051 3321 
Q 3930 3699 3686 4006 
Q 3200 4627 2483 4627 
Q 1773 4627 1280 4006 
Q 794 3398 794 2490 
Q 794 1542 1306 947 
Q 1786 390 2458 390 
z
" transform="scale(0.015625)"/>
      <path id="AppleGothic-75" d="M 262 3424 
L 730 3424 
L 730 1242 
Q 730 877 941 627 
Q 1171 339 1594 339 
Q 2080 339 2426 730 
Q 2784 1139 2784 1632 
L 2784 3424 
L 3245 3424 
L 3245 0 
L 2842 0 
L 2810 582 
Q 2707 442 2592 330 
Q 2477 218 2342 134 
Q 1984 -83 1555 -83 
Q 966 -83 614 282 
Q 262 653 262 1184 
L 262 3424 
z
" transform="scale(0.015625)"/>
     </defs>
     <use xlink:href="#AppleGothic-4f"/>
     <use xlink:href="#AppleGothic-75" transform="translate(77.599991 0)"/>
     <use xlink:href="#AppleGothic-74" transform="translate(133.099976 0)"/>
     <use xlink:href="#AppleGothic-72" transform="translate(167.299973 0)"/>
     <use xlink:href="#AppleGothic-61" transform="translate(202.499969 0)"/>
     <use xlink:href="#AppleGothic-67" transform="translate(258.999954 0)"/>
     <use xlink:href="#AppleGothic-65" transform="translate(315.199951 0)"/>
    </g>
   </g>
   <g id="text_7">
    <!-- Fear -->
    <g transform="translate(385.696831 348.28957) rotate(-309.512195) scale(0.16 -0.16)">
     <defs>
      <path id="AppleGothic-46" d="M 339 5018 
L 3462 5018 
L 3462 4576 
L 845 4576 
L 845 2714 
L 3354 2714 
L 3354 2304 
L 845 2304 
L 845 0 
L 339 0 
L 339 5018 
z
" transform="scale(0.015625)"/>
     </defs>
     <use xlink:href="#AppleGothic-46"/>
     <use xlink:href="#AppleGothic-65" transform="translate(58.199997 0)"/>
     <use xlink:href="#AppleGothic-61" transform="translate(113.099991 0)"/>
     <use xlink:href="#AppleGothic-72" transform="translate(169.599976 0)"/>
    </g>
   </g>
   <g id="text_8">
    <!-- Fear -->
    <g transform="translate(338.334751 170.891614) rotate(-300.731707) scale(0.16 -0.16)">
     <use xlink:href="#AppleGothic-46"/>
     <use xlink:href="#AppleGothic-65" transform="translate(58.199997 0)"/>
     <use xlink:href="#AppleGothic-61" transform="translate(113.099991 0)"/>
     <use xlink:href="#AppleGothic-72" transform="translate(169.599976 0)"/>
    </g>
   </g>
   <g id="text_9">
    <!-- Panic -->
    <g transform="translate(274.380547 213.310664) rotate(-309.512195) scale(0.16 -0.16)">
     <defs>
      <path id="AppleGothic-50" d="M 262 5018 
L 1869 5018 
Q 2560 5018 3002 4781 
Q 3597 4448 3597 3718 
Q 3597 3014 3104 2630 
Q 2656 2272 1952 2272 
L 768 2272 
L 768 0 
L 262 0 
L 262 5018 
z
M 1862 4576 
L 768 4576 
L 768 2714 
L 1901 2714 
Q 2349 2714 2675 2950 
Q 3040 3219 3040 3674 
Q 3040 4186 2611 4410 
Q 2298 4576 1862 4576 
z
" transform="scale(0.015625)"/>
      <path id="AppleGothic-63" d="M 3085 3123 
L 3085 2522 
Q 2726 2861 2349 3008 
Q 2240 3053 2125 3069 
Q 2010 3085 1894 3085 
Q 1363 3085 1024 2688 
Q 685 2278 685 1715 
Q 685 1139 1037 730 
Q 1389 339 1920 339 
Q 2253 339 2528 483 
Q 2803 627 3085 915 
L 3085 307 
Q 2746 96 2470 6 
Q 2195 -83 1914 -83 
Q 1197 -83 685 429 
Q 186 960 186 1709 
Q 186 2445 678 2976 
Q 1178 3501 1920 3501 
Q 2298 3501 2624 3373 
Q 2816 3302 3085 3123 
z
" transform="scale(0.015625)"/>
     </defs>
     <use xlink:href="#AppleGothic-50"/>
     <use xlink:href="#AppleGothic-61" transform="translate(60.299988 0)"/>
     <use xlink:href="#AppleGothic-6e" transform="translate(116.799973 0)"/>
     <use xlink:href="#AppleGothic-69" transform="translate(172.699966 0)"/>
     <use xlink:href="#AppleGothic-63" transform="translate(188.59996 0)"/>
    </g>
   </g>
   <g id="text_10">
    <!-- Terror -->
    <g transform="translate(216.817168 264.835972) rotate(-318.292683) scale(0.16 -0.16)">
     <defs>
      <path id="AppleGothic-54" d="M 166 5018 
L 4038 5018 
L 4038 4576 
L 2355 4576 
L 2355 0 
L 1856 0 
L 1856 4576 
L 166 4576 
L 166 5018 
z
" transform="scale(0.015625)"/>
      <path id="AppleGothic-6f" d="M 1888 -83 
Q 1229 -83 730 397 
Q 198 902 198 1709 
Q 198 2470 666 2982 
Q 1146 3501 1850 3501 
Q 2547 3501 3027 2982 
Q 3501 2470 3501 1715 
Q 3501 922 2989 403 
Q 2515 -83 1888 -83 
z
M 1843 339 
Q 2304 339 2662 723 
Q 3008 1114 3008 1715 
Q 3008 2336 2637 2726 
Q 2298 3085 1850 3085 
Q 1389 3085 1062 2714 
Q 704 2304 704 1709 
Q 704 1107 1056 704 
Q 1382 339 1843 339 
z
" transform="scale(0.015625)"/>
     </defs>
     <use xlink:href="#AppleGothic-54"/>
     <use xlink:href="#AppleGothic-65" transform="translate(66.099991 0)"/>
     <use xlink:href="#AppleGothic-72" transform="translate(120.999985 0)"/>
     <use xlink:href="#AppleGothic-72" transform="translate(156.199982 0)"/>
     <use xlink:href="#AppleGothic-6f" transform="translate(191.399979 0)"/>
     <use xlink:href="#AppleGothic-72" transform="translate(249.699966 0)"/>
    </g>
   </g>
   <g id="text_11">
    <!-- Stress -->
    <g transform="translate(302.024731 442.569838) rotate(-331.463415) scale(0.16 -0.16)">
     <defs>
      <path id="AppleGothic-53" d="M 3418 4666 
L 3418 4019 
Q 3251 4160 3081 4269 
Q 2912 4378 2746 4448 
Q 2362 4627 1965 4627 
Q 1466 4627 1139 4378 
Q 806 4122 806 3770 
Q 806 3258 1562 3002 
Q 1914 2880 2262 2768 
Q 2611 2656 2970 2541 
Q 3731 2176 3731 1453 
Q 3731 749 3187 320 
Q 2669 -83 1901 -83 
Q 1389 -83 915 115 
Q 640 224 262 474 
L 262 1126 
Q 755 685 1261 506 
Q 1427 442 1587 416 
Q 1747 390 1907 390 
Q 2419 390 2771 646 
Q 3162 928 3162 1382 
Q 3162 1933 2419 2221 
Q 2061 2330 1715 2445 
Q 1370 2560 1024 2669 
Q 275 3014 275 3731 
Q 275 4333 749 4710 
Q 1235 5101 1965 5101 
Q 2413 5101 2861 4934 
Q 3091 4858 3418 4666 
z
" transform="scale(0.015625)"/>
      <path id="AppleGothic-73" d="M 224 294 
L 224 851 
Q 621 531 1030 403 
Q 1152 371 1267 355 
Q 1382 339 1504 339 
Q 1894 339 2150 518 
Q 2413 710 2413 947 
Q 2413 1075 2317 1210 
Q 2182 1376 1600 1510 
Q 909 1683 678 1798 
Q 230 2054 230 2515 
Q 230 2944 602 3219 
Q 979 3501 1542 3501 
Q 1798 3501 2003 3456 
Q 2208 3411 2387 3337 
Q 2566 3264 2720 3155 
L 2720 2598 
Q 2451 2822 2156 2953 
Q 1862 3085 1536 3085 
Q 1210 3085 973 2938 
Q 730 2790 730 2554 
Q 730 2240 1306 2054 
Q 1574 1978 1836 1901 
Q 2099 1824 2368 1747 
Q 2950 1498 2950 992 
Q 2950 563 2547 237 
Q 2138 -83 1530 -83 
Q 1261 -83 1005 -26 
Q 595 64 224 294 
z
" transform="scale(0.015625)"/>
     </defs>
     <use xlink:href="#AppleGothic-53"/>
     <use xlink:href="#AppleGothic-74" transform="translate(63.199997 0)"/>
     <use xlink:href="#AppleGothic-72" transform="translate(97.399994 0)"/>
     <use xlink:href="#AppleGothic-65" transform="translate(132.599991 0)"/>
     <use xlink:href="#AppleGothic-73" transform="translate(187.499985 0)"/>
     <use xlink:href="#AppleGothic-73" transform="translate(237.099976 0)"/>
    </g>
   </g>
   <g id="text_12">
    <!-- Stress -->
    <g transform="translate(170.324247 326.829033) rotate(-327.073171) scale(0.16 -0.16)">
     <use xlink:href="#AppleGothic-53"/>
     <use xlink:href="#AppleGothic-74" transform="translate(63.199997 0)"/>
     <use xlink:href="#AppleGothic-72" transform="translate(97.399994 0)"/>
     <use xlink:href="#AppleGothic-65" transform="translate(132.599991 0)"/>
     <use xlink:href="#AppleGothic-73" transform="translate(187.499985 0)"/>
     <use xlink:href="#AppleGothic-73" transform="translate(237.099976 0)"/>
    </g>
   </g>
   <g id="text_13">
    <!-- Tension -->
    <g transform="translate(128.856881 392.983095) rotate(-335.853659) scale(0.16 -0.16)">
     <use xlink:href="#AppleGothic-54"/>
     <use xlink:href="#AppleGothic-65" transform="translate(66.099991 0)"/>
     <use xlink:href="#AppleGothic-6e" transform="translate(120.999985 0)"/>
     <use xlink:href="#AppleGothic-73" transform="translate(176.899979 0)"/>
     <use xlink:href="#AppleGothic-69" transform="translate(226.499969 0)"/>
     <use xlink:href="#AppleGothic-6f" transform="translate(242.399963 0)"/>
     <use xlink:href="#AppleGothic-6e" transform="translate(300.699951 0)"/>
    </g>
   </g>
   <g id="text_14">
    <!-- Envy -->
    <g transform="translate(273.904887 540.007583) rotate(-349.02439) scale(0.16 -0.16)">
     <defs>
      <path id="AppleGothic-45" d="M 282 5024 
L 3405 5024 
L 3405 4582 
L 787 4582 
L 787 2848 
L 3309 2848 
L 3309 2406 
L 787 2406 
L 787 442 
L 3424 442 
L 3424 0 
L 282 0 
L 282 5024 
z
" transform="scale(0.015625)"/>
      <path id="AppleGothic-79" d="M 179 3424 
L 691 3424 
L 1869 531 
L 2874 3424 
L 3379 3424 
L 1952 -397 
Q 1798 -806 1555 -979 
Q 1338 -1126 1037 -1126 
Q 883 -1126 780 -1104 
Q 678 -1082 582 -1043 
L 582 -602 
Q 672 -646 784 -678 
Q 896 -710 986 -710 
Q 1210 -710 1334 -595 
Q 1459 -480 1555 -230 
L 1632 32 
L 179 3424 
z
" transform="scale(0.015625)"/>
     </defs>
     <use xlink:href="#AppleGothic-45"/>
     <use xlink:href="#AppleGothic-6e" transform="translate(57.899994 0)"/>
     <use xlink:href="#AppleGothic-76" transform="translate(113.799988 0)"/>
     <use xlink:href="#AppleGothic-79" transform="translate(167.999985 0)"/>
    </g>
   </g>
   <g id="text_15">
    <!-- Envy -->
    <g transform="translate(113.334556 469.773723) rotate(-344.634146) scale(0.16 -0.16)">
     <use xlink:href="#AppleGothic-45"/>
     <use xlink:href="#AppleGothic-6e" transform="translate(57.899994 0)"/>
     <use xlink:href="#AppleGothic-76" transform="translate(113.799988 0)"/>
     <use xlink:href="#AppleGothic-79" transform="translate(167.999985 0)"/>
    </g>
   </g>
   <g id="text_16">
    <!-- Jealousy -->
    <g transform="translate(85.394195 543.608461) rotate(-353.414634) scale(0.16 -0.16)">
     <defs>
      <path id="AppleGothic-4a" d="M 1555 429 
Q 1965 429 2253 678 
Q 2547 941 2547 1293 
L 2547 5018 
L 3046 5018 
L 3046 1274 
Q 3046 768 2598 358 
Q 2157 -45 1587 -45 
Q 1171 -45 710 122 
Q 602 154 467 221 
Q 333 288 166 378 
L 166 960 
Q 333 851 489 761 
Q 646 672 806 602 
Q 1210 429 1555 429 
z
" transform="scale(0.015625)"/>
      <path id="AppleGothic-6c" d="M 288 5018 
L 749 5018 
L 749 0 
L 288 0 
L 288 5018 
z
" transform="scale(0.015625)"/>
     </defs>
     <use xlink:href="#AppleGothic-4a"/>
     <use xlink:href="#AppleGothic-65" transform="translate(53.499985 0)"/>
     <use xlink:href="#AppleGothic-61" transform="translate(108.399979 0)"/>
     <use xlink:href="#AppleGothic-6c" transform="translate(164.899963 0)"/>
     <use xlink:href="#AppleGothic-6f" transform="translate(181.59996 0)"/>
     <use xlink:href="#AppleGothic-75" transform="translate(239.899948 0)"/>
     <use xlink:href="#AppleGothic-73" transform="translate(295.399933 0)"/>
     <use xlink:href="#AppleGothic-79" transform="translate(344.999924 0)"/>
    </g>
   </g>
   <g id="text_17">
    <!-- Low -->
    <g transform="translate(455.203785 731.580632) rotate(-41.707317) scale(0.16 -0.16)">
     <defs>
      <path id="AppleGothic-4c" d="M 333 5018 
L 838 5018 
L 838 442 
L 3315 442 
L 3315 0 
L 333 0 
L 333 5018 
z
" transform="scale(0.015625)"/>
      <path id="AppleGothic-77" d="M 2438 3424 
L 2874 3424 
L 3405 1811 
Q 3501 1498 3600 1162 
Q 3699 826 3770 538 
Q 3789 602 3805 646 
Q 3821 691 3834 736 
Q 3904 979 3977 1228 
Q 4051 1478 4122 1747 
L 4646 3424 
L 5126 3424 
L 3981 0 
L 3552 0 
L 2944 1894 
Q 2842 2202 2781 2378 
Q 2720 2554 2707 2618 
Q 2682 2726 2669 2803 
Q 2656 2880 2656 2944 
Q 2598 2771 2556 2636 
Q 2515 2502 2490 2406 
Q 2406 2118 2361 1945 
Q 2317 1773 2304 1715 
L 1760 0 
L 1325 0 
L 186 3424 
L 685 3424 
L 1594 538 
Q 1626 723 1664 886 
Q 1702 1050 1747 1203 
Q 1779 1312 1811 1427 
Q 1843 1542 1888 1664 
L 2438 3424 
z
" transform="scale(0.015625)"/>
     </defs>
     <use xlink:href="#AppleGothic-4c"/>
     <use xlink:href="#AppleGothic-6f" transform="translate(55.199997 0)"/>
     <use xlink:href="#AppleGothic-77" transform="translate(113.499985 0)"/>
    </g>
   </g>
   <g id="text_18">
    <!-- Sadness -->
    <g transform="translate(258.831818 641.944093) rotate(-6.585366) scale(0.16 -0.16)">
     <defs>
      <path id="AppleGothic-64" d="M 2682 5018 
L 3174 5018 
L 3174 0 
L 2733 0 
L 2688 557 
Q 2598 429 2508 329 
Q 2419 230 2330 160 
Q 2010 -83 1587 -83 
Q 928 -83 493 429 
Q 64 941 64 1670 
Q 64 2426 518 2957 
Q 979 3501 1670 3501 
Q 1958 3501 2208 3398 
Q 2298 3360 2416 3296 
Q 2534 3232 2682 3142 
L 2682 5018 
z
M 2682 1658 
L 2682 2643 
Q 2381 2906 2157 2995 
Q 1933 3085 1722 3085 
Q 1197 3085 870 2643 
Q 563 2227 563 1677 
Q 563 1088 902 698 
Q 1216 339 1645 339 
Q 2067 339 2374 710 
Q 2682 1082 2682 1658 
z
" transform="scale(0.015625)"/>
     </defs>
     <use xlink:href="#AppleGothic-53"/>
     <use xlink:href="#AppleGothic-61" transform="translate(63.199997 0)"/>
     <use xlink:href="#AppleGothic-64" transform="translate(119.699982 0)"/>
     <use xlink:href="#AppleGothic-6e" transform="translate(173.699966 0)"/>
     <use xlink:href="#AppleGothic-65" transform="translate(229.59996 0)"/>
     <use xlink:href="#AppleGothic-73" transform="translate(284.499954 0)"/>
     <use xlink:href="#AppleGothic-73" transform="translate(334.099945 0)"/>
    </g>
   </g>
   <g id="text_19">
    <!-- Sadness -->
    <g transform="translate(84.476774 622.453323) rotate(-2.195122) scale(0.16 -0.16)">
     <use xlink:href="#AppleGothic-53"/>
     <use xlink:href="#AppleGothic-61" transform="translate(63.199997 0)"/>
     <use xlink:href="#AppleGothic-64" transform="translate(119.699982 0)"/>
     <use xlink:href="#AppleGothic-6e" transform="translate(173.699966 0)"/>
     <use xlink:href="#AppleGothic-65" transform="translate(229.59996 0)"/>
     <use xlink:href="#AppleGothic-73" transform="translate(284.499954 0)"/>
     <use xlink:href="#AppleGothic-73" transform="translate(334.099945 0)"/>
    </g>
   </g>
   <g id="text_20">
    <!-- Sorrow -->
    <g transform="translate(98.172351 699.7735) rotate(-10.97561) scale(0.16 -0.16)">
     <use xlink:href="#AppleGothic-53"/>
     <use xlink:href="#AppleGothic-6f" transform="translate(63.199997 0)"/>
     <use xlink:href="#AppleGothic-72" transform="translate(121.499985 0)"/>
     <use xlink:href="#AppleGothic-72" transform="translate(156.699982 0)"/>
     <use xlink:href="#AppleGothic-6f" transform="translate(191.899979 0)"/>
     <use xlink:href="#AppleGothic-77" transform="translate(250.199966 0)"/>
    </g>
   </g>
   <g id="text_21">
    <!-- Disappointment -->
    <g transform="translate(264.847001 752.542221) rotate(-24.146341) scale(0.16 -0.16)">
     <defs>
      <path id="AppleGothic-44" d="M 358 5024 
L 1562 5024 
Q 2227 5024 2675 4858 
Q 2861 4787 3027 4681 
Q 3194 4576 3341 4429 
Q 3693 4077 3878 3584 
Q 4064 3091 4064 2554 
Q 4064 1357 3379 672 
Q 2688 0 1485 0 
L 358 0 
L 358 5024 
z
M 1363 4582 
L 864 4582 
L 864 442 
L 1690 442 
Q 2413 442 2912 941 
Q 3494 1523 3494 2560 
Q 3494 2765 3472 2944 
Q 3450 3123 3405 3290 
Q 3264 3776 2906 4122 
Q 2643 4371 2298 4480 
Q 1965 4582 1363 4582 
z
" transform="scale(0.015625)"/>
      <path id="AppleGothic-70" d="M 736 307 
L 736 -1101 
L 288 -1101 
L 288 3424 
L 704 3424 
L 730 2803 
Q 941 3149 1216 3325 
Q 1491 3501 1882 3501 
Q 2522 3501 2944 3002 
Q 3162 2752 3270 2441 
Q 3379 2131 3379 1747 
Q 3379 954 2899 435 
Q 2419 -83 1754 -83 
Q 1421 -83 1139 58 
Q 1056 90 960 154 
Q 864 218 736 307 
z
M 736 1824 
L 736 800 
Q 838 704 924 637 
Q 1011 570 1082 525 
Q 1395 339 1715 339 
Q 2227 339 2554 742 
Q 2886 1165 2886 1766 
Q 2886 2330 2579 2707 
Q 2278 3085 1811 3085 
Q 1331 3085 1018 2669 
Q 736 2291 736 1824 
z
" transform="scale(0.015625)"/>
      <path id="AppleGothic-6d" d="M 5389 2195 
L 5389 0 
L 4922 0 
L 4922 2304 
Q 4922 2669 4672 2893 
Q 4461 3085 4173 3085 
Q 3744 3085 3405 2688 
Q 3072 2298 3072 1722 
L 3072 0 
L 2605 0 
L 2605 2304 
Q 2605 2650 2368 2861 
Q 2144 3085 1856 3085 
Q 1440 3085 1114 2714 
Q 755 2304 755 1702 
L 755 0 
L 288 0 
L 288 3424 
L 723 3424 
L 742 2880 
Q 928 3181 1274 3354 
Q 1581 3501 1894 3501 
Q 2381 3501 2714 3219 
Q 2957 3008 3021 2797 
Q 3149 3034 3386 3226 
Q 3757 3501 4205 3501 
Q 4749 3501 5050 3174 
Q 5389 2803 5389 2195 
z
" transform="scale(0.015625)"/>
     </defs>
     <use xlink:href="#AppleGothic-44"/>
     <use xlink:href="#AppleGothic-69" transform="translate(68.499985 0)"/>
     <use xlink:href="#AppleGothic-73" transform="translate(84.399979 0)"/>
     <use xlink:href="#AppleGothic-61" transform="translate(133.999969 0)"/>
     <use xlink:href="#AppleGothic-70" transform="translate(190.499954 0)"/>
     <use xlink:href="#AppleGothic-70" transform="translate(245.899948 0)"/>
     <use xlink:href="#AppleGothic-6f" transform="translate(301.299942 0)"/>
     <use xlink:href="#AppleGothic-69" transform="translate(359.59993 0)"/>
     <use xlink:href="#AppleGothic-6e" transform="translate(375.499924 0)"/>
     <use xlink:href="#AppleGothic-74" transform="translate(431.399918 0)"/>
     <use xlink:href="#AppleGothic-6d" transform="translate(465.599915 0)"/>
     <use xlink:href="#AppleGothic-65" transform="translate(554.899902 0)"/>
     <use xlink:href="#AppleGothic-6e" transform="translate(609.799896 0)"/>
     <use xlink:href="#AppleGothic-74" transform="translate(665.69989 0)"/>
    </g>
   </g>
   <g id="text_22">
    <!-- Disappointment -->
    <g transform="translate(92.011766 784.768993) rotate(-19.756098) scale(0.16 -0.16)">
     <use xlink:href="#AppleGothic-44"/>
     <use xlink:href="#AppleGothic-69" transform="translate(68.499985 0)"/>
     <use xlink:href="#AppleGothic-73" transform="translate(84.399979 0)"/>
     <use xlink:href="#AppleGothic-61" transform="translate(133.999969 0)"/>
     <use xlink:href="#AppleGothic-70" transform="translate(190.499954 0)"/>
     <use xlink:href="#AppleGothic-70" transform="translate(245.899948 0)"/>
     <use xlink:href="#AppleGothic-6f" transform="translate(301.299942 0)"/>
     <use xlink:href="#AppleGothic-69" transform="translate(359.59993 0)"/>
     <use xlink:href="#AppleGothic-6e" transform="translate(375.499924 0)"/>
     <use xlink:href="#AppleGothic-74" transform="translate(431.399918 0)"/>
     <use xlink:href="#AppleGothic-6d" transform="translate(465.599915 0)"/>
     <use xlink:href="#AppleGothic-65" transform="translate(554.899902 0)"/>
     <use xlink:href="#AppleGothic-6e" transform="translate(609.799896 0)"/>
     <use xlink:href="#AppleGothic-74" transform="translate(665.69989 0)"/>
    </g>
   </g>
   <g id="text_23">
    <!-- Discouragement -->
    <g transform="translate(123.754448 860.983005) rotate(-28.536585) scale(0.16 -0.16)">
     <use xlink:href="#AppleGothic-44"/>
     <use xlink:href="#AppleGothic-69" transform="translate(68.499985 0)"/>
     <use xlink:href="#AppleGothic-73" transform="translate(84.399979 0)"/>
     <use xlink:href="#AppleGothic-63" transform="translate(133.999969 0)"/>
     <use xlink:href="#AppleGothic-6f" transform="translate(185.899963 0)"/>
     <use xlink:href="#AppleGothic-75" transform="translate(244.199951 0)"/>
     <use xlink:href="#AppleGothic-72" transform="translate(299.699936 0)"/>
     <use xlink:href="#AppleGothic-61" transform="translate(334.899933 0)"/>
     <use xlink:href="#AppleGothic-67" transform="translate(391.399918 0)"/>
     <use xlink:href="#AppleGothic-65" transform="translate(447.599915 0)"/>
     <use xlink:href="#AppleGothic-6d" transform="translate(502.499908 0)"/>
     <use xlink:href="#AppleGothic-65" transform="translate(591.799896 0)"/>
     <use xlink:href="#AppleGothic-6e" transform="translate(646.69989 0)"/>
     <use xlink:href="#AppleGothic-74" transform="translate(702.599884 0)"/>
    </g>
   </g>
   <g id="text_24">
    <!-- Shame -->
    <g transform="translate(349.952582 825.380147) rotate(-41.707317) scale(0.16 -0.16)">
     <use xlink:href="#AppleGothic-53"/>
     <use xlink:href="#AppleGothic-68" transform="translate(63.199997 0)"/>
     <use xlink:href="#AppleGothic-61" transform="translate(115.399994 0)"/>
     <use xlink:href="#AppleGothic-6d" transform="translate(171.899979 0)"/>
     <use xlink:href="#AppleGothic-65" transform="translate(261.199966 0)"/>
    </g>
   </g>
   <g id="text_25">
    <!-- Shame -->
    <g transform="translate(196.392628 910.067369) rotate(-37.317073) scale(0.16 -0.16)">
     <use xlink:href="#AppleGothic-53"/>
     <use xlink:href="#AppleGothic-68" transform="translate(63.199997 0)"/>
     <use xlink:href="#AppleGothic-61" transform="translate(115.399994 0)"/>
     <use xlink:href="#AppleGothic-6d" transform="translate(171.899979 0)"/>
     <use xlink:href="#AppleGothic-65" transform="translate(261.199966 0)"/>
    </g>
   </g>
   <g id="text_26">
    <!-- Embarrassment -->
    <g transform="translate(226.330836 990.993487) rotate(-46.097561) scale(0.16 -0.16)">
     <defs>
      <path id="AppleGothic-62" d="M 288 5018 
L 755 5018 
L 755 2848 
Q 845 2982 931 3078 
Q 1018 3174 1107 3245 
Q 1440 3501 1882 3501 
Q 2547 3501 2976 2995 
Q 3418 2483 3418 1754 
Q 3418 1005 2976 480 
Q 2502 -83 1792 -83 
Q 1402 -83 1114 90 
Q 928 192 755 384 
L 634 0 
L 288 0 
L 288 5018 
z
M 755 1862 
L 755 870 
Q 845 762 934 678 
Q 1024 595 1101 538 
Q 1382 339 1741 339 
Q 2234 339 2554 742 
Q 2874 1158 2874 1747 
Q 2874 2362 2515 2752 
Q 2208 3085 1805 3085 
Q 1370 3085 1056 2714 
Q 755 2355 755 1862 
z
" transform="scale(0.015625)"/>
     </defs>
     <use xlink:href="#AppleGothic-45"/>
     <use xlink:href="#AppleGothic-6d" transform="translate(57.899994 0)"/>
     <use xlink:href="#AppleGothic-62" transform="translate(147.199982 0)"/>
     <use xlink:href="#AppleGothic-61" transform="translate(203.399979 0)"/>
     <use xlink:href="#AppleGothic-72" transform="translate(259.899963 0)"/>
     <use xlink:href="#AppleGothic-72" transform="translate(295.09996 0)"/>
     <use xlink:href="#AppleGothic-61" transform="translate(330.299957 0)"/>
     <use xlink:href="#AppleGothic-73" transform="translate(386.799942 0)"/>
     <use xlink:href="#AppleGothic-73" transform="translate(436.399933 0)"/>
     <use xlink:href="#AppleGothic-6d" transform="translate(485.999924 0)"/>
     <use xlink:href="#AppleGothic-65" transform="translate(575.299911 0)"/>
     <use xlink:href="#AppleGothic-6e" transform="translate(630.199905 0)"/>
     <use xlink:href="#AppleGothic-74" transform="translate(686.099899 0)"/>
    </g>
   </g>
   <g id="text_27">
    <!-- Loneliness -->
    <g transform="translate(423.984337 899.95142) rotate(-59.268293) scale(0.16 -0.16)">
     <use xlink:href="#AppleGothic-4c"/>
     <use xlink:href="#AppleGothic-6f" transform="translate(55.199997 0)"/>
     <use xlink:href="#AppleGothic-6e" transform="translate(113.499985 0)"/>
     <use xlink:href="#AppleGothic-65" transform="translate(169.399979 0)"/>
     <use xlink:href="#AppleGothic-6c" transform="translate(224.299973 0)"/>
     <use xlink:href="#AppleGothic-69" transform="translate(240.999969 0)"/>
     <use xlink:href="#AppleGothic-6e" transform="translate(256.899963 0)"/>
     <use xlink:href="#AppleGothic-65" transform="translate(312.799957 0)"/>
     <use xlink:href="#AppleGothic-73" transform="translate(367.699951 0)"/>
     <use xlink:href="#AppleGothic-73" transform="translate(417.299942 0)"/>
    </g>
   </g>
   <g id="text_28">
    <!-- Loneliness -->
    <g transform="translate(302.356931 1026.521723) rotate(-54.878049) scale(0.16 -0.16)">
     <use xlink:href="#AppleGothic-4c"/>
     <use xlink:href="#AppleGothic-6f" transform="translate(55.199997 0)"/>
     <use xlink:href="#AppleGothic-6e" transform="translate(113.499985 0)"/>
     <use xlink:href="#AppleGothic-65" transform="translate(169.399979 0)"/>
     <use xlink:href="#AppleGothic-6c" transform="translate(224.299973 0)"/>
     <use xlink:href="#AppleGothic-69" transform="translate(240.999969 0)"/>
     <use xlink:href="#AppleGothic-6e" transform="translate(256.899963 0)"/>
     <use xlink:href="#AppleGothic-65" transform="translate(312.799957 0)"/>
     <use xlink:href="#AppleGothic-73" transform="translate(367.699951 0)"/>
     <use xlink:href="#AppleGothic-73" transform="translate(417.299942 0)"/>
    </g>
   </g>
   <g id="text_29">
    <!-- Isolation -->
    <g transform="translate(374.803277 1059.43826) rotate(-63.658537) scale(0.16 -0.16)">
     <defs>
      <path id="AppleGothic-49" d="M 435 5018 
L 934 5018 
L 934 0 
L 435 0 
L 435 5018 
z
" transform="scale(0.015625)"/>
     </defs>
     <use xlink:href="#AppleGothic-49"/>
     <use xlink:href="#AppleGothic-73" transform="translate(21.499985 0)"/>
     <use xlink:href="#AppleGothic-6f" transform="translate(71.099976 0)"/>
     <use xlink:href="#AppleGothic-6c" transform="translate(129.399963 0)"/>
     <use xlink:href="#AppleGothic-61" transform="translate(146.09996 0)"/>
     <use xlink:href="#AppleGothic-74" transform="translate(202.599945 0)"/>
     <use xlink:href="#AppleGothic-69" transform="translate(236.799942 0)"/>
     <use xlink:href="#AppleGothic-6f" transform="translate(252.699936 0)"/>
     <use xlink:href="#AppleGothic-6e" transform="translate(310.999924 0)"/>
    </g>
   </g>
   <g id="text_30">
    <!-- Boredom -->
    <g transform="translate(524.188345 934.249052) rotate(-76.829268) scale(0.16 -0.16)">
     <defs>
      <path id="AppleGothic-42" d="M 307 5018 
L 2029 5018 
Q 2675 5018 3053 4755 
Q 3494 4442 3494 3859 
Q 3494 3373 3181 3040 
Q 3091 2938 2960 2854 
Q 2829 2771 2662 2694 
Q 3322 2586 3616 2176 
Q 3840 1862 3840 1472 
Q 3840 838 3360 416 
Q 2899 0 2240 0 
L 307 0 
L 307 5018 
z
M 1997 4576 
L 813 4576 
L 813 2854 
L 1766 2854 
Q 2342 2854 2649 3113 
Q 2957 3373 2957 3782 
Q 2957 4102 2739 4333 
Q 2477 4576 1997 4576 
z
M 1907 2413 
L 813 2413 
L 813 442 
L 2029 442 
Q 2579 442 2931 717 
Q 3283 1011 3283 1466 
Q 3283 1926 2928 2169 
Q 2573 2413 1907 2413 
z
" transform="scale(0.015625)"/>
     </defs>
     <use xlink:href="#AppleGothic-42"/>
     <use xlink:href="#AppleGothic-6f" transform="translate(64.399994 0)"/>
     <use xlink:href="#AppleGothic-72" transform="translate(122.699982 0)"/>
     <use xlink:href="#AppleGothic-65" transform="translate(157.899979 0)"/>
     <use xlink:href="#AppleGothic-64" transform="translate(212.799973 0)"/>
     <use xlink:href="#AppleGothic-6f" transform="translate(266.799957 0)"/>
     <use xlink:href="#AppleGothic-6d" transform="translate(325.099945 0)"/>
    </g>
   </g>
   <g id="text_31">
    <!-- Boredom -->
    <g transform="translate(446.728417 1091.703497) rotate(-72.439024) scale(0.16 -0.16)">
     <use xlink:href="#AppleGothic-42"/>
     <use xlink:href="#AppleGothic-6f" transform="translate(64.399994 0)"/>
     <use xlink:href="#AppleGothic-72" transform="translate(122.699982 0)"/>
     <use xlink:href="#AppleGothic-65" transform="translate(157.899979 0)"/>
     <use xlink:href="#AppleGothic-64" transform="translate(212.799973 0)"/>
     <use xlink:href="#AppleGothic-6f" transform="translate(266.799957 0)"/>
     <use xlink:href="#AppleGothic-6d" transform="translate(325.099945 0)"/>
    </g>
   </g>
   <g id="text_32">
    <!-- Apathy -->
    <g transform="translate(524.923714 1102.042167) rotate(-81.219512) scale(0.16 -0.16)">
     <use xlink:href="#AppleGothic-41"/>
     <use xlink:href="#AppleGothic-70" transform="translate(72.599991 0)"/>
     <use xlink:href="#AppleGothic-61" transform="translate(127.999985 0)"/>
     <use xlink:href="#AppleGothic-74" transform="translate(184.499969 0)"/>
     <use xlink:href="#AppleGothic-68" transform="translate(218.699966 0)"/>
     <use xlink:href="#AppleGothic-79" transform="translate(270.899963 0)"/>
    </g>
   </g>
   <g id="text_33">
    <!-- Positive -->
    <g transform="translate(631.051438 604.046046) rotate(-357.804878) scale(0.16 -0.16)">
     <use xlink:href="#AppleGothic-50"/>
     <use xlink:href="#AppleGothic-6f" transform="translate(60.299988 0)"/>
     <use xlink:href="#AppleGothic-73" transform="translate(118.599976 0)"/>
     <use xlink:href="#AppleGothic-69" transform="translate(168.199966 0)"/>
     <use xlink:href="#AppleGothic-74" transform="translate(184.09996 0)"/>
     <use xlink:href="#AppleGothic-69" transform="translate(218.299957 0)"/>
     <use xlink:href="#AppleGothic-76" transform="translate(234.199951 0)"/>
     <use xlink:href="#AppleGothic-65" transform="translate(288.399948 0)"/>
    </g>
   </g>
   <g id="text_34">
    <!-- High -->
    <g transform="translate(717.327125 710.545505) rotate(-318.292683) scale(0.16 -0.16)">
     <use xlink:href="#AppleGothic-48"/>
     <use xlink:href="#AppleGothic-69" transform="translate(70.299988 0)"/>
     <use xlink:href="#AppleGothic-67" transform="translate(86.199982 0)"/>
     <use xlink:href="#AppleGothic-68" transform="translate(142.399979 0)"/>
    </g>
   </g>
   <g id="text_35">
    <!-- Joy -->
    <g transform="translate(615.817349 895.136726) rotate(-274.390244) scale(0.16 -0.16)">
     <use xlink:href="#AppleGothic-4a"/>
     <use xlink:href="#AppleGothic-6f" transform="translate(53.499985 0)"/>
     <use xlink:href="#AppleGothic-79" transform="translate(111.799973 0)"/>
    </g>
   </g>
   <g id="text_36">
    <!-- Joy -->
    <g transform="translate(593.0095 1067.740671) rotate(-270) scale(0.16 -0.16)">
     <use xlink:href="#AppleGothic-4a"/>
     <use xlink:href="#AppleGothic-6f" transform="translate(53.499985 0)"/>
     <use xlink:href="#AppleGothic-79" transform="translate(111.799973 0)"/>
    </g>
   </g>
   <g id="text_37">
    <!-- Delight -->
    <g transform="translate(663.40491 1052.576415) rotate(-278.780488) scale(0.16 -0.16)">
     <use xlink:href="#AppleGothic-44"/>
     <use xlink:href="#AppleGothic-65" transform="translate(68.499985 0)"/>
     <use xlink:href="#AppleGothic-6c" transform="translate(123.399979 0)"/>
     <use xlink:href="#AppleGothic-69" transform="translate(140.099976 0)"/>
     <use xlink:href="#AppleGothic-67" transform="translate(155.999969 0)"/>
     <use xlink:href="#AppleGothic-68" transform="translate(212.199966 0)"/>
     <use xlink:href="#AppleGothic-74" transform="translate(264.399963 0)"/>
    </g>
   </g>
   <g id="text_38">
    <!-- Motivation -->
    <g transform="translate(695.460885 853.100569) rotate(-291.95122) scale(0.16 -0.16)">
     <defs>
      <path id="AppleGothic-4d" d="M 288 0 
L 288 5018 
L 947 5018 
L 2893 864 
L 4902 5018 
L 5523 5018 
L 5523 0 
L 5069 0 
L 5069 4358 
L 3002 0 
L 2784 0 
L 749 4352 
L 749 0 
L 288 0 
z
" transform="scale(0.015625)"/>
     </defs>
     <use xlink:href="#AppleGothic-4d"/>
     <use xlink:href="#AppleGothic-6f" transform="translate(91.099991 0)"/>
     <use xlink:href="#AppleGothic-74" transform="translate(149.399979 0)"/>
     <use xlink:href="#AppleGothic-69" transform="translate(183.599976 0)"/>
     <use xlink:href="#AppleGothic-76" transform="translate(199.499969 0)"/>
     <use xlink:href="#AppleGothic-61" transform="translate(253.699966 0)"/>
     <use xlink:href="#AppleGothic-74" transform="translate(310.199951 0)"/>
     <use xlink:href="#AppleGothic-69" transform="translate(344.399948 0)"/>
     <use xlink:href="#AppleGothic-6f" transform="translate(360.299942 0)"/>
     <use xlink:href="#AppleGothic-6e" transform="translate(418.59993 0)"/>
    </g>
   </g>
   <g id="text_39">
    <!-- Excitement -->
    <g transform="translate(726.863354 1021.689641) rotate(-287.560976) scale(0.16 -0.16)">
     <defs>
      <path id="AppleGothic-78" d="M 352 3424 
L 928 3424 
L 1754 2150 
L 2592 3424 
L 3130 3424 
L 2022 1830 
L 3270 0 
L 2682 0 
L 1722 1504 
L 755 0 
L 211 0 
L 1466 1830 
L 352 3424 
z
" transform="scale(0.015625)"/>
     </defs>
     <use xlink:href="#AppleGothic-45"/>
     <use xlink:href="#AppleGothic-78" transform="translate(57.899994 0)"/>
     <use xlink:href="#AppleGothic-63" transform="translate(112.299988 0)"/>
     <use xlink:href="#AppleGothic-69" transform="translate(164.199982 0)"/>
     <use xlink:href="#AppleGothic-74" transform="translate(180.099976 0)"/>
     <use xlink:href="#AppleGothic-65" transform="translate(214.299973 0)"/>
     <use xlink:href="#AppleGothic-6d" transform="translate(269.199966 0)"/>
     <use xlink:href="#AppleGothic-65" transform="translate(358.499954 0)"/>
     <use xlink:href="#AppleGothic-6e" transform="translate(413.399948 0)"/>
     <use xlink:href="#AppleGothic-74" transform="translate(469.299942 0)"/>
    </g>
   </g>
   <g id="text_40">
    <!-- Enthusiasm -->
    <g transform="translate(789.58305 996.096158) rotate(-296.341463) scale(0.16 -0.16)">
     <use xlink:href="#AppleGothic-45"/>
     <use xlink:href="#AppleGothic-6e" transform="translate(57.899994 0)"/>
     <use xlink:href="#AppleGothic-74" transform="translate(113.799988 0)"/>
     <use xlink:href="#AppleGothic-68" transform="translate(147.999985 0)"/>
     <use xlink:href="#AppleGothic-75" transform="translate(200.199982 0)"/>
     <use xlink:href="#AppleGothic-73" transform="translate(255.699966 0)"/>
     <use xlink:href="#AppleGothic-69" transform="translate(305.299957 0)"/>
     <use xlink:href="#AppleGothic-61" transform="translate(321.199951 0)"/>
     <use xlink:href="#AppleGothic-73" transform="translate(377.699936 0)"/>
     <use xlink:href="#AppleGothic-6d" transform="translate(427.299927 0)"/>
    </g>
   </g>
   <g id="text_41">
    <!-- Interest -->
    <g transform="translate(774.745261 820.038441) rotate(-309.512195) scale(0.16 -0.16)">
     <use xlink:href="#AppleGothic-49"/>
     <use xlink:href="#AppleGothic-6e" transform="translate(21.499985 0)"/>
     <use xlink:href="#AppleGothic-74" transform="translate(77.399979 0)"/>
     <use xlink:href="#AppleGothic-65" transform="translate(111.599976 0)"/>
     <use xlink:href="#AppleGothic-72" transform="translate(166.499969 0)"/>
     <use xlink:href="#AppleGothic-65" transform="translate(201.699966 0)"/>
     <use xlink:href="#AppleGothic-73" transform="translate(256.59996 0)"/>
     <use xlink:href="#AppleGothic-74" transform="translate(306.199951 0)"/>
    </g>
   </g>
   <g id="text_42">
    <!-- Interest -->
    <g transform="translate(856.233675 973.693711) rotate(-305.121951) scale(0.16 -0.16)">
     <use xlink:href="#AppleGothic-49"/>
     <use xlink:href="#AppleGothic-6e" transform="translate(21.499985 0)"/>
     <use xlink:href="#AppleGothic-74" transform="translate(77.399979 0)"/>
     <use xlink:href="#AppleGothic-65" transform="translate(111.599976 0)"/>
     <use xlink:href="#AppleGothic-72" transform="translate(166.499969 0)"/>
     <use xlink:href="#AppleGothic-65" transform="translate(201.699966 0)"/>
     <use xlink:href="#AppleGothic-73" transform="translate(256.59996 0)"/>
     <use xlink:href="#AppleGothic-74" transform="translate(306.199951 0)"/>
    </g>
   </g>
   <g id="text_43">
    <!-- Curiosity -->
    <g transform="translate(907.83766 927.11188) rotate(-313.902439) scale(0.16 -0.16)">
     <defs>
      <path id="AppleGothic-43" d="M 4109 4621 
L 4109 3974 
Q 3872 4205 3565 4371 
Q 3085 4627 2598 4627 
Q 1850 4627 1312 3994 
Q 1043 3680 912 3309 
Q 781 2938 781 2515 
Q 781 1651 1318 1030 
Q 1850 410 2611 410 
Q 2970 410 3344 554 
Q 3718 698 4109 998 
L 4109 378 
Q 3251 -83 2554 -83 
Q 1651 -83 973 614 
Q 243 1363 243 2490 
Q 243 3584 922 4339 
Q 1613 5101 2630 5101 
Q 3027 5101 3392 4979 
Q 3757 4858 4109 4621 
z
" transform="scale(0.015625)"/>
     </defs>
     <use xlink:href="#AppleGothic-43"/>
     <use xlink:href="#AppleGothic-75" transform="translate(68.499985 0)"/>
     <use xlink:href="#AppleGothic-72" transform="translate(123.999969 0)"/>
     <use xlink:href="#AppleGothic-69" transform="translate(159.199966 0)"/>
     <use xlink:href="#AppleGothic-6f" transform="translate(175.09996 0)"/>
     <use xlink:href="#AppleGothic-73" transform="translate(233.399948 0)"/>
     <use xlink:href="#AppleGothic-69" transform="translate(282.999939 0)"/>
     <use xlink:href="#AppleGothic-74" transform="translate(298.899933 0)"/>
     <use xlink:href="#AppleGothic-79" transform="translate(333.09993 0)"/>
    </g>
   </g>
   <g id="text_44">
    <!-- Confidence -->
    <g transform="translate(822.533998 749.195795) rotate(-327.073171) scale(0.16 -0.16)">
     <defs>
      <path id="AppleGothic-66" d="M 646 3430 
L 646 4083 
Q 646 4538 819 4774 
Q 1037 5101 1555 5101 
Q 1613 5101 1657 5097 
Q 1702 5094 1750 5088 
Q 1798 5082 1862 5062 
Q 1926 5043 2016 5018 
L 2016 4595 
Q 1997 4621 1837 4653 
Q 1766 4666 1712 4672 
Q 1658 4678 1619 4678 
Q 1350 4678 1228 4524 
Q 1107 4371 1107 4083 
L 1107 3430 
L 2016 3430 
L 2016 3014 
L 1107 3014 
L 1107 0 
L 646 0 
L 646 3014 
L 64 3014 
L 64 3430 
L 646 3430 
z
" transform="scale(0.015625)"/>
     </defs>
     <use xlink:href="#AppleGothic-43"/>
     <use xlink:href="#AppleGothic-6f" transform="translate(68.499985 0)"/>
     <use xlink:href="#AppleGothic-6e" transform="translate(126.799973 0)"/>
     <use xlink:href="#AppleGothic-66" transform="translate(182.699966 0)"/>
     <use xlink:href="#AppleGothic-69" transform="translate(216.699951 0)"/>
     <use xlink:href="#AppleGothic-64" transform="translate(232.599945 0)"/>
     <use xlink:href="#AppleGothic-65" transform="translate(286.59993 0)"/>
     <use xlink:href="#AppleGothic-6e" transform="translate(341.499924 0)"/>
     <use xlink:href="#AppleGothic-63" transform="translate(397.399918 0)"/>
     <use xlink:href="#AppleGothic-65" transform="translate(449.299911 0)"/>
    </g>
   </g>
   <g id="text_45">
    <!-- Pride -->
    <g transform="translate(965.227373 884.051963) rotate(-322.682927) scale(0.16 -0.16)">
     <use xlink:href="#AppleGothic-50"/>
     <use xlink:href="#AppleGothic-72" transform="translate(60.299988 0)"/>
     <use xlink:href="#AppleGothic-69" transform="translate(95.499985 0)"/>
     <use xlink:href="#AppleGothic-64" transform="translate(111.399979 0)"/>
     <use xlink:href="#AppleGothic-65" transform="translate(165.399963 0)"/>
    </g>
   </g>
   <g id="text_46">
    <!-- Confidence -->
    <g transform="translate(984.65263 813.771123) rotate(-331.463415) scale(0.16 -0.16)">
     <use xlink:href="#AppleGothic-43"/>
     <use xlink:href="#AppleGothic-6f" transform="translate(68.499985 0)"/>
     <use xlink:href="#AppleGothic-6e" transform="translate(126.799973 0)"/>
     <use xlink:href="#AppleGothic-66" transform="translate(182.699966 0)"/>
     <use xlink:href="#AppleGothic-69" transform="translate(216.699951 0)"/>
     <use xlink:href="#AppleGothic-64" transform="translate(232.599945 0)"/>
     <use xlink:href="#AppleGothic-65" transform="translate(286.59993 0)"/>
     <use xlink:href="#AppleGothic-6e" transform="translate(341.499924 0)"/>
     <use xlink:href="#AppleGothic-63" transform="translate(397.399918 0)"/>
     <use xlink:href="#AppleGothic-65" transform="translate(449.299911 0)"/>
    </g>
   </g>
   <g id="text_47">
    <!-- Desire -->
    <g transform="translate(875.094244 679.133582) rotate(-344.634146) scale(0.16 -0.16)">
     <use xlink:href="#AppleGothic-44"/>
     <use xlink:href="#AppleGothic-65" transform="translate(68.499985 0)"/>
     <use xlink:href="#AppleGothic-73" transform="translate(123.399979 0)"/>
     <use xlink:href="#AppleGothic-69" transform="translate(172.999969 0)"/>
     <use xlink:href="#AppleGothic-72" transform="translate(188.899963 0)"/>
     <use xlink:href="#AppleGothic-65" transform="translate(224.09996 0)"/>
    </g>
   </g>
   <g id="text_48">
    <!-- Attraction -->
    <g transform="translate(1017.240764 753.695226) rotate(-340.243902) scale(0.16 -0.16)">
     <use xlink:href="#AppleGothic-41"/>
     <use xlink:href="#AppleGothic-74" transform="translate(72.599991 0)"/>
     <use xlink:href="#AppleGothic-74" transform="translate(106.799988 0)"/>
     <use xlink:href="#AppleGothic-72" transform="translate(140.999985 0)"/>
     <use xlink:href="#AppleGothic-61" transform="translate(176.199982 0)"/>
     <use xlink:href="#AppleGothic-63" transform="translate(232.699966 0)"/>
     <use xlink:href="#AppleGothic-74" transform="translate(284.59996 0)"/>
     <use xlink:href="#AppleGothic-69" transform="translate(318.799957 0)"/>
     <use xlink:href="#AppleGothic-6f" transform="translate(334.699951 0)"/>
     <use xlink:href="#AppleGothic-6e" transform="translate(392.999939 0)"/>
    </g>
   </g>
   <g id="text_49">
    <!-- Desire -->
    <g transform="translate(1049.455762 690.441004) rotate(-349.02439) scale(0.16 -0.16)">
     <use xlink:href="#AppleGothic-44"/>
     <use xlink:href="#AppleGothic-65" transform="translate(68.499985 0)"/>
     <use xlink:href="#AppleGothic-73" transform="translate(123.399979 0)"/>
     <use xlink:href="#AppleGothic-69" transform="translate(172.999969 0)"/>
     <use xlink:href="#AppleGothic-72" transform="translate(188.899963 0)"/>
     <use xlink:href="#AppleGothic-65" transform="translate(224.09996 0)"/>
    </g>
   </g>
   <g id="text_50">
    <!-- Playfulness -->
    <g transform="translate(868.59716 592.469866) rotate(-2.195122) scale(0.16 -0.16)">
     <use xlink:href="#AppleGothic-50"/>
     <use xlink:href="#AppleGothic-6c" transform="translate(60.299988 0)"/>
     <use xlink:href="#AppleGothic-61" transform="translate(76.999985 0)"/>
     <use xlink:href="#AppleGothic-79" transform="translate(133.499969 0)"/>
     <use xlink:href="#AppleGothic-66" transform="translate(189.199966 0)"/>
     <use xlink:href="#AppleGothic-75" transform="translate(223.199951 0)"/>
     <use xlink:href="#AppleGothic-6c" transform="translate(278.699936 0)"/>
     <use xlink:href="#AppleGothic-6e" transform="translate(295.399933 0)"/>
     <use xlink:href="#AppleGothic-65" transform="translate(351.299927 0)"/>
     <use xlink:href="#AppleGothic-73" transform="translate(406.199921 0)"/>
     <use xlink:href="#AppleGothic-73" transform="translate(455.799911 0)"/>
    </g>
   </g>
   <g id="text_51">
    <!-- Amusement -->
    <g transform="translate(1036.134904 619.573244) rotate(-357.804878) scale(0.16 -0.16)">
     <use xlink:href="#AppleGothic-41"/>
     <use xlink:href="#AppleGothic-6d" transform="translate(72.599991 0)"/>
     <use xlink:href="#AppleGothic-75" transform="translate(161.899979 0)"/>
     <use xlink:href="#AppleGothic-73" transform="translate(217.399963 0)"/>
     <use xlink:href="#AppleGothic-65" transform="translate(266.999954 0)"/>
     <use xlink:href="#AppleGothic-6d" transform="translate(321.899948 0)"/>
     <use xlink:href="#AppleGothic-65" transform="translate(411.199936 0)"/>
     <use xlink:href="#AppleGothic-6e" transform="translate(466.09993 0)"/>
     <use xlink:href="#AppleGothic-74" transform="translate(521.999924 0)"/>
    </g>
   </g>
   <g id="text_52">
    <!-- Playfulness -->
    <g transform="translate(1038.356228 552.024784) rotate(-6.585366) scale(0.16 -0.16)">
     <use xlink:href="#AppleGothic-50"/>
     <use xlink:href="#AppleGothic-6c" transform="translate(60.299988 0)"/>
     <use xlink:href="#AppleGothic-61" transform="translate(76.999985 0)"/>
     <use xlink:href="#AppleGothic-79" transform="translate(133.499969 0)"/>
     <use xlink:href="#AppleGothic-66" transform="translate(189.199966 0)"/>
     <use xlink:href="#AppleGothic-75" transform="translate(223.199951 0)"/>
     <use xlink:href="#AppleGothic-6c" transform="translate(278.699936 0)"/>
     <use xlink:href="#AppleGothic-6e" transform="translate(295.399933 0)"/>
     <use xlink:href="#AppleGothic-65" transform="translate(351.299927 0)"/>
     <use xlink:href="#AppleGothic-73" transform="translate(406.199921 0)"/>
     <use xlink:href="#AppleGothic-73" transform="translate(455.799911 0)"/>
    </g>
   </g>
   <g id="text_53">
    <!-- Low -->
    <g transform="translate(705.963475 474.504508) rotate(-50.487805) scale(0.16 -0.16)">
     <use xlink:href="#AppleGothic-4c"/>
     <use xlink:href="#AppleGothic-6f" transform="translate(55.199997 0)"/>
     <use xlink:href="#AppleGothic-77" transform="translate(113.499985 0)"/>
    </g>
   </g>
   <g id="text_54">
    <!-- Calm -->
    <g transform="translate(874.985689 503.55059) rotate(-19.756098) scale(0.16 -0.16)">
     <use xlink:href="#AppleGothic-43"/>
     <use xlink:href="#AppleGothic-61" transform="translate(68.499985 0)"/>
     <use xlink:href="#AppleGothic-6c" transform="translate(124.999969 0)"/>
     <use xlink:href="#AppleGothic-6d" transform="translate(141.699966 0)"/>
    </g>
   </g>
   <g id="text_55">
    <!-- Calm -->
    <g transform="translate(1047.343606 479.435988) rotate(-15.365854) scale(0.16 -0.16)">
     <use xlink:href="#AppleGothic-43"/>
     <use xlink:href="#AppleGothic-61" transform="translate(68.499985 0)"/>
     <use xlink:href="#AppleGothic-6c" transform="translate(124.999969 0)"/>
     <use xlink:href="#AppleGothic-6d" transform="translate(141.699966 0)"/>
    </g>
   </g>
   <g id="text_56">
    <!-- Serenity -->
    <g transform="translate(1013.883644 416.825855) rotate(-24.146341) scale(0.16 -0.16)">
     <use xlink:href="#AppleGothic-53"/>
     <use xlink:href="#AppleGothic-65" transform="translate(63.199997 0)"/>
     <use xlink:href="#AppleGothic-72" transform="translate(118.099991 0)"/>
     <use xlink:href="#AppleGothic-65" transform="translate(153.299988 0)"/>
     <use xlink:href="#AppleGothic-6e" transform="translate(208.199982 0)"/>
     <use xlink:href="#AppleGothic-69" transform="translate(264.099976 0)"/>
     <use xlink:href="#AppleGothic-74" transform="translate(279.999969 0)"/>
     <use xlink:href="#AppleGothic-79" transform="translate(314.199966 0)"/>
    </g>
   </g>
   <g id="text_57">
    <!-- Contentment -->
    <g transform="translate(810.374377 442.04942) rotate(-37.317073) scale(0.16 -0.16)">
     <use xlink:href="#AppleGothic-43"/>
     <use xlink:href="#AppleGothic-6f" transform="translate(68.499985 0)"/>
     <use xlink:href="#AppleGothic-6e" transform="translate(126.799973 0)"/>
     <use xlink:href="#AppleGothic-74" transform="translate(182.699966 0)"/>
     <use xlink:href="#AppleGothic-65" transform="translate(216.899963 0)"/>
     <use xlink:href="#AppleGothic-6e" transform="translate(271.799957 0)"/>
     <use xlink:href="#AppleGothic-74" transform="translate(327.699951 0)"/>
     <use xlink:href="#AppleGothic-6d" transform="translate(361.899948 0)"/>
     <use xlink:href="#AppleGothic-65" transform="translate(451.199936 0)"/>
     <use xlink:href="#AppleGothic-6e" transform="translate(506.09993 0)"/>
     <use xlink:href="#AppleGothic-74" transform="translate(561.999924 0)"/>
    </g>
   </g>
   <g id="text_58">
    <!-- Contentment -->
    <g transform="translate(966.136177 365.223927) rotate(-32.926829) scale(0.16 -0.16)">
     <use xlink:href="#AppleGothic-43"/>
     <use xlink:href="#AppleGothic-6f" transform="translate(68.499985 0)"/>
     <use xlink:href="#AppleGothic-6e" transform="translate(126.799973 0)"/>
     <use xlink:href="#AppleGothic-74" transform="translate(182.699966 0)"/>
     <use xlink:href="#AppleGothic-65" transform="translate(216.899963 0)"/>
     <use xlink:href="#AppleGothic-6e" transform="translate(271.799957 0)"/>
     <use xlink:href="#AppleGothic-74" transform="translate(327.699951 0)"/>
     <use xlink:href="#AppleGothic-6d" transform="translate(361.899948 0)"/>
     <use xlink:href="#AppleGothic-65" transform="translate(451.199936 0)"/>
     <use xlink:href="#AppleGothic-6e" transform="translate(506.09993 0)"/>
     <use xlink:href="#AppleGothic-74" transform="translate(561.999924 0)"/>
    </g>
   </g>
   <g id="text_59">
    <!-- Satisfaction -->
    <g transform="translate(930.493593 308.003966) rotate(-41.707317) scale(0.16 -0.16)">
     <use xlink:href="#AppleGothic-53"/>
     <use xlink:href="#AppleGothic-61" transform="translate(63.199997 0)"/>
     <use xlink:href="#AppleGothic-74" transform="translate(119.699982 0)"/>
     <use xlink:href="#AppleGothic-69" transform="translate(153.899979 0)"/>
     <use xlink:href="#AppleGothic-73" transform="translate(169.799973 0)"/>
     <use xlink:href="#AppleGothic-66" transform="translate(219.399963 0)"/>
     <use xlink:href="#AppleGothic-61" transform="translate(253.399948 0)"/>
     <use xlink:href="#AppleGothic-63" transform="translate(309.899933 0)"/>
     <use xlink:href="#AppleGothic-74" transform="translate(361.799927 0)"/>
     <use xlink:href="#AppleGothic-69" transform="translate(395.999924 0)"/>
     <use xlink:href="#AppleGothic-6f" transform="translate(411.899918 0)"/>
     <use xlink:href="#AppleGothic-6e" transform="translate(470.199905 0)"/>
    </g>
   </g>
   <g id="text_60">
    <!-- Love -->
    <g transform="translate(770.651755 360.747932) rotate(-54.878049) scale(0.16 -0.16)">
     <use xlink:href="#AppleGothic-4c"/>
     <use xlink:href="#AppleGothic-6f" transform="translate(55.199997 0)"/>
     <use xlink:href="#AppleGothic-76" transform="translate(113.499985 0)"/>
     <use xlink:href="#AppleGothic-65" transform="translate(167.699982 0)"/>
    </g>
   </g>
   <g id="text_61">
    <!-- Love -->
    <g transform="translate(897.79567 241.894338) rotate(-50.487805) scale(0.16 -0.16)">
     <use xlink:href="#AppleGothic-4c"/>
     <use xlink:href="#AppleGothic-6f" transform="translate(55.199997 0)"/>
     <use xlink:href="#AppleGothic-76" transform="translate(113.499985 0)"/>
     <use xlink:href="#AppleGothic-65" transform="translate(167.699982 0)"/>
    </g>
   </g>
   <g id="text_62">
    <!-- Affection -->
    <g transform="translate(832.20953 213.287736) rotate(-59.268293) scale(0.16 -0.16)">
     <use xlink:href="#AppleGothic-41"/>
     <use xlink:href="#AppleGothic-66" transform="translate(72.599991 0)"/>
     <use xlink:href="#AppleGothic-66" transform="translate(106.599976 0)"/>
     <use xlink:href="#AppleGothic-65" transform="translate(140.59996 0)"/>
     <use xlink:href="#AppleGothic-63" transform="translate(195.499954 0)"/>
     <use xlink:href="#AppleGothic-74" transform="translate(247.399948 0)"/>
     <use xlink:href="#AppleGothic-69" transform="translate(281.599945 0)"/>
     <use xlink:href="#AppleGothic-6f" transform="translate(297.499939 0)"/>
     <use xlink:href="#AppleGothic-6e" transform="translate(355.799927 0)"/>
    </g>
   </g>
   <g id="text_63">
    <!-- Relief -->
    <g transform="translate(690.623789 321.027019) rotate(-72.439024) scale(0.16 -0.16)">
     <use xlink:href="#AppleGothic-52"/>
     <use xlink:href="#AppleGothic-65" transform="translate(63.999985 0)"/>
     <use xlink:href="#AppleGothic-6c" transform="translate(118.899979 0)"/>
     <use xlink:href="#AppleGothic-69" transform="translate(135.599976 0)"/>
     <use xlink:href="#AppleGothic-65" transform="translate(151.499969 0)"/>
     <use xlink:href="#AppleGothic-66" transform="translate(206.399963 0)"/>
    </g>
   </g>
   <g id="text_64">
    <!-- Relief -->
    <g transform="translate(775.879025 169.313594) rotate(-68.04878) scale(0.16 -0.16)">
     <use xlink:href="#AppleGothic-52"/>
     <use xlink:href="#AppleGothic-65" transform="translate(63.999985 0)"/>
     <use xlink:href="#AppleGothic-6c" transform="translate(118.899979 0)"/>
     <use xlink:href="#AppleGothic-69" transform="translate(135.599976 0)"/>
     <use xlink:href="#AppleGothic-65" transform="translate(151.499969 0)"/>
     <use xlink:href="#AppleGothic-66" transform="translate(206.399963 0)"/>
    </g>
   </g>
   <g id="text_65">
    <!-- Reassurance -->
    <g transform="translate(702.101134 173.967284) rotate(-76.829268) scale(0.16 -0.16)">
     <use xlink:href="#AppleGothic-52"/>
     <use xlink:href="#AppleGothic-65" transform="translate(63.999985 0)"/>
     <use xlink:href="#AppleGothic-61" transform="translate(118.899979 0)"/>
     <use xlink:href="#AppleGothic-73" transform="translate(175.399963 0)"/>
     <use xlink:href="#AppleGothic-73" transform="translate(224.999954 0)"/>
     <use xlink:href="#AppleGothic-75" transform="translate(274.599945 0)"/>
     <use xlink:href="#AppleGothic-72" transform="translate(330.09993 0)"/>
     <use xlink:href="#AppleGothic-61" transform="translate(365.299927 0)"/>
     <use xlink:href="#AppleGothic-6e" transform="translate(421.799911 0)"/>
     <use xlink:href="#AppleGothic-63" transform="translate(477.699905 0)"/>
     <use xlink:href="#AppleGothic-65" transform="translate(529.599899 0)"/>
    </g>
   </g>
   <g id="text_66">
    <!-- Nostalgia -->
    <g transform="translate(623.769598 321.201426) rotate(-85.609756) scale(0.16 -0.16)">
     <use xlink:href="#AppleGothic-4e"/>
     <use xlink:href="#AppleGothic-6f" transform="translate(72.599991 0)"/>
     <use xlink:href="#AppleGothic-73" transform="translate(130.899979 0)"/>
     <use xlink:href="#AppleGothic-74" transform="translate(180.499969 0)"/>
     <use xlink:href="#AppleGothic-61" transform="translate(214.699966 0)"/>
     <use xlink:href="#AppleGothic-6c" transform="translate(271.199951 0)"/>
     <use xlink:href="#AppleGothic-67" transform="translate(287.899948 0)"/>
     <use xlink:href="#AppleGothic-69" transform="translate(344.099945 0)"/>
     <use xlink:href="#AppleGothic-61" transform="translate(359.999939 0)"/>
    </g>
   </g>
   <g id="text_67">
    <!-- Nostalgia -->
    <g transform="translate(636.943929 149.603749) rotate(-85.609756) scale(0.16 -0.16)">
     <use xlink:href="#AppleGothic-4e"/>
     <use xlink:href="#AppleGothic-6f" transform="translate(72.599991 0)"/>
     <use xlink:href="#AppleGothic-73" transform="translate(130.899979 0)"/>
     <use xlink:href="#AppleGothic-74" transform="translate(180.499969 0)"/>
     <use xlink:href="#AppleGothic-61" transform="translate(214.699966 0)"/>
     <use xlink:href="#AppleGothic-6c" transform="translate(271.199951 0)"/>
     <use xlink:href="#AppleGothic-67" transform="translate(287.899948 0)"/>
     <use xlink:href="#AppleGothic-69" transform="translate(344.099945 0)"/>
     <use xlink:href="#AppleGothic-61" transform="translate(359.999939 0)"/>
    </g>
   </g>
  </g>
 </g>
 <defs>
  <clipPath id="pce1df888e6">
   <rect x="4.32" y="4.32" width="1187.109" height="1187.109"/>
  </clipPath>
 </defs>
</svg>
